<?xml version="1.0" encoding="utf-8"?>
<!-- Generator: Adobe Illustrator 16.0.0, SVG Export Plug-In . SVG Version: 6.00 Build 0)  -->
<!DOCTYPE svg PUBLIC "-//W3C//DTD SVG 1.1//EN" "http://www.w3.org/Graphics/SVG/1.1/DTD/svg11.dtd">
<svg version="1.1" id="Capa_1" xmlns="http://www.w3.org/2000/svg" xmlns:xlink="http://www.w3.org/1999/xlink" x="0px" y="0px"
	 width="314px" height="427px" viewBox="0 0 314 427" enable-background="new 0 0 314 427" xml:space="preserve">
<g>
	<g>
		<path fill="#8DCE78" d="M205.662,211.523c23.053-6.974,46.684-20.893,69.304-45.262c0,0-53.204,27.203-86.513-20.765
			c20.175-4.563,41.158-15.618,61.122-37.128c0,0-37.734,19.286-63.716-11.441c13.024-3.697,26.423-11.345,39.234-25.149
			c0,0-31.009,15.825-49.117-13.992c10.502-2.147,21.471-7.7,31.888-18.931c0,0-37.099,18.971-43.37-38.233
			c0,0-10.047,55.25-43.368,42.485c0,0,12.12,9.774,29.191,13.942c-9.411,16.05-24.208,29.178-46.421,20.664
			c0,0,13.998,11.288,34.461,17.717c-13.413,18.835-33.017,31.991-60.757,21.358c0,0,24.065,19.435,57.966,27.689
			c-17.255,26.85-43.414,47.215-81.545,32.604c0,0,28.01,22.625,68.262,33.947c-22.824,30.746-55.744,51.53-101.813,33.879
			c0,0,160.088,129.362,293.484-14.378C313.955,230.531,249.99,263.223,205.662,211.523z"/>
		<polygon fill="#C19561" points="196.505,145.916 166.194,192.933 162.911,72.114 158.275,156.406 146.117,94.099 157.001,179.545 
			143.718,420.702 172.517,425.413 166.729,212.551 		"/>
	</g>
	<g>
		<path fill="#4B7F38" d="M98.373,313.472c12.292-3.719,24.896-11.142,36.955-24.132c0,0-28.366,14.508-46.132-11.074
			c10.759-2.432,21.95-8.327,32.596-19.796c0,0-20.126,10.283-33.979-6.102c6.949-1.971,14.091-6.049,20.918-13.41
			c0,0-16.532,8.44-26.185-7.459c5.602-1.146,11.444-4.108,17.001-10.097c0,0-19.782,10.115-23.124-20.386
			c0,0-5.36,29.463-23.125,22.652c0,0,6.459,5.215,15.563,7.436c-5.017,8.558-12.908,15.56-24.751,11.02
			c0,0,7.464,6.018,18.375,9.448c-7.152,10.041-17.605,17.058-32.397,11.386c0,0,12.832,10.365,30.907,14.768
			c-9.199,14.316-23.148,25.175-43.48,17.387c0,0,14.936,12.063,36.4,18.098c-12.171,16.397-29.727,27.479-54.29,18.067
			c0,0,85.36,68.981,156.498-7.665C156.123,323.612,122.01,341.041,98.373,313.472z"/>
		<polygon fill="#C19561" points="93.491,278.492 77.328,303.561 75.579,239.137 73.104,284.085 66.624,250.861 72.425,296.425 
			65.344,425.012 80.697,427.524 77.614,314.022 		"/>
	</g>
</g>
</svg>
