<?xml version="1.0" encoding="utf-8"?>
<!-- Generator: Adobe Illustrator 16.0.0, SVG Export Plug-In . SVG Version: 6.00 Build 0)  -->
<!DOCTYPE svg PUBLIC "-//W3C//DTD SVG 1.1//EN" "http://www.w3.org/Graphics/SVG/1.1/DTD/svg11.dtd">
<svg version="1.1" id="Capa_1" xmlns="http://www.w3.org/2000/svg" xmlns:xlink="http://www.w3.org/1999/xlink" x="0px" y="0px"
	 width="371px" height="371px" viewBox="0 0 371 371" enable-background="new 0 0 371 371" xml:space="preserve">
<g>
	<g>
		<g>
			
				<rect x="225.083" y="130.459" transform="matrix(0.7299 -0.6836 0.6836 0.7299 -28.8326 195.556)" fill="none" width="15.882" height="7.603"/>
			
				<rect x="248.33" y="111.415" transform="matrix(0.7299 -0.6836 0.6836 0.7299 -9.2813 205.4259)" fill="none" width="13.898" height="6.083"/>
			
				<rect x="233.922" y="162.136" transform="matrix(-0.7298 0.6837 -0.6837 -0.7298 529.0594 119.7207)" fill="none" width="13.896" height="4.562"/>
			
				<rect x="256.301" y="141.129" transform="matrix(-0.7299 0.6835 -0.6835 -0.7299 555.0634 69.7798)" fill="none" width="14.89" height="6.845"/>
			
				<rect x="315.905" y="51.315" transform="matrix(0.7299 -0.6836 0.6836 0.7299 50.1667 234.1501)" fill="none" width="10.919" height="4.563"/>
			
				<rect x="288.035" y="73.731" transform="matrix(0.7298 -0.6837 0.6837 0.7298 27.8886 223.3412)" fill="none" width="16.875" height="5.321"/>
			
				<rect x="269.672" y="95.086" transform="matrix(0.7298 -0.6836 0.6836 0.7298 7.6362 214.0573)" fill="none" width="9.927" height="4.562"/>
			
				<rect x="340.477" y="60.004" transform="matrix(-0.7299 0.6836 -0.6836 -0.7299 647.8687 -131.4503)" fill="none" width="18.861" height="4.563"/>
			
				<rect x="277.186" y="121.892" transform="matrix(-0.7299 0.6836 -0.6836 -0.7299 576.9211 21.894)" fill="none" width="13.898" height="6.084"/>
			
				<rect x="294.429" y="104.486" transform="matrix(-0.7298 0.6836 -0.6836 -0.7298 597.6763 -20.3943)" fill="none" width="16.877" height="6.842"/>
			
				<rect x="317.881" y="80.702" transform="matrix(-0.7298 0.6836 -0.6836 -0.7298 623.7784 -80.5603)" fill="none" width="19.855" height="4.563"/>
			
				<rect x="359.81" y="25.398" transform="matrix(-0.6836 -0.7299 0.7299 -0.6836 590.2776 317.6296)" fill="none" width="8.365" height="10.92"/>
			<g>
				
					<rect x="297.329" y="72.117" transform="matrix(0.6836 0.7298 -0.7298 0.6836 153.8264 -193.7383)" fill="#889B9E" enable-background="new    " width="6.083" height="16.874"/>
				<path fill="#FFFFFF" d="M291.08,84.069l5.177,5.525L309.66,77.04l-5.176-5.524L291.08,84.069z M304.416,73.62
					c0.674,0.721,2.465,2.632,3.14,3.353c-0.947,0.887-10.282,9.629-11.229,10.518c-0.675-0.72-2.466-2.632-3.141-3.354
					C294.133,83.249,303.469,74.506,304.416,73.62z"/>
			</g>
			<g>
				
					<rect x="285.013" y="83.653" transform="matrix(0.6835 0.7299 -0.7299 0.6835 158.3797 -181.1141)" fill="#889B9E" enable-background="new    " width="6.083" height="16.875"/>
				<path fill="#FFFFFF" d="M278.766,95.604l5.176,5.526l13.402-12.554l-5.178-5.526L278.766,95.604z M292.1,85.154
					c0.675,0.721,2.465,2.633,3.141,3.354c-0.948,0.887-10.283,9.63-11.23,10.518c-0.675-0.72-2.465-2.634-3.14-3.353
					C281.816,94.786,291.152,86.043,292.1,85.154z"/>
			</g>
			<g>
				
					<rect x="275.233" y="96.288" transform="matrix(0.6834 0.73 -0.73 0.6834 162.0037 -171.0887)" fill="#889B9E" enable-background="new    " width="6.083" height="9.928"/>
				<path fill="#FFFFFF" d="M271.52,102.392l5.177,5.525l8.331-7.805l-5.176-5.524L271.52,102.392z M279.784,96.691
					c0.674,0.722,2.465,2.633,3.14,3.354c-0.855,0.8-5.305,4.968-6.16,5.768c-0.674-0.719-2.465-2.632-3.139-3.352
					C274.479,101.66,278.928,97.49,279.784,96.691z"/>
			</g>
			<g>
				
					<rect x="266.539" y="102.448" transform="matrix(0.6835 0.7299 -0.7299 0.6835 165.165 -162.1523)" fill="#889B9E" enable-background="new    " width="6.083" height="13.896"/>
				<path fill="#FFFFFF" d="M261.377,111.893l5.176,5.526l11.229-10.52l-5.177-5.524L261.377,111.893z M272.537,103.478
					c0.676,0.72,2.467,2.634,3.141,3.354c-0.918,0.86-8.139,7.621-9.057,8.48c-0.674-0.719-2.466-2.631-3.14-3.351
					C264.398,111.099,271.619,104.338,272.537,103.478z"/>
			</g>
			<g>
				
					<rect x="256.397" y="111.947" transform="matrix(0.6836 0.7299 -0.7299 0.6836 168.8609 -151.7332)" fill="#889B9E" enable-background="new    " width="6.081" height="13.897"/>
				<path fill="#FFFFFF" d="M251.234,121.394l5.175,5.524l11.231-10.517l-5.178-5.525L251.234,121.394z M262.395,112.978
					c0.676,0.72,2.467,2.633,3.141,3.353c-0.918,0.86-8.139,7.623-9.057,8.483c-0.674-0.722-2.465-2.632-3.139-3.352
					C254.258,120.602,261.477,113.839,262.395,112.978z"/>
			</g>
			<g>
				
					<rect x="332.831" y="37.872" transform="matrix(0.6835 0.7299 -0.7299 0.6835 140.8241 -230.1931)" fill="#889B9E" enable-background="new    " width="6.081" height="18.861"/>
				<path fill="#FFFFFF" d="M325.857,51.496l5.176,5.526l14.852-13.914l-5.177-5.526L325.857,51.496z M340.641,39.688
					c0.676,0.72,2.465,2.632,3.141,3.352c-0.961,0.9-11.718,10.976-12.68,11.877c-0.674-0.72-2.466-2.633-3.14-3.353
					C328.924,50.664,339.678,40.588,340.641,39.688z"/>
			</g>
			<g>
				
					<rect x="310.732" y="58.073" transform="matrix(0.6837 0.7298 -0.7298 0.6837 148.874 -207.4742)" fill="#889B9E" enable-background="new    " width="6.082" height="19.854"/>
				<path fill="#FFFFFF" d="M303.396,72.532l5.178,5.526l15.575-14.59l-5.175-5.524L303.396,72.532z M318.906,60.046
					c0.673,0.721,2.465,2.632,3.141,3.353c-0.969,0.905-12.436,11.649-13.404,12.555c-0.674-0.721-2.466-2.633-3.141-3.354
					C306.469,71.695,317.938,60.952,318.906,60.046z"/>
			</g>
			<g>
				
					<rect x="321.963" y="52.021" transform="matrix(0.6836 0.7298 -0.7298 0.6836 144.7807 -219.0168)" fill="#889B9E" enable-background="new    " width="6.083" height="10.92"/>
				<path fill="#FFFFFF" d="M317.887,58.958l5.178,5.525l9.055-8.48l-5.176-5.527L317.887,58.958z M326.876,52.582
					c0.673,0.718,2.464,2.632,3.14,3.354c-0.875,0.816-6.009,5.625-6.883,6.446c-0.676-0.722-2.465-2.635-3.141-3.355
					C320.867,58.209,326.002,53.4,326.876,52.582z"/>
			</g>
			<g>
				
					<rect x="345.872" y="26.649" transform="matrix(0.6836 0.7299 -0.7299 0.6836 136.0199 -243.5663)" fill="#889B9E" enable-background="new    " width="6.08" height="16.876"/>
				<path fill="#FFFFFF" d="M339.622,38.602l5.176,5.525l13.403-12.555l-5.176-5.523L339.622,38.602z M352.958,28.151
					c0.673,0.722,2.464,2.634,3.14,3.354c-0.947,0.886-10.283,9.63-11.23,10.518c-0.674-0.72-2.465-2.634-3.141-3.352
					C342.674,37.782,352.009,29.04,352.958,28.151z"/>
			</g>
			<g>
				
					<rect x="213.178" y="154.536" transform="matrix(0.7299 -0.6836 0.6836 0.7299 -48.7928 191.6741)" fill="#889B9E" enable-background="new    " width="9.926" height="6.084"/>
				<path fill="#FFFFFF" d="M211.387,158.715l5.178,5.526l8.33-7.804l-5.176-5.525L211.387,158.715z M219.648,153.016
					c0.676,0.721,2.468,2.633,3.142,3.353c-0.855,0.8-5.306,4.968-6.157,5.77c-0.676-0.72-2.468-2.634-3.142-3.354
					C214.346,157.984,218.795,153.817,219.648,153.016z"/>
			</g>
			<g>
				
					<rect x="223.793" y="142.485" transform="matrix(0.6836 0.7299 -0.7299 0.6836 180.8483 -118.2774)" fill="#889B9E" enable-background="new    " width="6.082" height="13.898"/>
				<path fill="#FFFFFF" d="M218.633,151.93l5.176,5.525l11.229-10.517l-5.175-5.526L218.633,151.93z M229.793,143.516
					c0.676,0.72,2.466,2.633,3.14,3.353c-0.917,0.859-8.138,7.623-9.057,8.483c-0.675-0.72-2.466-2.632-3.142-3.352
					C221.654,151.139,228.875,144.376,229.793,143.516z"/>
			</g>
			<g>
				
					<rect x="245.89" y="121.29" transform="matrix(0.6834 0.7301 -0.7301 0.6834 172.8095 -140.9769)" fill="#889B9E" enable-background="new    " width="6.082" height="14.892"/>
				<path fill="#FFFFFF" d="M240.367,131.572l5.176,5.525l11.954-11.197l-5.177-5.525L240.367,131.572z M252.251,122.479
					c0.677,0.721,2.466,2.632,3.142,3.353c-0.93,0.871-8.853,8.291-9.781,9.161c-0.674-0.72-2.466-2.632-3.14-3.352
					C243.401,130.769,251.323,123.35,252.251,122.479z"/>
			</g>
			<g>
				
					<rect x="234.66" y="131.313" transform="matrix(0.6836 0.7298 -0.7298 0.6836 176.8406 -129.427)" fill="#889B9E" enable-background="new    " width="6.083" height="15.883"/>
				<path fill="#FFFFFF" d="M228.776,142.43l5.175,5.525l12.678-11.874l-5.176-5.526L228.776,142.43z M241.386,132.658
					c0.673,0.72,2.464,2.633,3.139,3.354c-0.938,0.877-9.567,8.958-10.505,9.838c-0.676-0.721-2.465-2.632-3.141-3.352
					C231.818,141.619,240.446,133.538,241.386,132.658z"/>
			</g>
			<g>
				
					<rect x="284.988" y="107.11" transform="matrix(-0.6837 -0.7298 0.7298 -0.6837 403.8031 399.1717)" fill="#889B9E" enable-background="new    " width="6.843" height="9.927"/>
				<path fill="#FFFFFF" d="M281.396,112.935l5.695,6.083l8.333-7.806l-5.698-6.08L281.396,112.935z M289.658,107.235
					c0.71,0.759,2.951,3.15,3.662,3.909c-0.855,0.801-5.307,4.97-6.16,5.769c-0.711-0.759-2.949-3.151-3.659-3.908
					C284.354,112.203,288.804,108.035,289.658,107.235z"/>
			</g>
			<g>
				
					<rect x="307.085" y="82.938" transform="matrix(-0.6835 -0.7299 0.7299 -0.6835 456.0535 380.4778)" fill="#889B9E" enable-background="new    " width="6.843" height="16.876"/>
				<path fill="#FFFFFF" d="M300.957,94.614l5.697,6.08l13.402-12.556l-5.695-6.079L300.957,94.614z M314.293,84.162
					c0.71,0.758,2.949,3.151,3.659,3.908c-0.946,0.889-10.282,9.632-11.231,10.521c-0.709-0.759-2.949-3.15-3.658-3.908
					C304.009,93.794,313.344,85.05,314.293,84.162z"/>
			</g>
			<g>
				
					<rect x="294.769" y="94.475" transform="matrix(-0.6837 -0.7298 0.7298 -0.6837 426.9556 390.8846)" fill="#889B9E" enable-background="new    " width="6.843" height="16.874"/>
				<path fill="#FFFFFF" d="M288.639,106.148l5.701,6.081l13.4-12.555l-5.697-6.08L288.639,106.148z M301.975,95.7
					c0.71,0.757,2.951,3.151,3.66,3.908c-0.945,0.887-10.281,9.631-11.229,10.518c-0.709-0.757-2.951-3.151-3.662-3.909
					C291.691,105.33,301.027,96.586,301.975,95.7z"/>
			</g>
			<g>
				
					<rect x="276.296" y="113.268" transform="matrix(-0.6835 -0.73 0.73 -0.6835 383.1481 406.5651)" fill="#889B9E" enable-background="new    " width="6.841" height="13.898"/>
				<path fill="#FFFFFF" d="M271.254,122.437l5.694,6.079L288.178,118l-5.695-6.083L271.254,122.437z M282.414,114.021
					c0.709,0.758,2.949,3.152,3.66,3.909c-0.918,0.86-8.139,7.621-9.057,8.48c-0.711-0.756-2.949-3.147-3.658-3.906
					C274.275,121.645,281.494,114.882,282.414,114.021z"/>
			</g>
			<g>
				
					<rect x="266.151" y="122.768" transform="matrix(-0.6836 -0.7298 0.7298 -0.6836 359.1808 415.1389)" fill="#889B9E" enable-background="new    " width="6.843" height="13.898"/>
				<path fill="#FFFFFF" d="M261.109,131.936l5.696,6.082l11.229-10.518l-5.695-6.082L261.109,131.936z M272.271,123.522
					c0.709,0.757,2.949,3.149,3.66,3.908c-0.918,0.86-8.139,7.621-9.057,8.482c-0.71-0.757-2.95-3.149-3.66-3.908
					C264.133,131.146,271.353,124.383,272.271,123.522z"/>
			</g>
			<g>
				
					<rect x="255.646" y="132.112" transform="matrix(-0.6836 -0.7298 0.7298 -0.6836 334.3266 424.0355)" fill="#889B9E" enable-background="new    " width="6.842" height="14.89"/>
				<path fill="#FFFFFF" d="M250.242,142.117l5.699,6.078L267.894,137l-5.698-6.083L250.242,142.117z M262.129,133.022
					c0.707,0.759,2.949,3.15,3.66,3.909c-0.93,0.871-8.852,8.291-9.781,9.162c-0.709-0.758-2.951-3.151-3.662-3.909
					C253.277,141.313,261.199,133.892,262.129,133.022z"/>
			</g>
			<g>
				
					<rect x="224.855" y="163.434" transform="matrix(-0.6835 -0.73 0.73 -0.6835 261.3682 450.1319)" fill="#889B9E" enable-background="new    " width="6.844" height="9.929"/>
				<path fill="#FFFFFF" d="M221.264,169.26l5.697,6.081l8.328-7.804l-5.694-6.08L221.264,169.26z M229.526,163.561
					c0.709,0.758,2.95,3.149,3.66,3.908c-0.855,0.799-5.304,4.967-6.16,5.769c-0.71-0.758-2.95-3.151-3.659-3.909
					C224.223,168.528,228.671,164.361,229.526,163.561z"/>
			</g>
			<g>
				
					<rect x="320.489" y="68.894" transform="matrix(-0.6836 -0.7298 0.7298 -0.6836 487.8105 369.1092)" fill="#889B9E" enable-background="new    " width="6.843" height="19.854"/>
				<path fill="#FFFFFF" d="M313.273,83.076l5.697,6.083l15.575-14.592l-5.694-6.08L313.273,83.076z M328.783,70.59
					c0.709,0.76,2.947,3.149,3.658,3.907c-0.967,0.906-12.434,11.648-13.402,12.555c-0.709-0.757-2.951-3.148-3.66-3.907
					C316.346,82.239,327.816,71.497,328.783,70.59z"/>
			</g>
			<g>
				
					<rect x="350.611" y="42.487" transform="matrix(-0.7298 0.6837 -0.6837 -0.7298 652.4656 -166.0576)" fill="#889B9E" enable-background="new    " width="16.874" height="6.844"/>
				<path fill="#FFFFFF" d="M349.498,49.145l5.697,6.082l13.403-12.554l-5.696-6.083L349.498,49.145z M362.832,38.694
					c0.711,0.76,2.951,3.152,3.662,3.911c-0.947,0.886-10.282,9.63-11.23,10.516c-0.709-0.757-2.95-3.149-3.66-3.908
					C352.55,48.327,361.886,39.583,362.832,38.694z"/>
			</g>
			<g>
				
					<rect x="244.415" y="142.133" transform="matrix(-0.6836 -0.7299 0.7299 -0.6836 307.7176 433.553)" fill="#889B9E" enable-background="new    " width="6.844" height="15.883"/>
				<path fill="#FFFFFF" d="M238.651,152.974l5.696,6.081l12.68-11.877l-5.697-6.081L238.651,152.974z M251.261,143.203
					c0.71,0.757,2.95,3.151,3.66,3.908c-0.938,0.878-9.566,8.961-10.505,9.84c-0.71-0.759-2.951-3.151-3.662-3.908
					C241.694,152.162,250.322,144.082,251.261,143.203z"/>
			</g>
			<g>
				
					<rect x="233.549" y="153.307" transform="matrix(-0.6837 -0.7298 0.7298 -0.6837 282.0332 442.7554)" fill="#889B9E" enable-background="new    " width="6.843" height="13.897"/>
				<path fill="#FFFFFF" d="M228.509,162.474l5.694,6.081l11.23-10.517l-5.697-6.083L228.509,162.474z M239.668,154.06
					c0.71,0.757,2.951,3.151,3.662,3.909c-0.919,0.86-8.141,7.623-9.058,8.481c-0.71-0.758-2.95-3.149-3.66-3.909
					C231.529,161.684,238.75,154.92,239.668,154.06z"/>
			</g>
			<g>
				
					<rect x="331.719" y="62.843" transform="matrix(-0.6838 -0.7297 0.7297 -0.6838 514.467 359.5522)" fill="#889B9E" enable-background="new    " width="6.842" height="10.92"/>
				<path fill="#FFFFFF" d="M327.764,69.504l5.696,6.079l9.056-8.481l-5.695-6.08L327.764,69.504z M336.752,63.125
					c0.709,0.758,2.951,3.151,3.66,3.909c-0.875,0.819-6.01,5.626-6.883,6.446c-0.71-0.758-2.95-3.151-3.661-3.908
					C330.743,68.754,335.877,63.944,336.752,63.125z"/>
			</g>
			<g>
				
					<rect x="342.587" y="48.693" transform="matrix(-0.6837 -0.7298 0.7298 -0.6837 540.1519 350.3704)" fill="#889B9E" enable-background="new    " width="6.843" height="18.861"/>
				<path fill="#FFFFFF" d="M335.734,62.04l5.695,6.08l14.854-13.912l-5.699-6.08L335.734,62.04z M350.516,50.232
					c0.711,0.757,2.952,3.149,3.662,3.908c-0.961,0.9-11.718,10.974-12.68,11.875c-0.709-0.76-2.951-3.151-3.66-3.908
					C338.799,61.208,349.555,51.132,350.516,50.232z"/>
			</g>
			<g>
				
					<rect x="349.667" y="31.921" transform="matrix(-0.6836 -0.7298 0.7298 -0.6836 566.3014 326.1946)" fill="#889B9E" enable-background="new    " width="8.365" height="16.875"/>
				<path fill="#FFFFFF" d="M343.781,43.04l6.734,7.192l13.402-12.555l-6.734-7.192L343.781,43.04z M357.115,32.591
					c0.762,0.814,3.937,4.203,4.699,5.019c-0.947,0.887-10.281,9.63-11.23,10.518c-0.762-0.815-3.936-4.205-4.699-5.019
					C346.833,42.222,356.167,33.478,357.115,32.591z"/>
			</g>
			<g>
				
					<rect x="238.457" y="136.585" transform="matrix(-0.6837 -0.7297 0.7297 -0.6837 303.0738 420.4048)" fill="#889B9E" enable-background="new    " width="8.364" height="15.883"/>
				<path fill="#FFFFFF" d="M232.933,146.869l6.735,7.191l12.678-11.876l-6.734-7.192L232.933,146.869z M245.543,137.097
					c0.762,0.814,3.936,4.205,4.699,5.02c-0.938,0.877-9.565,8.959-10.506,9.837c-0.761-0.813-3.937-4.202-4.699-5.016
					C235.977,146.058,244.604,137.978,245.543,137.097z"/>
			</g>
			<g>
				
					<rect x="314.529" y="63.346" transform="matrix(-0.6837 -0.7298 0.7298 -0.6837 483.1436 355.9526)" fill="#889B9E" enable-background="new    " width="8.364" height="19.852"/>
				<path fill="#FFFFFF" d="M307.556,76.972l6.737,7.189l15.575-14.589l-6.735-7.19L307.556,76.972z M323.064,64.484
					c0.762,0.816,3.938,4.208,4.699,5.021c-0.967,0.906-12.436,11.649-13.402,12.555c-0.763-0.815-3.939-4.205-4.701-5.02
					C310.627,76.133,322.098,65.391,323.064,64.484z"/>
			</g>
			<g>
				
					<rect x="325.759" y="57.292" transform="matrix(-0.6835 -0.73 0.73 -0.6835 509.6486 346.4868)" fill="#889B9E" enable-background="new    " width="8.366" height="10.921"/>
				<path fill="#FFFFFF" d="M322.047,63.399l6.736,7.191l9.055-8.483l-6.736-7.19L322.047,63.399z M331.033,57.022
					c0.762,0.813,3.938,4.202,4.701,5.018c-0.876,0.818-6.009,5.628-6.883,6.447c-0.764-0.816-3.939-4.204-4.702-5.019
					C325.025,62.649,330.16,57.84,331.033,57.022z"/>
			</g>
			<g>
				
					<rect x="218.115" y="158.668" transform="matrix(0.7298 -0.6836 0.6836 0.7298 -51.0588 196.5029)" fill="#889B9E" enable-background="new    " width="9.927" height="8.363"/>
				<path fill="#FFFFFF" d="M215.545,163.156l6.736,7.19l8.331-7.804l-6.736-7.19L215.545,163.156z M223.809,157.456
					c0.761,0.815,3.936,4.204,4.7,5.018c-0.855,0.8-5.304,4.967-6.159,5.769c-0.763-0.814-3.938-4.205-4.699-5.018
					C218.505,162.423,222.953,158.255,223.809,157.456z"/>
			</g>
			<g>
				
					<rect x="301.127" y="77.389" transform="matrix(-0.6836 -0.7298 0.7298 -0.6836 451.3818 367.3267)" fill="#889B9E" enable-background="new    " width="8.364" height="16.875"/>
				<path fill="#FFFFFF" d="M295.24,88.508l6.734,7.191l13.404-12.555l-6.736-7.191L295.24,88.508z M308.574,78.058
					c0.762,0.814,3.938,4.205,4.699,5.018c-0.947,0.887-10.282,9.631-11.23,10.519c-0.762-0.813-3.938-4.203-4.699-5.018
					C298.291,87.689,307.625,78.945,308.574,78.058z"/>
			</g>
			<g>
				
					<rect x="331.379" y="48.391" transform="matrix(-0.7298 0.6836 -0.6836 -0.7298 625.4844 -142.0408)" fill="#889B9E" enable-background="new    " width="18.86" height="8.365"/>
				<path fill="#FFFFFF" d="M330.016,55.936l6.736,7.189l14.852-13.912l-6.736-7.19L330.016,55.936z M344.798,44.127
					c0.764,0.815,3.938,4.204,4.7,5.018c-0.961,0.9-11.717,10.976-12.678,11.876c-0.762-0.814-3.938-4.206-4.701-5.018
					C333.082,55.104,343.838,45.027,344.798,44.127z"/>
			</g>
			<g>
				
					<rect x="227.59" y="147.756" transform="matrix(-0.6836 -0.7299 0.7299 -0.6836 277.2819 429.6247)" fill="#889B9E" enable-background="new    " width="8.365" height="13.898"/>
				<path fill="#FFFFFF" d="M222.79,156.369l6.736,7.191l11.228-10.518l-6.734-7.191L222.79,156.369z M233.951,147.955
					c0.762,0.813,3.937,4.205,4.7,5.02c-0.919,0.858-8.138,7.621-9.057,8.482c-0.763-0.813-3.938-4.204-4.7-5.019
					C225.813,155.578,233.032,148.816,233.951,147.955z"/>
			</g>
			<g>
				
					<rect x="260.193" y="117.218" transform="matrix(-0.6837 -0.7298 0.7298 -0.6837 354.5161 401.9921)" fill="#889B9E" enable-background="new    " width="8.364" height="13.899"/>
				<path fill="#FFFFFF" d="M255.393,125.832l6.736,7.19l11.23-10.517l-6.738-7.193L255.393,125.832z M266.553,117.418
					c0.764,0.812,3.938,4.203,4.701,5.018c-0.918,0.859-8.14,7.621-9.059,8.481c-0.76-0.813-3.936-4.204-4.698-5.018
					C258.416,125.041,265.635,118.277,266.553,117.418z"/>
			</g>
			<g>
				
					<rect x="249.687" y="126.563" transform="matrix(-0.6837 -0.7298 0.7298 -0.6837 329.6355 410.8957)" fill="#889B9E" enable-background="new    " width="8.365" height="14.89"/>
				<path fill="#FFFFFF" d="M244.524,136.013l6.736,7.19l11.954-11.198l-6.736-7.19L244.524,136.013z M256.409,126.917
					c0.764,0.815,3.938,4.205,4.7,5.018c-0.93,0.871-8.852,8.293-9.779,9.162c-0.764-0.815-3.938-4.204-4.701-5.017
					C247.559,135.209,255.48,127.788,256.409,126.917z"/>
			</g>
			<g>
				
					<rect x="288.811" y="88.925" transform="matrix(-0.6836 -0.7298 0.7298 -0.6836 422.2369 377.7556)" fill="#889B9E" enable-background="new    " width="8.364" height="16.876"/>
				<path fill="#FFFFFF" d="M282.924,100.044l6.734,7.19l13.404-12.553l-6.736-7.192L282.924,100.044z M296.257,89.594
					c0.763,0.814,3.938,4.204,4.7,5.02c-0.948,0.887-10.284,9.629-11.23,10.518c-0.763-0.816-3.938-4.204-4.699-5.02
					C285.975,99.227,295.311,90.482,296.257,89.594z"/>
			</g>
			<g>
				
					<rect x="270.336" y="107.719" transform="matrix(-0.6837 -0.7298 0.7298 -0.6837 378.5159 393.4023)" fill="#889B9E" enable-background="new    " width="8.365" height="13.896"/>
				<path fill="#FFFFFF" d="M265.535,116.331l6.736,7.191l11.229-10.518l-6.737-7.192L265.535,116.331z M276.696,107.917
					c0.762,0.816,3.938,4.203,4.7,5.018c-0.919,0.859-8.139,7.624-9.057,8.482c-0.763-0.813-3.938-4.203-4.699-5.017
					C268.559,115.539,275.777,108.778,276.696,107.917z"/>
			</g>
			<g>
				
					<rect x="279.03" y="101.561" transform="matrix(-0.6837 -0.7298 0.7298 -0.6837 399.0944 386.0381)" fill="#889B9E" enable-background="new    " width="8.363" height="9.927"/>
				<path fill="#FFFFFF" d="M275.68,106.832l6.734,7.189l8.33-7.804l-6.734-7.191L275.68,106.832z M283.941,101.13
					c0.762,0.814,3.938,4.205,4.699,5.018c-0.854,0.8-5.303,4.969-6.158,5.769c-0.762-0.813-3.938-4.203-4.7-5.018
					C278.637,106.099,283.086,101.931,283.941,101.13z"/>
			</g>
		</g>
		<g>
			<path fill="#889B9E" enable-background="new    " d="M188.023,184.748c-1.201,1.123-3.087,1.058-4.21-0.143l0,0
				c-1.121-1.202-1.057-3.087,0.143-4.209L350.77,24.504c1.2-1.122,3.086-1.059,4.209,0.141l0,0
				c1.122,1.204,1.059,3.088-0.144,4.209L188.023,184.748z"/>
			<path fill="#FFFFFF" d="M350.26,23.96L183.45,179.852c-0.727,0.678-1.146,1.6-1.181,2.593c-0.034,0.993,0.323,1.941,1.001,2.668
				c0.677,0.726,1.599,1.145,2.594,1.179c0.993,0.034,1.941-0.323,2.667-1.001l0,0L355.344,29.4c0.726-0.678,1.144-1.599,1.18-2.595
				c0.032-0.994-0.322-1.94-1.003-2.667c-0.677-0.728-1.598-1.145-2.593-1.179C351.936,22.925,350.987,23.281,350.26,23.96z
				 M185.913,184.803c-0.594-0.02-1.147-0.272-1.555-0.707c-0.407-0.436-0.62-1.006-0.601-1.602
				c0.022-0.595,0.273-1.149,0.708-1.556L351.277,25.047c0.436-0.406,1.004-0.62,1.6-0.6c0.599,0.02,1.15,0.271,1.558,0.706
				c0.406,0.438,0.62,1.005,0.6,1.603c-0.02,0.595-0.271,1.147-0.706,1.555L187.516,184.203
				C187.078,184.611,186.512,184.824,185.913,184.803z"/>
		</g>
	</g>
	<g>
		<g>
			
				<rect x="225.451" y="229.65" transform="matrix(0.6836 0.7298 -0.7298 0.6836 244.2277 -96.4791)" fill="none" width="15.882" height="7.604"/>
			
				<rect x="246.247" y="252.664" transform="matrix(0.6836 0.7298 -0.7298 0.6836 266.7343 -103.8915)" fill="none" width="13.898" height="6.083"/>
			
				<rect x="196.287" y="239.015" transform="matrix(-0.6835 -0.7299 0.7299 -0.6835 166.028 554.576)" fill="none" width="13.897" height="4.563"/>
			
				<rect x="215.655" y="260.752" transform="matrix(-0.6835 -0.7299 0.7299 -0.6835 182.7748 607.5909)" fill="none" width="14.89" height="6.843"/>
			
				<rect x="308.595" y="319.511" transform="matrix(0.6834 0.73 -0.73 0.6834 334.3385 -127.3948)" fill="none" width="10.918" height="4.563"/>
			
				<rect x="282.824" y="294.238" transform="matrix(0.6837 0.7297 -0.7297 0.6837 308.7757 -118.643)" fill="none" width="16.874" height="5.321"/>
			
				<rect x="265.322" y="272.781" transform="matrix(0.6837 0.7298 -0.7298 0.6837 286.2153 -110.2422)" fill="none" width="9.927" height="4.563"/>
			
				<rect x="295.938" y="348.054" transform="matrix(-0.6836 -0.7298 0.7298 -0.6836 258.4444 812.6989)" fill="none" width="18.859" height="4.56"/>
			
				<rect x="235.769" y="281.52" transform="matrix(-0.6836 -0.7299 0.7299 -0.6836 200.9381 656.2358)" fill="none" width="13.898" height="6.083"/>
			
				<rect x="251.307" y="299.875" transform="matrix(-0.6837 -0.7298 0.7298 -0.6837 215.9832 700.21)" fill="none" width="16.877" height="6.842"/>
			
				<rect x="274.742" y="325.954" transform="matrix(-0.6836 -0.7299 0.7299 -0.6836 239.6959 760.3829)" fill="none" width="19.855" height="4.563"/>
			
				<rect x="332.613" y="358.96" transform="matrix(0.73 -0.6835 0.6835 0.73 -158.1292 328.6043)" fill="none" width="8.364" height="10.92"/>
			<g>
				
					<rect x="284.059" y="292.361" transform="matrix(-0.7296 0.6839 -0.6839 -0.7296 702.2738 323.9338)" fill="#889B9E" enable-background="new    " width="6.081" height="16.873"/>
				<path fill="#FFFFFF" d="M278.058,296.684l12.555,13.404l5.526-5.176l-12.555-13.402L278.058,296.684z M283.515,293.612
					c0.89,0.948,9.632,10.282,10.519,11.231c-0.719,0.674-2.633,2.465-3.353,3.14c-0.887-0.948-9.631-10.282-10.519-11.231
					C280.883,296.078,282.795,294.288,283.515,293.612z"/>
			</g>
			<g>
				
					<rect x="272.519" y="280.043" transform="matrix(-0.7299 0.6835 -0.6835 -0.7299 673.8849 310.6964)" fill="#889B9E" enable-background="new    " width="6.083" height="16.877"/>
				<path fill="#FFFFFF" d="M266.521,284.369l12.555,13.402l5.527-5.176l-12.555-13.402L266.521,284.369z M271.98,281.297
					c0.887,0.948,9.631,10.282,10.518,11.229c-0.721,0.675-2.633,2.466-3.354,3.14c-0.887-0.947-9.631-10.281-10.52-11.229
					C269.346,283.762,271.259,281.971,271.98,281.297z"/>
			</g>
			<g>
				
					<rect x="263.359" y="273.739" transform="matrix(-0.7296 0.6839 -0.6839 -0.7296 651.3624 299.8679)" fill="#889B9E" enable-background="new    " width="6.082" height="9.926"/>
				<path fill="#FFFFFF" d="M259.735,277.123l7.804,8.332l5.525-5.176l-7.805-8.333L259.735,277.123z M265.192,274.051
					c0.8,0.855,4.969,5.305,5.769,6.16c-0.721,0.675-2.633,2.465-3.354,3.141c-0.799-0.855-4.968-5.307-5.768-6.16
					C262.561,276.519,264.473,274.727,265.192,274.051z"/>
			</g>
			<g>
				
					<rect x="255.216" y="263.059" transform="matrix(-0.7298 0.6837 -0.6837 -0.7298 631.3281 290.4841)" fill="#889B9E" enable-background="new    " width="6.082" height="13.897"/>
				<path fill="#FFFFFF" d="M250.234,266.98l10.52,11.23l5.525-5.179l-10.52-11.228L250.234,266.98z M255.691,263.909
					c0.861,0.919,7.623,8.138,8.482,9.056c-0.721,0.676-2.633,2.465-3.352,3.141c-0.859-0.918-7.622-8.139-8.482-9.059
					C253.061,266.375,254.972,264.584,255.691,263.909z"/>
			</g>
			<g>
				
					<rect x="245.715" y="252.914" transform="matrix(-0.7299 0.6835 -0.6835 -0.7299 607.9529 279.5148)" fill="#889B9E" enable-background="new    " width="6.082" height="13.9"/>
				<path fill="#FFFFFF" d="M240.734,256.837l10.519,11.229l5.526-5.176l-10.52-11.229L240.734,256.837z M246.191,253.766
					c0.859,0.92,7.621,8.139,8.482,9.057c-0.72,0.676-2.631,2.467-3.353,3.14c-0.86-0.917-7.622-8.139-8.483-9.057
					C243.561,256.23,245.471,254.439,246.191,253.766z"/>
			</g>
			<g>
				
					<rect x="317.311" y="326.869" transform="matrix(-0.7299 0.6835 -0.6835 -0.7299 784.0535 362.8045)" fill="#889B9E" enable-background="new    " width="6.082" height="18.86"/>
				<path fill="#FFFFFF" d="M310.631,331.461l13.913,14.854l5.526-5.178l-13.913-14.853L310.631,331.461z M316.088,328.389
					c0.9,0.963,10.977,11.718,11.877,12.68c-0.721,0.674-2.631,2.465-3.353,3.14c-0.899-0.962-10.977-11.718-11.876-12.679
					C313.456,330.855,315.368,329.064,316.088,328.389z"/>
			</g>
			<g>
				
					<rect x="296.611" y="304.274" transform="matrix(-0.7298 0.6837 -0.6837 -0.7298 733.1458 338.6275)" fill="#889B9E" enable-background="new    " width="6.082" height="19.855"/>
				<path fill="#FFFFFF" d="M289.595,309.002l14.591,15.575l5.525-5.175l-14.59-15.576L289.595,309.002z M295.053,305.929
					c0.904,0.969,11.648,12.438,12.555,13.404c-0.721,0.675-2.635,2.466-3.354,3.141c-0.906-0.97-11.648-12.437-12.557-13.405
					C292.418,308.396,294.332,306.604,295.053,305.929z"/>
			</g>
			<g>
				
					<rect x="307.128" y="319.971" transform="matrix(-0.7301 0.6834 -0.6834 -0.7301 759.0074 351.0592)" fill="#889B9E" enable-background="new    " width="6.085" height="10.922"/>
				<path fill="#FFFFFF" d="M303.166,323.491l8.484,9.057l5.525-5.176l-8.482-9.056L303.166,323.491z M308.625,320.418
					c0.818,0.877,5.627,6.01,6.447,6.884c-0.721,0.677-2.634,2.466-3.355,3.142c-0.816-0.875-5.625-6.01-6.445-6.884
					C305.992,322.886,307.903,321.096,308.625,320.418z"/>
			</g>
			<g>
				
					<rect x="329.525" y="340.903" transform="matrix(-0.7296 0.6839 -0.6839 -0.7296 814.1105 376.7925)" fill="#889B9E" enable-background="new    " width="6.083" height="16.873"/>
				<path fill="#FFFFFF" d="M323.526,345.226l12.553,13.405l5.525-5.178l-12.554-13.402L323.526,345.226z M328.982,342.154
					c0.889,0.947,9.633,10.283,10.518,11.229c-0.72,0.674-2.632,2.469-3.352,3.141c-0.887-0.947-9.629-10.281-10.519-11.229
					C326.35,344.62,328.264,342.828,328.982,342.154z"/>
			</g>
			<g>
				
					<rect x="205.112" y="215.526" transform="matrix(0.6835 0.7299 -0.7299 0.6835 226.0291 -84.1678)" fill="#889B9E" enable-background="new    " width="9.927" height="6.084"/>
				<path fill="#FFFFFF" d="M203.41,216.99l7.805,8.33l5.525-5.176l-7.803-8.33L203.41,216.99z M208.869,213.919
					c0.8,0.854,4.965,5.302,5.766,6.157c-0.72,0.676-2.631,2.466-3.352,3.141c-0.801-0.854-4.967-5.305-5.768-6.156
					C206.234,216.385,208.146,214.594,208.869,213.919z"/>
			</g>
			<g>
				
					<rect x="215.178" y="220.312" transform="matrix(-0.73 0.6834 -0.6834 -0.73 532.8396 244.0254)" fill="#889B9E" enable-background="new    " width="6.081" height="13.9"/>
				<path fill="#FFFFFF" d="M210.195,224.234l10.521,11.229l5.525-5.174l-10.52-11.23L210.195,224.234z M215.654,221.162
					c0.859,0.919,7.621,8.139,8.482,9.059c-0.722,0.675-2.633,2.465-3.352,3.139c-0.861-0.918-7.623-8.139-8.484-9.055
					C213.021,223.629,214.934,221.839,215.654,221.162z"/>
			</g>
			<g>
				
					<rect x="235.876" y="241.914" transform="matrix(-0.7298 0.6837 -0.6837 -0.7298 583.7551 267.9884)" fill="#889B9E" enable-background="new    " width="6.082" height="14.889"/>
				<path fill="#FFFFFF" d="M230.556,245.971l11.196,11.953l5.525-5.177l-11.197-11.954L230.556,245.971z M236.012,242.897
					c0.871,0.93,8.291,8.853,9.162,9.782c-0.721,0.674-2.633,2.465-3.352,3.139c-0.872-0.928-8.293-8.852-9.164-9.781
					C233.38,245.363,235.291,243.574,236.012,242.897z"/>
			</g>
			<g>
				
					<rect x="225.357" y="230.189" transform="matrix(-0.7298 0.6836 -0.6836 -0.7298 557.8824 255.793)" fill="#889B9E" enable-background="new    " width="6.083" height="15.881"/>
				<path fill="#FFFFFF" d="M219.697,234.379l11.875,12.678l5.527-5.176l-11.877-12.678L219.697,234.379z M225.153,231.306
					c0.88,0.938,8.961,9.566,9.841,10.507c-0.721,0.674-2.633,2.465-3.352,3.14c-0.881-0.94-8.961-9.565-9.842-10.505
					C222.522,233.771,224.434,231.98,225.153,231.306z"/>
			</g>
			<g>
				
					<rect x="252.156" y="283.874" transform="matrix(0.7297 -0.6838 0.6838 0.7297 -128.4142 252.8251)" fill="#889B9E" enable-background="new    " width="6.844" height="9.926"/>
				<path fill="#FFFFFF" d="M248.637,287.519l7.804,8.332l6.081-5.696l-7.805-8.332L248.637,287.519z M254.648,283.929
					c0.801,0.854,4.97,5.304,5.77,6.157c-0.76,0.71-3.15,2.949-3.908,3.662c-0.803-0.855-4.971-5.307-5.77-6.162
					C251.498,286.878,253.891,284.638,254.648,283.929z"/>
			</g>
			<g>
				
					<rect x="272.855" y="302.496" transform="matrix(0.7298 -0.6837 0.6837 0.7298 -137.9248 272.9073)" fill="#889B9E" enable-background="new    " width="6.843" height="16.876"/>
				<path fill="#FFFFFF" d="M266.959,307.08l12.555,13.404l6.08-5.695l-12.555-13.404L266.959,307.08z M272.973,303.49
					c0.885,0.945,9.629,10.281,10.518,11.229c-0.758,0.711-3.15,2.951-3.908,3.662c-0.887-0.949-9.633-10.283-10.519-11.232
					C269.82,306.439,272.213,304.199,272.973,303.49z"/>
			</g>
			<g>
				
					<rect x="261.318" y="290.179" transform="matrix(0.7299 -0.6835 0.6835 0.7299 -132.6141 261.6174)" fill="#889B9E" enable-background="new    " width="6.846" height="16.876"/>
				<path fill="#FFFFFF" d="M255.424,294.766l12.553,13.402l6.082-5.698l-12.555-13.401L255.424,294.766z M261.436,291.172
					c0.887,0.947,9.631,10.283,10.518,11.229c-0.758,0.71-3.15,2.952-3.908,3.661c-0.887-0.947-9.629-10.281-10.519-11.229
					C258.285,294.124,260.678,291.883,261.436,291.172z"/>
			</g>
			<g>
				
					<rect x="244.015" y="273.196" transform="matrix(0.7298 -0.6837 0.6837 0.7298 -124.6675 244.864)" fill="#889B9E" enable-background="new    " width="6.841" height="13.897"/>
				<path fill="#FFFFFF" d="M239.137,277.377l10.516,11.229l6.082-5.697l-10.518-11.227L239.137,277.377z M245.149,273.786
					c0.858,0.917,7.621,8.138,8.481,9.056c-0.758,0.709-3.15,2.95-3.908,3.66c-0.859-0.92-7.621-8.139-8.482-9.059
					C241.998,276.736,244.391,274.496,245.149,273.786z"/>
			</g>
			<g>
				
					<rect x="234.513" y="263.051" transform="matrix(0.7298 -0.6836 0.6836 0.7298 -120.2964 235.6009)" fill="#889B9E" enable-background="new    " width="6.845" height="13.898"/>
				<path fill="#FFFFFF" d="M229.635,267.234l10.519,11.229l6.081-5.697l-10.518-11.229L229.635,267.234z M235.648,263.643
					c0.859,0.918,7.623,8.139,8.481,9.057c-0.759,0.711-3.149,2.949-3.908,3.659c-0.858-0.919-7.621-8.138-8.482-9.057
					C232.498,266.592,234.891,264.352,235.648,263.643z"/>
			</g>
			<g>
				
					<rect x="224.673" y="252.051" transform="matrix(0.7296 -0.6839 0.6839 0.7296 -115.7867 226.1715)" fill="#889B9E" enable-background="new    " width="6.844" height="14.889"/>
				<path fill="#FFFFFF" d="M219.457,256.367l11.196,11.953l6.08-5.696l-11.197-11.955L219.457,256.367z M225.467,252.773
					c0.873,0.93,8.294,8.854,9.162,9.783c-0.758,0.709-3.148,2.949-3.906,3.659c-0.871-0.93-8.291-8.853-9.162-9.78
					C222.318,255.727,224.71,253.484,225.467,252.773z"/>
			</g>
			<g>
				
					<rect x="195.832" y="223.741" transform="matrix(0.73 -0.6835 0.6835 0.73 -102.5094 197.9376)" fill="#889B9E" enable-background="new    " width="6.844" height="9.927"/>
				<path fill="#FFFFFF" d="M192.311,227.387l7.807,8.33l6.079-5.695l-7.804-8.33L192.311,227.387z M198.324,223.795
					c0.8,0.855,4.969,5.303,5.768,6.158c-0.758,0.709-3.148,2.95-3.906,3.662c-0.802-0.857-4.969-5.307-5.77-6.16
					C195.175,226.746,197.566,224.504,198.324,223.795z"/>
			</g>
			<g>
				
					<rect x="285.409" y="314.411" transform="matrix(0.7298 -0.6836 0.6836 0.7298 -143.6916 285.0672)" fill="#889B9E" enable-background="new    " width="6.843" height="19.852"/>
				<path fill="#FFFFFF" d="M278.496,319.398l14.59,15.574l6.08-5.694l-14.59-15.575L278.496,319.398z M284.508,315.805
					c0.906,0.969,11.648,12.438,12.555,13.405c-0.758,0.71-3.15,2.95-3.907,3.66c-0.907-0.968-11.648-12.437-12.556-13.403
					C281.357,318.758,283.75,316.516,284.508,315.805z"/>
			</g>
			<g>
				
					<rect x="313.307" y="356.054" transform="matrix(-0.6837 -0.7298 0.7298 -0.6837 279.3876 840.046)" fill="#889B9E" enable-background="new    " width="16.875" height="6.844"/>
				<path fill="#FFFFFF" d="M312.426,355.621l12.553,13.404l6.083-5.697l-12.555-13.402L312.426,355.621z M318.439,352.031
					c0.886,0.945,9.629,10.281,10.519,11.229c-0.759,0.709-3.151,2.951-3.909,3.662c-0.887-0.947-9.633-10.285-10.518-11.232
					C315.288,354.98,317.682,352.741,318.439,352.031z"/>
			</g>
			<g>
				
					<rect x="214.156" y="240.324" transform="matrix(0.73 -0.6835 0.6835 0.73 -110.9315 215.7437)" fill="#889B9E" enable-background="new    " width="6.844" height="15.885"/>
				<path fill="#FFFFFF" d="M208.598,244.774l11.875,12.679l6.082-5.697l-11.875-12.678L208.598,244.774z M214.611,241.183
					c0.879,0.938,8.96,9.566,9.839,10.505c-0.757,0.71-3.149,2.951-3.909,3.66c-0.877-0.938-8.961-9.564-9.838-10.504
					C211.461,244.133,213.853,241.893,214.611,241.183z"/>
			</g>
			<g>
				
					<rect x="203.975" y="230.449" transform="matrix(0.7298 -0.6836 0.6836 0.7298 -106.2592 205.9116)" fill="#889B9E" enable-background="new    " width="6.843" height="13.898"/>
				<path fill="#FFFFFF" d="M199.098,234.631l10.518,11.229l6.082-5.696l-10.518-11.229L199.098,234.631z M205.11,231.039
					c0.859,0.918,7.622,8.139,8.482,9.057c-0.757,0.709-3.15,2.951-3.91,3.662c-0.858-0.92-7.62-8.141-8.479-9.059
					C201.959,233.99,204.352,231.75,205.11,231.039z"/>
			</g>
			<g>
				
					<rect x="295.928" y="330.106" transform="matrix(0.73 -0.6835 0.6835 0.73 -148.5186 295.2015)" fill="#889B9E" enable-background="new    " width="6.843" height="10.921"/>
				<path fill="#FFFFFF" d="M292.068,333.889l8.482,9.055l6.081-5.695l-8.483-9.056L292.068,333.889z M298.08,330.296
					c0.819,0.874,5.629,6.009,6.447,6.882c-0.758,0.711-3.15,2.952-3.908,3.66c-0.818-0.875-5.627-6.008-6.448-6.882
					C294.932,333.246,297.322,331.006,298.08,330.296z"/>
			</g>
			<g>
				
					<rect x="306.107" y="337.004" transform="matrix(0.7298 -0.6836 0.6836 0.7298 -153.2068 305.1866)" fill="#889B9E" enable-background="new    " width="6.843" height="18.862"/>
				<path fill="#FFFFFF" d="M299.533,341.856l13.912,14.854l6.08-5.699l-13.912-14.85L299.533,341.856z M305.546,338.266
					c0.898,0.963,10.974,11.717,11.875,12.678c-0.759,0.711-3.151,2.951-3.908,3.662c-0.9-0.961-10.976-11.719-11.877-12.68
					C302.396,341.216,304.787,338.976,305.546,338.266z"/>
			</g>
			<g>
				
					<rect x="323.112" y="345.838" transform="matrix(0.73 -0.6835 0.6835 0.73 -153.7619 319.3713)" fill="#889B9E" enable-background="new    " width="8.364" height="16.876"/>
				<path fill="#FFFFFF" d="M317.421,350.943l12.554,13.404l7.192-6.736l-12.555-13.403L317.421,350.943z M324.544,346.314
					c0.887,0.945,9.63,10.279,10.519,11.229c-0.814,0.762-4.203,3.936-5.019,4.697c-0.888-0.943-9.63-10.28-10.519-11.229
					C320.341,350.25,323.73,347.074,324.544,346.314z"/>
			</g>
			<g>
				
					<rect x="218.944" y="235.126" transform="matrix(0.7297 -0.6837 0.6837 0.7297 -105.8886 218.2512)" fill="#889B9E" enable-background="new    " width="8.364" height="15.88"/>
				<path fill="#FFFFFF" d="M213.594,240.096l11.873,12.678l7.191-6.736l-11.873-12.678L213.594,240.096z M220.717,235.463
					c0.879,0.941,8.958,9.568,9.839,10.508c-0.815,0.762-4.205,3.936-5.02,4.698c-0.878-0.938-8.96-9.565-9.839-10.505
					C216.511,239.404,219.9,236.228,220.717,235.463z"/>
			</g>
			<g>
				
					<rect x="290.198" y="309.213" transform="matrix(0.7298 -0.6836 0.6836 0.7298 -138.6392 287.4608)" fill="#889B9E" enable-background="new    " width="8.365" height="19.853"/>
				<path fill="#FFFFFF" d="M283.49,314.719l14.59,15.577l7.191-6.736l-14.591-15.576L283.49,314.719z M290.612,310.088
					c0.907,0.967,11.648,12.436,12.554,13.403c-0.813,0.762-4.203,3.937-5.018,4.701c-0.906-0.968-11.647-12.437-12.555-13.403
					C286.407,314.026,289.799,310.85,290.612,310.088z"/>
			</g>
			<g>
				
					<rect x="300.717" y="324.909" transform="matrix(0.7299 -0.6836 0.6836 0.7299 -143.4717 297.6471)" fill="#889B9E" enable-background="new    " width="8.365" height="10.92"/>
				<path fill="#FFFFFF" d="M297.063,329.21l8.483,9.056l7.19-6.736l-8.482-9.056L297.063,329.21z M304.186,324.577
					c0.818,0.876,5.627,6.009,6.445,6.884c-0.813,0.763-4.203,3.938-5.018,4.701c-0.818-0.875-5.628-6.01-6.447-6.884
					C299.98,328.517,303.372,325.34,304.186,324.577z"/>
			</g>
			<g>
				
					<rect x="199.841" y="219.325" transform="matrix(0.6836 0.7299 -0.7299 0.6836 227.9242 -78.7604)" fill="#889B9E" enable-background="new    " width="9.926" height="8.363"/>
				<path fill="#FFFFFF" d="M197.307,222.709l7.804,8.33l7.19-6.734l-7.805-8.332L197.307,222.709z M204.428,218.076
					c0.801,0.856,4.969,5.305,5.768,6.158c-0.813,0.762-4.203,3.939-5.016,4.701c-0.803-0.854-4.969-5.305-5.77-6.158
					C200.225,222.015,203.615,218.84,204.428,218.076z"/>
			</g>
			<g>
				
					<rect x="277.644" y="297.298" transform="matrix(0.7299 -0.6836 0.6836 0.7299 -132.866 275.222)" fill="#889B9E" enable-background="new    " width="8.365" height="16.877"/>
				<path fill="#FFFFFF" d="M271.953,302.401l12.555,13.403l7.189-6.736l-12.553-13.402L271.953,302.401z M279.076,297.771
					c0.887,0.947,9.631,10.281,10.519,11.23c-0.815,0.762-4.204,3.936-5.019,4.701c-0.887-0.95-9.633-10.285-10.518-11.233
					C274.871,301.708,278.262,298.533,279.076,297.771z"/>
			</g>
			<g>
				
					<rect x="305.649" y="337.054" transform="matrix(-0.6837 -0.7298 0.7298 -0.6837 281.4521 804.4706)" fill="#889B9E" enable-background="new    " width="18.86" height="8.364"/>
				<path fill="#FFFFFF" d="M304.527,337.178l13.912,14.854l7.19-6.737l-13.913-14.851L304.527,337.178z M311.65,332.548
					c0.9,0.961,10.975,11.716,11.876,12.678c-0.815,0.763-4.204,3.94-5.02,4.7c-0.898-0.961-10.974-11.718-11.875-12.678
					C307.445,336.484,310.835,333.309,311.65,332.548z"/>
			</g>
			<g>
				
					<rect x="208.765" y="225.25" transform="matrix(0.7298 -0.6836 0.6836 0.7298 -101.2063 208.3044)" fill="#889B9E" enable-background="new    " width="8.365" height="13.9"/>
				<path fill="#FFFFFF" d="M204.092,229.953l10.52,11.229l7.189-6.735l-10.518-11.23L204.092,229.953z M211.215,225.32
					c0.86,0.918,7.623,8.139,8.482,9.059c-0.813,0.76-4.205,3.937-5.018,4.699c-0.859-0.918-7.622-8.139-8.483-9.057
					C207.01,229.26,210.4,226.085,211.215,225.32z"/>
			</g>
			<g>
				
					<rect x="239.302" y="257.854" transform="matrix(0.7297 -0.6837 0.6837 0.7297 -115.2485 238.0448)" fill="#889B9E" enable-background="new    " width="8.364" height="13.898"/>
				<path fill="#FFFFFF" d="M234.629,262.557l10.521,11.229l7.19-6.739l-10.518-11.229L234.629,262.557z M241.752,257.924
					c0.861,0.92,7.624,8.139,8.482,9.057c-0.813,0.763-4.203,3.938-5.018,4.701c-0.859-0.92-7.622-8.14-8.483-9.058
					C237.549,261.861,240.938,258.688,241.752,257.924z"/>
			</g>
			<g>
				
					<rect x="229.463" y="246.851" transform="matrix(0.7299 -0.6835 0.6835 0.7299 -110.7179 228.3921)" fill="#889B9E" enable-background="new    " width="8.363" height="14.892"/>
				<path fill="#FFFFFF" d="M224.45,251.688l11.198,11.955l7.189-6.737l-11.195-11.953L224.45,251.688z M231.572,247.057
					c0.871,0.93,8.291,8.851,9.162,9.78c-0.814,0.763-4.204,3.938-5.018,4.7c-0.87-0.93-8.293-8.853-9.162-9.781
					C227.369,250.994,230.758,247.818,231.572,247.057z"/>
			</g>
			<g>
				
					<rect x="266.109" y="284.983" transform="matrix(0.7299 -0.6835 0.6835 0.7299 -127.5628 264.0052)" fill="#889B9E" enable-background="new    " width="8.362" height="16.875"/>
				<path fill="#FFFFFF" d="M260.418,290.086l12.555,13.404l7.189-6.738l-12.555-13.4L260.418,290.086z M267.539,285.455
					c0.887,0.947,9.633,10.281,10.519,11.229c-0.813,0.764-4.203,3.938-5.019,4.701c-0.887-0.947-9.629-10.283-10.518-11.23
					C263.336,289.393,266.726,286.217,267.539,285.455z"/>
			</g>
			<g>
				
					<rect x="248.802" y="267.997" transform="matrix(0.7298 -0.6837 0.6837 0.7298 -119.6131 247.2543)" fill="#889B9E" enable-background="new    " width="8.366" height="13.896"/>
				<path fill="#FFFFFF" d="M244.13,272.699l10.519,11.229l7.191-6.737l-10.519-11.229L244.13,272.699z M251.253,268.066
					c0.86,0.919,7.622,8.139,8.482,9.057c-0.815,0.763-4.203,3.938-5.019,4.699c-0.857-0.918-7.621-8.137-8.482-9.057
					C247.049,272.005,250.438,268.829,251.253,268.066z"/>
			</g>
			<g>
				
					<rect x="256.947" y="278.675" transform="matrix(0.73 -0.6835 0.6835 0.73 -123.3488 255.0734)" fill="#889B9E" enable-background="new    " width="8.364" height="9.928"/>
				<path fill="#FFFFFF" d="M253.631,282.842l7.805,8.33l7.189-6.734l-7.803-8.332L253.631,282.842z M260.754,278.211
					c0.799,0.855,4.968,5.305,5.768,6.158c-0.814,0.762-4.204,3.937-5.018,4.699c-0.801-0.854-4.97-5.304-5.77-6.16
					C256.549,282.148,259.939,278.973,260.754,278.211z"/>
			</g>
		</g>
		<g>
			<path fill="#889B9E" enable-background="new    " d="M182.905,188.451c-1.121-1.201-1.059-3.088,0.143-4.208l0,0
				c1.202-1.125,3.087-1.06,4.208,0.14l155.893,166.814c1.121,1.201,1.06,3.084-0.143,4.207l0,0
				c-1.201,1.123-3.088,1.059-4.209-0.143L182.905,188.451z"/>
			<path fill="#FFFFFF" d="M182.54,183.697c-0.727,0.678-1.145,1.599-1.179,2.595c-0.034,0.993,0.322,1.939,1.001,2.667l0,0
				l155.89,166.811c0.68,0.727,1.6,1.148,2.594,1.18c0.996,0.035,1.941-0.322,2.668-1.002c0.729-0.676,1.145-1.598,1.179-2.592
				s-0.321-1.941-1.001-2.668L187.801,183.875c-0.678-0.726-1.6-1.145-2.593-1.18C184.214,182.664,183.266,183.019,182.54,183.697z
				 M182.849,186.34c0.021-0.595,0.272-1.146,0.707-1.554c0.437-0.408,1.005-0.621,1.602-0.601c0.597,0.021,1.149,0.271,1.557,0.709
				l155.891,166.812c0.406,0.436,0.621,1.002,0.6,1.6c-0.02,0.596-0.271,1.148-0.707,1.555c-0.438,0.406-1.005,0.623-1.603,0.604
				c-0.594-0.021-1.147-0.271-1.555-0.709L183.45,187.942C183.042,187.506,182.831,186.938,182.849,186.34z"/>
		</g>
	</g>
	<g>
		<g>
			
				<rect x="129.83" y="227.96" transform="matrix(-0.7299 0.6836 -0.6836 -0.7299 396.7574 306.7377)" fill="none" width="15.883" height="7.606"/>
			
				<rect x="108.567" y="248.523" transform="matrix(-0.7299 0.6836 -0.6836 -0.7299 371.7899 356.2198)" fill="none" width="13.898" height="6.083"/>
			
				<rect x="122.977" y="199.324" transform="matrix(0.7298 -0.6836 0.6836 0.7298 -102.7206 143.2898)" fill="none" width="13.899" height="4.561"/>
			
				<rect x="99.603" y="218.048" transform="matrix(0.7298 -0.6836 0.6836 0.7298 -122.4796 133.0108)" fill="none" width="14.891" height="6.843"/>
			
				<rect x="43.972" y="310.145" transform="matrix(-0.7297 0.6838 -0.6838 -0.7297 299.1263 506.6041)" fill="none" width="10.917" height="4.561"/>
			
				<rect x="65.885" y="286.969" transform="matrix(-0.7298 0.6837 -0.6837 -0.7298 326.5736 450.1873)" fill="none" width="16.875" height="5.322"/>
			
				<rect x="91.197" y="266.373" transform="matrix(-0.7298 0.6836 -0.6836 -0.7298 350.0009 398.9855)" fill="none" width="9.927" height="4.562"/>
			
				<rect x="11.459" y="301.455" transform="matrix(0.7298 -0.6836 0.6836 0.7298 -202.0015 96.3428)" fill="none" width="18.86" height="4.562"/>
			
				<rect x="79.712" y="238.047" transform="matrix(0.7298 -0.6837 0.6837 0.7298 -141.4074 124.3898)" fill="none" width="13.897" height="6.083"/>
			
				<rect x="59.489" y="254.695" transform="matrix(0.7298 -0.6836 0.6836 0.7298 -158.1028 116.1697)" fill="none" width="16.874" height="6.842"/>
			
				<rect x="33.059" y="280.757" transform="matrix(0.7298 -0.6836 0.6836 0.7298 -181.8846 105.8615)" fill="none" width="19.854" height="4.562"/>
			
				<rect x="2.62" y="329.704" transform="matrix(0.6835 0.73 -0.73 0.6835 246.809 101.1176)" fill="none" width="8.364" height="10.92"/>
			<g>
				
					<rect x="67.383" y="277.03" transform="matrix(-0.6835 -0.73 0.73 -0.6835 -89.8216 531.9878)" fill="#889B9E" enable-background="new    " width="6.083" height="16.875"/>
				<path fill="#FFFFFF" d="M61.136,288.982l5.175,5.525l13.402-12.555l-5.175-5.525L61.136,288.982z M74.469,278.532
					c0.675,0.72,2.465,2.632,3.141,3.354c-0.948,0.885-10.282,9.629-11.23,10.518c-0.673-0.723-2.465-2.634-3.14-3.354
					C64.187,288.162,73.521,279.42,74.469,278.532z"/>
			</g>
			<g>
				
					<rect x="79.7" y="265.495" transform="matrix(-0.6836 -0.7298 0.7298 -0.6836 -60.6133 521.5901)" fill="#889B9E" enable-background="new    " width="6.082" height="16.875"/>
				<path fill="#FFFFFF" d="M73.453,277.445l5.175,5.527l13.401-12.555l-5.177-5.525L73.453,277.445z M86.786,266.996
					c0.674,0.721,2.464,2.633,3.14,3.354c-0.948,0.887-10.283,9.63-11.23,10.518c-0.675-0.72-2.465-2.633-3.14-3.354
					C76.503,276.627,85.837,267.885,86.786,266.996z"/>
			</g>
			<g>
				
					<rect x="89.48" y="259.805" transform="matrix(-0.6835 -0.7299 0.7299 -0.6835 -37.499 513.2808)" fill="#889B9E" enable-background="new    " width="6.083" height="9.929"/>
				<path fill="#FFFFFF" d="M85.766,265.908l5.177,5.527l8.333-7.805l-5.177-5.525L85.766,265.908z M94.03,260.21
					c0.676,0.72,2.466,2.632,3.142,3.353c-0.855,0.801-5.307,4.969-6.161,5.77c-0.674-0.723-2.465-2.634-3.138-3.354
					C88.727,265.178,93.175,261.009,94.03,260.21z"/>
			</g>
			<g>
				
					<rect x="98.174" y="249.679" transform="matrix(-0.6838 -0.7297 0.7297 -0.6838 -16.8229 505.9639)" fill="#889B9E" enable-background="new    " width="6.082" height="13.896"/>
				<path fill="#FFFFFF" d="M93.013,259.121l5.175,5.527l11.229-10.519l-5.176-5.526L93.013,259.121z M104.173,250.709
					c0.675,0.721,2.467,2.631,3.141,3.353c-0.918,0.86-8.138,7.622-9.056,8.483c-0.676-0.723-2.466-2.634-3.141-3.354
					C96.035,258.332,103.254,251.568,104.173,250.709z"/>
			</g>
			<g>
				
					<rect x="108.317" y="240.176" transform="matrix(-0.6836 -0.7298 0.7298 -0.6836 7.1198 497.3374)" fill="#889B9E" enable-background="new    " width="6.083" height="13.899"/>
				<path fill="#FFFFFF" d="M103.156,249.623l5.176,5.525l11.229-10.52l-5.175-5.525L103.156,249.623z M114.317,241.208
					c0.673,0.72,2.466,2.634,3.14,3.353c-0.918,0.859-8.139,7.623-9.056,8.483c-0.676-0.72-2.466-2.632-3.142-3.354
					C106.178,248.831,113.398,242.068,114.317,241.208z"/>
			</g>
			<g>
				
					<rect x="31.883" y="309.289" transform="matrix(-0.6835 -0.7299 0.7299 -0.6835 -173.8472 562.0643)" fill="#889B9E" enable-background="new    " width="6.082" height="18.862"/>
				<path fill="#FFFFFF" d="M24.909,322.914l5.177,5.525l14.851-13.912l-5.175-5.525L24.909,322.914z M39.693,311.106
					c0.676,0.72,2.465,2.632,3.14,3.354c-0.961,0.898-11.717,10.974-12.679,11.874c-0.675-0.721-2.465-2.632-3.14-3.352
					C27.975,322.082,38.731,312.006,39.693,311.106z"/>
			</g>
			<g>
				
					<rect x="53.981" y="288.096" transform="matrix(-0.6836 -0.7298 0.7298 -0.6836 -121.4968 543.3806)" fill="#889B9E" enable-background="new    " width="6.082" height="19.854"/>
				<path fill="#FFFFFF" d="M46.645,302.555l5.176,5.526l15.578-14.591l-5.178-5.525L46.645,302.555z M62.152,290.068
					c0.676,0.721,2.466,2.634,3.14,3.354c-0.965,0.906-12.436,11.648-13.403,12.555c-0.674-0.721-2.465-2.633-3.139-3.354
					C49.716,301.717,61.185,290.975,62.152,290.068z"/>
			</g>
			<g>
				
					<rect x="42.75" y="303.081" transform="matrix(-0.6836 -0.7298 0.7298 -0.6836 -148.0808 552.8933)" fill="#889B9E" enable-background="new    " width="6.082" height="10.919"/>
				<path fill="#FFFFFF" d="M38.675,310.02l5.177,5.525l9.055-8.481l-5.176-5.526L38.675,310.02z M47.661,303.641
					c0.675,0.721,2.467,2.635,3.141,3.354c-0.874,0.819-6.006,5.628-6.882,6.447c-0.676-0.721-2.466-2.633-3.141-3.354
					C41.654,309.268,46.787,304.461,47.661,303.641z"/>
			</g>
			<g>
				
					<rect x="18.842" y="322.499" transform="matrix(-0.6838 -0.7297 0.7297 -0.6838 -204.6234 573.2003)" fill="#889B9E" enable-background="new    " width="6.082" height="16.874"/>
				<path fill="#FFFFFF" d="M12.593,334.45l5.177,5.524l13.402-12.555l-5.176-5.524L12.593,334.45z M25.928,324
					c0.673,0.72,2.465,2.633,3.141,3.354c-0.949,0.886-10.283,9.629-11.23,10.518c-0.674-0.722-2.466-2.633-3.139-3.354
					C15.645,333.632,24.98,324.887,25.928,324z"/>
			</g>
			<g>
				
					<rect x="147.691" y="205.404" transform="matrix(-0.7298 0.6837 -0.6837 -0.7298 406.5695 256.1955)" fill="#889B9E" enable-background="new    " width="9.927" height="6.083"/>
				<path fill="#FFFFFF" d="M145.901,209.585l5.176,5.525l8.332-7.804l-5.177-5.525L145.901,209.585z M154.164,203.884
					c0.674,0.722,2.466,2.634,3.14,3.354c-0.855,0.8-5.303,4.967-6.158,5.768c-0.674-0.721-2.466-2.635-3.142-3.353
					C148.861,208.854,153.31,204.686,154.164,203.884z"/>
			</g>
			<g>
				
					<rect x="140.921" y="209.64" transform="matrix(-0.6836 -0.7299 0.7299 -0.6836 84.2954 469.7213)" fill="#889B9E" enable-background="new    " width="6.081" height="13.898"/>
				<path fill="#FFFFFF" d="M135.758,219.086l5.175,5.523l11.23-10.518l-5.176-5.525L135.758,219.086z M146.918,210.67
					c0.676,0.721,2.467,2.633,3.141,3.354c-0.918,0.859-8.138,7.623-9.057,8.483c-0.673-0.72-2.465-2.633-3.14-3.353
					C138.78,218.295,146,211.531,146.918,210.67z"/>
			</g>
			<g>
				
					<rect x="118.822" y="229.841" transform="matrix(-0.6838 -0.7297 0.7297 -0.6838 32.0441 488.4591)" fill="#889B9E" enable-background="new    " width="6.083" height="14.889"/>
				<path fill="#FFFFFF" d="M113.298,240.122l5.177,5.525l11.954-11.197l-5.176-5.526L113.298,240.122z M125.185,231.029
					c0.674,0.72,2.465,2.631,3.139,3.352c-0.927,0.873-8.851,8.293-9.78,9.162c-0.675-0.721-2.465-2.633-3.14-3.352
					C116.333,239.32,124.256,231.9,125.185,231.029z"/>
			</g>
			<g>
				
					<rect x="130.053" y="218.826" transform="matrix(-0.6835 -0.73 0.73 -0.6835 58.5275 478.913)" fill="#889B9E" enable-background="new    " width="6.082" height="15.882"/>
				<path fill="#FFFFFF" d="M124.167,229.943l5.176,5.525l12.678-11.878l-5.176-5.522L124.167,229.943z M136.776,220.172
					c0.674,0.721,2.465,2.631,3.14,3.352c-0.94,0.88-9.567,8.961-10.504,9.841c-0.676-0.72-2.466-2.633-3.141-3.354
					C127.208,229.133,135.838,221.051,136.776,220.172z"/>
			</g>
			<g>
				
					<rect x="78.963" y="248.986" transform="matrix(0.6834 0.7301 -0.7301 0.6834 211.4803 20.2575)" fill="#889B9E" enable-background="new    " width="6.843" height="9.926"/>
				<path fill="#FFFFFF" d="M75.372,254.811l5.696,6.082l8.332-7.807l-5.696-6.08L75.372,254.811z M83.634,249.109
					c0.71,0.76,2.95,3.151,3.662,3.908c-0.855,0.802-5.306,4.969-6.16,5.771c-0.709-0.76-2.95-3.151-3.662-3.909
					C78.331,254.078,82.78,249.91,83.634,249.109z"/>
			</g>
			<g>
				
					<rect x="56.866" y="266.208" transform="matrix(0.6836 0.7299 -0.7299 0.6836 219.5369 42.9032)" fill="#889B9E" enable-background="new    " width="6.842" height="16.876"/>
				<path fill="#FFFFFF" d="M50.738,277.885l5.696,6.078l13.404-12.555l-5.696-6.08L50.738,277.885z M64.073,267.434
					c0.709,0.758,2.95,3.148,3.661,3.906c-0.947,0.888-10.283,9.633-11.232,10.52c-0.709-0.757-2.949-3.148-3.659-3.907
					C53.79,277.064,63.125,268.32,64.073,267.434z"/>
			</g>
			<g>
				
					<rect x="69.183" y="254.672" transform="matrix(0.6836 0.7299 -0.7299 0.6836 215.0115 30.2605)" fill="#889B9E" enable-background="new    " width="6.845" height="16.876"/>
				<path fill="#FFFFFF" d="M63.056,266.346l5.696,6.082l13.404-12.555l-5.698-6.082L63.056,266.346z M76.387,255.896
					c0.711,0.758,2.953,3.15,3.664,3.909c-0.947,0.887-10.284,9.63-11.23,10.517c-0.709-0.757-2.951-3.148-3.661-3.907
					C66.107,265.527,75.442,256.783,76.387,255.896z"/>
			</g>
			<g>
				
					<rect x="87.658" y="238.857" transform="matrix(0.6837 0.7298 -0.7298 0.6837 208.1932 11.2844)" fill="#889B9E" enable-background="new    " width="6.843" height="13.896"/>
				<path fill="#FFFFFF" d="M82.618,248.023l5.695,6.083l11.228-10.521l-5.696-6.08L82.618,248.023z M93.778,239.611
					c0.708,0.758,2.948,3.148,3.66,3.906c-0.919,0.86-8.138,7.623-9.058,8.484c-0.708-0.759-2.95-3.152-3.659-3.912
					C85.639,247.231,92.86,240.469,93.778,239.611z"/>
			</g>
			<g>
				
					<rect x="97.799" y="229.357" transform="matrix(0.6835 0.7299 -0.7299 0.6835 204.5266 0.9035)" fill="#889B9E" enable-background="new    " width="6.844" height="13.898"/>
				<path fill="#FFFFFF" d="M92.76,238.525l5.695,6.08l11.229-10.519l-5.696-6.083L92.76,238.525z M103.92,230.109
					c0.709,0.758,2.949,3.149,3.661,3.909c-0.919,0.859-8.138,7.621-9.057,8.481c-0.71-0.758-2.952-3.148-3.66-3.908
					C95.781,237.732,103.002,230.971,103.92,230.109z"/>
			</g>
			<g>
				
					<rect x="108.305" y="219.02" transform="matrix(0.6837 0.7297 -0.7297 0.6837 200.5976 -9.9062)" fill="#889B9E" enable-background="new    " width="6.844" height="14.889"/>
				<path fill="#FFFFFF" d="M102.901,229.023l5.697,6.081l11.955-11.196l-5.698-6.082L102.901,229.023z M114.788,219.93
					c0.71,0.758,2.95,3.151,3.66,3.908c-0.93,0.87-8.853,8.292-9.782,9.162c-0.709-0.759-2.951-3.15-3.66-3.91
					C105.935,228.221,113.858,220.801,114.788,219.93z"/>
			</g>
			<g>
				
					<rect x="139.097" y="192.661" transform="matrix(0.6835 0.7299 -0.7299 0.6835 189.3616 -41.4841)" fill="#889B9E" enable-background="new    " width="6.844" height="9.926"/>
				<path fill="#FFFFFF" d="M135.505,198.484l5.695,6.082l8.333-7.804l-5.696-6.082L135.505,198.484z M143.769,192.785
					c0.71,0.758,2.949,3.15,3.66,3.909c-0.855,0.8-5.304,4.966-6.159,5.767c-0.71-0.758-2.952-3.148-3.66-3.908
					C138.463,197.755,142.914,193.586,143.769,192.785z"/>
			</g>
			<g>
				
					<rect x="43.463" y="277.274" transform="matrix(0.6836 0.7298 -0.7298 0.6836 224.4473 56.6493)" fill="#889B9E" enable-background="new    " width="6.843" height="19.853"/>
				<path fill="#FFFFFF" d="M36.248,291.455l5.696,6.081l15.578-14.591l-5.698-6.08L36.248,291.455z M51.755,278.969
					c0.711,0.758,2.952,3.151,3.661,3.908c-0.967,0.906-12.436,11.648-13.404,12.555c-0.709-0.758-2.949-3.148-3.659-3.908
					C39.321,290.618,50.788,279.877,51.755,278.969z"/>
			</g>
			<g>
				
					<rect x="3.309" y="316.691" transform="matrix(0.7298 -0.6836 0.6836 0.7298 -215.6686 94.5196)" fill="#889B9E" enable-background="new    " width="16.876" height="6.844"/>
				<path fill="#FFFFFF" d="M2.196,323.35l5.698,6.084l13.402-12.555l-5.698-6.083L2.196,323.35z M15.531,312.9
					c0.71,0.758,2.951,3.15,3.66,3.908c-0.946,0.889-10.282,9.632-11.23,10.519c-0.708-0.757-2.95-3.151-3.66-3.91
					C5.249,322.531,14.583,313.787,15.531,312.9z"/>
			</g>
			<g>
				
					<rect x="119.535" y="208.005" transform="matrix(0.6835 0.7299 -0.7299 0.6835 196.5452 -21.4055)" fill="#889B9E" enable-background="new    " width="6.844" height="15.885"/>
				<path fill="#FFFFFF" d="M113.769,218.845l5.697,6.08l12.678-11.876l-5.696-6.082L113.769,218.845z M126.379,209.07
					c0.709,0.76,2.952,3.152,3.662,3.911c-0.94,0.88-9.567,8.96-10.505,9.839c-0.712-0.758-2.952-3.151-3.662-3.908
					C116.812,218.034,125.441,209.951,126.379,209.07z"/>
			</g>
			<g>
				
					<rect x="130.404" y="198.818" transform="matrix(0.6836 0.7298 -0.7298 0.6836 192.5195 -32.5692)" fill="#889B9E" enable-background="new    " width="6.843" height="13.898"/>
				<path fill="#FFFFFF" d="M125.362,207.986l5.696,6.082l11.228-10.521l-5.695-6.079L125.362,207.986z M136.523,199.572
					c0.708,0.758,2.948,3.148,3.66,3.908c-0.919,0.86-8.138,7.621-9.057,8.482c-0.71-0.758-2.95-3.15-3.662-3.91
					C128.384,207.193,135.604,200.431,136.523,199.572z"/>
			</g>
			<g>
				
					<rect x="32.233" y="292.259" transform="matrix(0.6836 0.7298 -0.7298 0.6836 228.5703 68.1734)" fill="#889B9E" enable-background="new    " width="6.843" height="10.919"/>
				<path fill="#FFFFFF" d="M28.279,298.92l5.696,6.081l9.056-8.483l-5.697-6.08L28.279,298.92z M37.266,292.543
					c0.708,0.757,2.95,3.148,3.661,3.907c-0.874,0.817-6.009,5.628-6.883,6.448c-0.709-0.76-2.951-3.15-3.661-3.91
					C31.258,298.17,36.393,293.361,37.266,292.543z"/>
			</g>
			<g>
				
					<rect x="21.365" y="298.468" transform="matrix(0.6835 0.73 -0.73 0.6835 232.6062 79.3663)" fill="#889B9E" enable-background="new    " width="6.844" height="18.861"/>
				<path fill="#FFFFFF" d="M14.513,311.814l5.699,6.08l14.85-13.91l-5.695-6.082L14.513,311.814z M29.296,300.007
					c0.71,0.758,2.952,3.151,3.66,3.907c-0.961,0.9-11.716,10.977-12.678,11.877c-0.709-0.757-2.952-3.15-3.662-3.908
					C17.579,310.981,28.335,300.908,29.296,300.007z"/>
			</g>
			<g>
				
					<rect x="12.763" y="317.226" transform="matrix(0.6837 0.7298 -0.7298 0.6837 243.0255 90.6493)" fill="#889B9E" enable-background="new    " width="8.365" height="16.874"/>
				<path fill="#FFFFFF" d="M6.876,328.345l6.735,7.19l13.403-12.553l-6.735-7.191L6.876,328.345z M20.211,317.895
					c0.76,0.813,3.936,4.203,4.698,5.02c-0.946,0.887-10.281,9.631-11.23,10.518c-0.761-0.813-3.937-4.203-4.698-5.019
					C9.926,327.526,19.262,318.782,20.211,317.895z"/>
			</g>
			<g>
				
					<rect x="123.973" y="213.555" transform="matrix(0.6836 0.7298 -0.7298 0.6836 202.1951 -23.4579)" fill="#889B9E" enable-background="new    " width="8.364" height="15.882"/>
				<path fill="#FFFFFF" d="M118.448,223.838l6.736,7.191l12.677-11.875l-6.735-7.191L118.448,223.838z M131.058,214.067
					c0.762,0.813,3.938,4.203,4.7,5.019c-0.94,0.879-9.567,8.961-10.505,9.838c-0.762-0.813-3.937-4.203-4.7-5.016
					C121.491,223.027,130.119,214.946,131.058,214.067z"/>
			</g>
			<g>
				
					<rect x="47.901" y="282.823" transform="matrix(0.6838 0.7297 -0.7297 0.6838 230.0816 54.5656)" fill="#889B9E" enable-background="new    " width="8.365" height="19.853"/>
				<path fill="#FFFFFF" d="M40.927,296.45l6.734,7.19l15.578-14.59l-6.737-7.191L40.927,296.45z M56.434,283.963
					c0.763,0.814,3.938,4.205,4.702,5.02c-0.968,0.904-12.437,11.648-13.405,12.555c-0.762-0.814-3.938-4.206-4.699-5.02
					C43.998,295.611,55.467,284.871,56.434,283.963z"/>
			</g>
			<g>
				
					<rect x="36.67" y="297.809" transform="matrix(0.6836 0.7298 -0.7298 0.6836 234.2643 66.134)" fill="#889B9E" enable-background="new    " width="8.365" height="10.92"/>
				<path fill="#FFFFFF" d="M32.957,303.914l6.736,7.191l9.057-8.482l-6.737-7.191L32.957,303.914z M41.944,297.536
					c0.763,0.815,3.939,4.204,4.701,5.019c-0.874,0.818-6.008,5.627-6.883,6.447c-0.761-0.815-3.937-4.205-4.7-5.018
					C35.936,303.164,41.07,298.355,41.944,297.536z"/>
			</g>
			<g>
				
					<rect x="142.753" y="198.992" transform="matrix(-0.7298 0.6837 -0.6837 -0.7298 394.4234 250.4532)" fill="#889B9E" enable-background="new    " width="9.927" height="8.363"/>
				<path fill="#FFFFFF" d="M140.184,203.48l6.734,7.189l8.332-7.802l-6.735-7.191L140.184,203.48z M148.446,197.779
					c0.762,0.815,3.937,4.205,4.699,5.019c-0.854,0.802-5.303,4.97-6.158,5.769c-0.762-0.814-3.938-4.203-4.701-5.02
					C143.141,202.749,147.59,198.582,148.446,197.779z"/>
			</g>
			<g>
				
					<rect x="61.303" y="271.758" transform="matrix(0.6836 0.7298 -0.7298 0.6836 225.218 40.8556)" fill="#889B9E" enable-background="new    " width="8.365" height="16.876"/>
				<path fill="#FFFFFF" d="M55.417,282.877l6.736,7.191l13.403-12.555l-6.735-7.191L55.417,282.877z M68.752,272.428
					c0.761,0.813,3.936,4.205,4.701,5.018c-0.948,0.888-10.284,9.632-11.232,10.52c-0.761-0.814-3.937-4.205-4.699-5.02
					C58.468,282.059,67.804,273.314,68.752,272.428z"/>
			</g>
			<g>
				
					<rect x="20.555" y="309.266" transform="matrix(0.7298 -0.6836 0.6836 0.7298 -206.187 105.1896)" fill="#889B9E" enable-background="new    " width="18.86" height="8.365"/>
				<path fill="#FFFFFF" d="M19.191,316.809L25.928,324l14.851-13.912l-6.735-7.189L19.191,316.809z M33.975,305.001
					c0.761,0.813,3.937,4.206,4.7,5.019c-0.961,0.9-11.717,10.977-12.679,11.876c-0.762-0.815-3.938-4.204-4.7-5.017
					C22.258,315.978,33.014,305.902,33.975,305.001z"/>
			</g>
			<g>
				
					<rect x="134.84" y="204.368" transform="matrix(0.6835 0.73 -0.73 0.6835 198.255 -34.5968)" fill="#889B9E" enable-background="new    " width="8.364" height="13.899"/>
				<path fill="#FFFFFF" d="M130.042,212.981l6.734,7.19l11.228-10.519l-6.734-7.192L130.042,212.981z M141.2,204.566
					c0.762,0.813,3.939,4.205,4.701,5.019c-0.917,0.859-8.139,7.621-9.056,8.483c-0.762-0.814-3.938-4.205-4.702-5.02
					C133.063,212.189,140.282,205.428,141.2,204.566z"/>
			</g>
			<g>
				
					<rect x="102.238" y="234.906" transform="matrix(0.6837 0.7298 -0.7298 0.6837 210.157 -1.1628)" fill="#889B9E" enable-background="new    " width="8.364" height="13.896"/>
				<path fill="#FFFFFF" d="M97.438,243.518l6.734,7.191l11.23-10.518L108.667,233L97.438,243.518z M108.598,235.104
					c0.763,0.812,3.938,4.202,4.7,5.018c-0.917,0.86-8.138,7.621-9.056,8.481c-0.762-0.811-3.939-4.202-4.701-5.018
					C100.46,242.727,107.681,235.965,108.598,235.104z"/>
			</g>
			<g>
				
					<rect x="112.744" y="224.569" transform="matrix(0.6837 0.7297 -0.7297 0.6837 206.2888 -11.9456)" fill="#889B9E" enable-background="new    " width="8.364" height="14.891"/>
				<path fill="#FFFFFF" d="M107.581,234.019l6.736,7.189l11.954-11.198l-6.734-7.189L107.581,234.019z M119.466,224.925
					c0.763,0.813,3.937,4.204,4.701,5.019c-0.93,0.87-8.853,8.291-9.78,9.16c-0.763-0.813-3.939-4.203-4.702-5.017
					C110.615,233.215,118.538,225.794,119.466,224.925z"/>
			</g>
			<g>
				
					<rect x="73.621" y="260.221" transform="matrix(0.6836 0.7299 -0.7299 0.6836 220.7072 28.2242)" fill="#889B9E" enable-background="new    " width="8.362" height="16.876"/>
				<path fill="#FFFFFF" d="M67.734,271.34l6.735,7.192l13.404-12.554l-6.736-7.19L67.734,271.34z M81.067,260.893
					c0.764,0.814,3.938,4.202,4.699,5.016c-0.945,0.888-10.281,9.632-11.228,10.52c-0.762-0.814-3.938-4.204-4.7-5.02
					C70.786,270.521,80.121,261.777,81.067,260.893z"/>
			</g>
			<g>
				
					<rect x="92.095" y="244.406" transform="matrix(0.6836 0.7298 -0.7298 0.6836 213.9027 9.2548)" fill="#889B9E" enable-background="new    " width="8.363" height="13.899"/>
				<path fill="#FFFFFF" d="M87.296,253.018l6.733,7.192l11.229-10.521l-6.734-7.189L87.296,253.018z M98.455,244.605
					c0.763,0.813,3.938,4.203,4.701,5.018c-0.919,0.86-8.138,7.621-9.057,8.482c-0.762-0.814-3.938-4.203-4.7-5.02
					C90.317,252.227,97.538,245.465,98.455,244.605z"/>
			</g>
			<g>
				
					<rect x="83.402" y="254.537" transform="matrix(0.6837 0.7297 -0.7297 0.6837 217.0652 18.1586)" fill="#889B9E" enable-background="new    " width="8.364" height="9.924"/>
				<path fill="#FFFFFF" d="M80.051,259.806l6.735,7.19l8.33-7.805l-6.735-7.189L80.051,259.806z M88.313,254.106
					c0.762,0.813,3.936,4.202,4.7,5.015c-0.855,0.801-5.304,4.971-6.161,5.771c-0.761-0.814-3.936-4.205-4.696-5.02
					C83.009,259.074,87.458,254.906,88.313,254.106z"/>
			</g>
		</g>
		<g>
			<path fill="#889B9E" enable-background="new    " d="M182.771,181.275c1.202-1.122,3.086-1.06,4.209,0.143l0,0
				c1.123,1.202,1.059,3.087-0.142,4.208L20.027,341.52c-1.202,1.119-3.087,1.057-4.21-0.144l0,0
				c-1.123-1.203-1.059-3.087,0.143-4.21L182.771,181.275z"/>
			<path fill="#FFFFFF" d="M182.263,180.732L182.263,180.732L15.453,336.623c-0.728,0.677-1.146,1.598-1.179,2.592
				c-0.035,0.994,0.32,1.943,1,2.669c0.678,0.726,1.599,1.146,2.593,1.179c0.995,0.033,1.94-0.32,2.667-1l166.811-155.891
				c0.728-0.681,1.146-1.601,1.181-2.595c0.032-0.995-0.322-1.941-1.003-2.668c-0.676-0.726-1.598-1.145-2.593-1.177
				C183.938,179.697,182.989,180.053,182.263,180.732z M17.917,341.574c-0.596-0.021-1.148-0.272-1.555-0.707
				c-0.41-0.437-0.622-1.006-0.603-1.602c0.021-0.596,0.273-1.149,0.708-1.556L183.28,181.819c0.436-0.407,1.005-0.622,1.601-0.6
				c0.597,0.02,1.148,0.271,1.557,0.707c0.407,0.437,0.62,1.005,0.601,1.602c-0.021,0.595-0.272,1.147-0.708,1.556L19.517,340.974
				C19.083,341.381,18.514,341.594,17.917,341.574z"/>
		</g>
	</g>
	<g>
		<g>
			
				<rect x="127.476" y="133.731" transform="matrix(-0.6836 -0.7298 0.7298 -0.6836 127.6109 330.3864)" fill="none" width="15.882" height="7.605"/>
			
				<rect x="108.665" y="112.238" transform="matrix(-0.6837 -0.7298 0.7298 -0.6837 110.5248 278.4668)" fill="none" width="13.898" height="6.082"/>
			
				<rect x="158.625" y="127.408" transform="matrix(0.6836 0.7299 -0.7299 0.6836 147.049 -79.8126)" fill="none" width="13.898" height="4.562"/>
			
				<rect x="138.264" y="103.389" transform="matrix(0.6836 0.7299 -0.7299 0.6836 124.065 -72.5527)" fill="none" width="14.89" height="6.843"/>
			
				<rect x="49.295" y="46.911" transform="matrix(-0.6836 -0.7299 0.7299 -0.6836 56.279 122.7816)" fill="none" width="10.917" height="4.561"/>
			
				<rect x="69.11" y="71.425" transform="matrix(-0.6837 -0.7297 0.7297 -0.6837 76.5069 181.3296)" fill="none" width="16.878" height="5.321"/>
			
				<rect x="93.561" y="93.641" transform="matrix(-0.6836 -0.7298 0.7298 -0.6836 95.8688 233.4044)" fill="none" width="9.927" height="4.563"/>
			
				<rect x="54.012" y="18.369" transform="matrix(0.6837 0.7298 -0.7298 0.6837 35.1392 -39.7674)" fill="none" width="18.861" height="4.563"/>
			
				<rect x="119.144" y="83.383" transform="matrix(0.6836 0.7299 -0.7299 0.6836 102.982 -64.686)" fill="none" width="13.896" height="6.082"/>
			
				<rect x="100.627" y="64.267" transform="matrix(0.6836 0.7298 -0.7298 0.6836 83.9045 -58.1826)" fill="none" width="16.873" height="6.843"/>
			
				<rect x="74.213" y="40.468" transform="matrix(0.6836 0.7298 -0.7298 0.6836 57.8196 -47.8842)" fill="none" width="19.855" height="4.562"/>
			
				<rect x="27.833" y="1.104" transform="matrix(-0.7298 0.6837 -0.6837 -0.7298 59.8679 -10.534)" fill="none" width="8.365" height="10.919"/>
			<g>
				
					<rect x="78.67" y="61.749" transform="matrix(0.7299 -0.6836 0.6836 0.7299 -25.9061 74.8144)" fill="#889B9E" enable-background="new    " width="6.084" height="16.876"/>
				<path fill="#FFFFFF" d="M72.671,66.074l12.554,13.403l5.525-5.178L78.198,60.896L72.671,66.074z M78.129,63.001
					c0.886,0.947,9.63,10.282,10.518,11.229c-0.72,0.676-2.635,2.467-3.353,3.141c-0.888-0.946-9.631-10.282-10.52-11.229
					C75.495,65.467,77.408,63.677,78.129,63.001z"/>
			</g>
			<g>
				
					<rect x="90.206" y="74.066" transform="matrix(0.73 -0.6835 0.6835 0.73 -31.2091 86.0125)" fill="#889B9E" enable-background="new    " width="6.083" height="16.874"/>
				<path fill="#FFFFFF" d="M84.208,78.39l12.553,13.401l5.526-5.174L89.733,73.213L84.208,78.39z M89.665,75.318
					c0.887,0.947,9.631,10.282,10.518,11.23c-0.72,0.673-2.631,2.463-3.353,3.14c-0.886-0.949-9.63-10.282-10.518-11.23
					C87.034,77.785,88.944,75.993,89.665,75.318z"/>
			</g>
			<g>
				
					<rect x="99.368" y="87.319" transform="matrix(0.73 -0.6834 0.6834 0.73 -35.4206 94.8994)" fill="#889B9E" enable-background="new    " width="6.082" height="9.929"/>
				<path fill="#FFFFFF" d="M95.744,90.705l7.804,8.333l5.525-5.177l-7.804-8.332L95.744,90.705z M101.202,87.634
					c0.8,0.854,4.967,5.303,5.768,6.158c-0.72,0.676-2.632,2.466-3.353,3.14c-0.8-0.853-4.967-5.303-5.768-6.157
					C98.567,90.099,100.481,88.309,101.202,87.634z"/>
			</g>
			<g>
				
					<rect x="107.511" y="94.029" transform="matrix(0.7298 -0.6837 0.6837 0.7298 -39.1626 102.8631)" fill="#889B9E" enable-background="new    " width="6.083" height="13.897"/>
				<path fill="#FFFFFF" d="M102.531,97.951l10.518,11.228l5.524-5.174l-10.518-11.23L102.531,97.951z M107.988,94.88
					c0.86,0.918,7.624,8.136,8.483,9.057c-0.721,0.674-2.634,2.464-3.354,3.138c-0.859-0.917-7.621-8.138-8.481-9.056
					C105.356,97.346,107.266,95.553,107.988,94.88z"/>
			</g>
			<g>
				
					<rect x="117.013" y="104.171" transform="matrix(0.7298 -0.6837 0.6837 0.7298 -43.5307 112.1066)" fill="#889B9E" enable-background="new    " width="6.081" height="13.9"/>
				<path fill="#FFFFFF" d="M112.031,108.095l10.518,11.229l5.525-5.176l-10.518-11.229L112.031,108.095z M117.488,105.021
					c0.86,0.92,7.624,8.138,8.483,9.058c-0.719,0.674-2.632,2.466-3.352,3.139c-0.86-0.917-7.624-8.138-8.484-9.057
					C114.855,107.489,116.767,105.697,117.488,105.021z"/>
			</g>
			<g>
				
					<rect x="45.417" y="25.256" transform="matrix(0.7298 -0.6837 0.6837 0.7298 -10.6201 42.5005)" fill="#889B9E" enable-background="new    " width="6.082" height="18.86"/>
				<path fill="#FFFFFF" d="M38.741,29.848L52.652,44.7l5.527-5.176L44.266,24.671L38.741,29.848z M44.198,26.775
					c0.9,0.963,10.976,11.719,11.875,12.68c-0.72,0.675-2.633,2.465-3.352,3.14c-0.903-0.961-10.977-11.717-11.877-12.678
					C41.565,29.242,43.477,27.451,44.198,26.775z"/>
			</g>
			<g>
				
					<rect x="66.115" y="46.857" transform="matrix(0.7299 -0.6835 0.6835 0.7299 -20.1358 62.6062)" fill="#889B9E" enable-background="new    " width="6.083" height="19.854"/>
				<path fill="#FFFFFF" d="M59.098,51.585L73.69,67.16l5.524-5.176L64.624,46.408L59.098,51.585z M64.556,48.511
					c0.908,0.968,11.647,12.437,12.554,13.405c-0.72,0.675-2.631,2.466-3.353,3.141c-0.906-0.969-11.647-12.438-12.555-13.405
					C61.923,50.977,63.835,49.186,64.556,48.511z"/>
			</g>
			<g>
				
					<rect x="55.597" y="40.094" transform="matrix(0.7299 -0.6835 0.6835 0.7299 -15.3004 52.3835)" fill="#889B9E" enable-background="new    " width="6.083" height="10.92"/>
				<path fill="#FFFFFF" d="M51.634,43.612l8.482,9.057l5.526-5.175l-8.483-9.056L51.634,43.612z M57.092,40.542
					c0.819,0.874,5.626,6.007,6.446,6.882c-0.72,0.674-2.632,2.466-3.353,3.141c-0.82-0.875-5.628-6.008-6.447-6.885
					C54.459,43.008,56.371,41.216,57.092,40.542z"/>
			</g>
			<g>
				
					<rect x="33.203" y="13.208" transform="matrix(0.7298 -0.6837 0.6837 0.7298 -5.0049 30.6268)" fill="#889B9E" enable-background="new    " width="6.083" height="16.875"/>
				<path fill="#FFFFFF" d="M27.204,17.533l12.554,13.403l5.525-5.178L32.729,12.355L27.204,17.533z M32.661,14.461
					c0.888,0.945,9.631,10.281,10.519,11.229c-0.721,0.675-2.633,2.465-3.353,3.141c-0.887-0.947-9.631-10.282-10.518-11.229
					C30.029,16.925,31.939,15.135,32.661,14.461z"/>
			</g>
			<g>
				
					<rect x="153.771" y="149.376" transform="matrix(-0.6836 -0.7298 0.7298 -0.6836 156.0112 372.4628)" fill="#889B9E" enable-background="new    " width="9.925" height="6.082"/>
				<path fill="#FFFFFF" d="M152.068,150.839l7.805,8.332l5.525-5.177l-7.804-8.331L152.068,150.839z M157.526,147.769
					c0.801,0.854,4.967,5.303,5.769,6.157c-0.722,0.675-2.633,2.465-3.354,3.142c-0.8-0.855-4.967-5.305-5.766-6.159
					C154.893,150.234,156.806,148.441,157.526,147.769z"/>
			</g>
			<g>
				
					<rect x="147.55" y="136.774" transform="matrix(0.7299 -0.6836 0.6836 0.7299 -57.5683 141.7709)" fill="#889B9E" enable-background="new    " width="6.081" height="13.898"/>
				<path fill="#FFFFFF" d="M142.569,140.697l10.519,11.229l5.526-5.177l-10.521-11.229L142.569,140.697z M148.025,137.625
					c0.86,0.918,7.623,8.138,8.483,9.057c-0.72,0.674-2.632,2.465-3.354,3.138c-0.859-0.918-7.622-8.137-8.48-9.056
					C145.393,140.091,147.305,138.299,148.025,137.625z"/>
			</g>
			<g>
				
					<rect x="126.852" y="114.182" transform="matrix(0.7297 -0.6838 0.6838 0.7297 -48.0534 121.6935)" fill="#889B9E" enable-background="new    " width="6.082" height="14.888"/>
				<path fill="#FFFFFF" d="M121.533,118.237l11.196,11.953l5.524-5.174l-11.196-11.955L121.533,118.237z M126.989,115.166
					c0.87,0.929,8.291,8.851,9.162,9.781c-0.721,0.675-2.634,2.465-3.354,3.139c-0.87-0.928-8.291-8.85-9.161-9.78
					C124.356,117.63,126.268,115.84,126.989,115.166z"/>
			</g>
			<g>
				
					<rect x="137.371" y="124.913" transform="matrix(0.73 -0.6835 0.6835 0.73 -52.8878 131.8459)" fill="#889B9E" enable-background="new    " width="6.083" height="15.883"/>
				<path fill="#FFFFFF" d="M131.71,129.104l11.876,12.679l5.524-5.177l-11.874-12.676L131.71,129.104z M137.167,126.033
					c0.88,0.939,8.96,9.568,9.84,10.508c-0.72,0.672-2.632,2.465-3.353,3.138c-0.879-0.938-8.96-9.567-9.84-10.506
					C134.536,128.498,136.447,126.708,137.167,126.033z"/>
			</g>
			<g>
				
					<rect x="109.808" y="77.184" transform="matrix(-0.7299 0.6835 -0.6835 -0.7299 252.0306 64.7106)" fill="#889B9E" enable-background="new    " width="6.845" height="9.929"/>
				<path fill="#FFFFFF" d="M106.288,80.831l7.804,8.331l6.083-5.696l-7.805-8.332L106.288,80.831z M112.3,77.237
					c0.801,0.855,4.968,5.304,5.771,6.16c-0.758,0.709-3.151,2.95-3.91,3.66c-0.801-0.855-4.968-5.302-5.769-6.158
					C109.149,80.19,111.542,77.947,112.3,77.237z"/>
			</g>
			<g>
				
					<rect x="89.111" y="51.611" transform="matrix(-0.7297 0.6837 -0.6837 -0.7297 201.1158 40.6045)" fill="#889B9E" enable-background="new    " width="6.843" height="16.878"/>
				<path fill="#FFFFFF" d="M83.215,56.197L95.77,69.601l6.08-5.697L89.296,50.499L83.215,56.197z M89.228,52.605
					c0.886,0.948,9.633,10.283,10.52,11.23c-0.757,0.709-3.151,2.95-3.909,3.66c-0.886-0.946-9.633-10.283-10.518-11.229
					C86.078,55.556,88.47,53.315,89.228,52.605z"/>
			</g>
			<g>
				
					<rect x="100.648" y="63.93" transform="matrix(-0.7298 0.6836 -0.6836 -0.7298 229.4941 54.035)" fill="#889B9E" enable-background="new    " width="6.843" height="16.875"/>
				<path fill="#FFFFFF" d="M94.753,68.512l12.553,13.405l6.082-5.698l-12.554-13.401L94.753,68.512z M100.765,64.923
					c0.887,0.946,9.63,10.281,10.518,11.228c-0.759,0.71-3.15,2.951-3.908,3.66c-0.887-0.946-9.631-10.281-10.518-11.23
					C97.616,67.873,100.007,65.633,100.765,64.923z"/>
			</g>
			<g>
				
					<rect x="117.953" y="83.894" transform="matrix(-0.7298 0.6836 -0.6836 -0.7298 272.06 74.1606)" fill="#889B9E" enable-background="new    " width="6.844" height="13.896"/>
				<path fill="#FFFFFF" d="M113.075,88.073l10.518,11.231l6.08-5.697l-10.518-11.229L113.075,88.073z M119.087,84.483
					c0.86,0.917,7.623,8.137,8.482,9.056c-0.758,0.709-3.151,2.95-3.907,3.66c-0.861-0.918-7.623-8.138-8.481-9.057
					C115.938,87.433,118.33,85.192,119.087,84.483z"/>
			</g>
			<g>
				
					<rect x="127.453" y="94.036" transform="matrix(-0.7297 0.6837 -0.6837 -0.7297 295.4255 85.1941)" fill="#889B9E" enable-background="new    " width="6.844" height="13.897"/>
				<path fill="#FFFFFF" d="M122.575,98.217l10.518,11.23l6.082-5.698l-10.519-11.228L122.575,98.217z M128.585,94.626
					c0.86,0.917,7.625,8.136,8.486,9.056c-0.76,0.708-3.151,2.95-3.91,3.661c-0.86-0.919-7.622-8.14-8.482-9.059
					C125.437,97.575,127.83,95.336,128.585,94.626z"/>
			</g>
			<g>
				
					<rect x="137.293" y="104.044" transform="matrix(-0.7297 0.6837 -0.6837 -0.7297 319.6285 96.6376)" fill="#889B9E" enable-background="new    " width="6.844" height="14.89"/>
				<path fill="#FFFFFF" d="M132.077,108.36l11.196,11.955l6.08-5.696l-11.196-11.956L132.077,108.36z M138.087,104.769
					c0.873,0.928,8.292,8.852,9.162,9.782c-0.757,0.708-3.149,2.951-3.909,3.661c-0.87-0.931-8.29-8.853-9.162-9.782
					C134.936,107.72,137.33,105.477,138.087,104.769z"/>
			</g>
			<g>
				
					<rect x="166.133" y="137.317" transform="matrix(-0.7298 0.6837 -0.6837 -0.7298 390.5683 130.1909)" fill="#889B9E" enable-background="new    " width="6.844" height="9.927"/>
				<path fill="#FFFFFF" d="M162.614,140.962l7.803,8.332l6.08-5.696l-7.804-8.332L162.614,140.962z M168.625,137.372
					c0.801,0.855,4.969,5.304,5.769,6.159c-0.757,0.71-3.15,2.95-3.908,3.66c-0.8-0.855-4.968-5.305-5.768-6.161
					C165.476,140.321,167.867,138.082,168.625,137.372z"/>
			</g>
			<g>
				
					<rect x="76.556" y="36.722" transform="matrix(-0.7296 0.6839 -0.6839 -0.7296 170.2314 25.982)" fill="#889B9E" enable-background="new    " width="6.845" height="19.852"/>
				<path fill="#FFFFFF" d="M69.643,41.706l14.59,15.578l6.08-5.697L75.725,36.01L69.643,41.706z M75.655,38.115
					c0.906,0.968,11.647,12.436,12.555,13.402c-0.759,0.711-3.15,2.952-3.909,3.662c-0.905-0.967-11.647-12.436-12.555-13.404
					C72.505,41.067,74.896,38.825,75.655,38.115z"/>
			</g>
			<g>
				
					<rect x="38.628" y="8.086" transform="matrix(0.6835 0.7299 -0.7299 0.6835 23.2966 -30.7127)" fill="#889B9E" enable-background="new    " width="16.874" height="6.844"/>
				<path fill="#FFFFFF" d="M37.749,7.657l12.555,13.401l6.08-5.698L43.83,1.958L37.749,7.657z M43.76,4.063
					c0.889,0.946,9.631,10.283,10.52,11.23c-0.759,0.708-3.151,2.951-3.908,3.661c-0.889-0.948-9.632-10.283-10.518-11.231
					C40.611,7.015,43.003,4.773,43.76,4.063z"/>
			</g>
			<g>
				
					<rect x="147.812" y="114.777" transform="matrix(-0.7298 0.6836 -0.6836 -0.7298 345.502 108.8907)" fill="#889B9E" enable-background="new    " width="6.843" height="15.883"/>
				<path fill="#FFFFFF" d="M142.255,119.23l11.874,12.676l6.083-5.695l-11.876-12.679L142.255,119.23z M148.266,115.637
					c0.88,0.939,8.963,9.566,9.843,10.505c-0.759,0.709-3.152,2.949-3.91,3.659c-0.879-0.938-8.96-9.565-9.839-10.504
					C145.116,118.587,147.508,116.346,148.266,115.637z"/>
			</g>
			<g>
				
					<rect x="157.99" y="126.638" transform="matrix(-0.7298 0.6836 -0.6836 -0.7298 370.5392 120.7303)" fill="#889B9E" enable-background="new    " width="6.844" height="13.897"/>
				<path fill="#FFFFFF" d="M153.111,130.821l10.519,11.228l6.081-5.697l-10.517-11.228L153.111,130.821z M159.125,127.228
					c0.86,0.919,7.622,8.139,8.482,9.058c-0.758,0.708-3.151,2.948-3.907,3.658c-0.86-0.917-7.624-8.138-8.484-9.055
					C155.975,130.178,158.367,127.938,159.125,127.228z"/>
			</g>
			<g>
				
					<rect x="66.039" y="29.957" transform="matrix(-0.7298 0.6836 -0.6836 -0.7298 144.3674 13.7823)" fill="#889B9E" enable-background="new    " width="6.843" height="10.92"/>
				<path fill="#FFFFFF" d="M62.177,33.737l8.484,9.056l6.081-5.696l-8.483-9.056L62.177,33.737z M68.191,30.146
					c0.818,0.874,5.626,6.008,6.446,6.883c-0.758,0.709-3.149,2.949-3.909,3.659c-0.818-0.874-5.627-6.008-6.447-6.885
					C65.04,33.096,67.431,30.856,68.191,30.146z"/>
			</g>
			<g>
				
					<rect x="55.857" y="15.119" transform="matrix(-0.7299 0.6835 -0.6835 -0.7299 119.3293 1.9493)" fill="#889B9E" enable-background="new    " width="6.845" height="18.862"/>
				<path fill="#FFFFFF" d="M49.283,19.973l13.913,14.851l6.081-5.696L55.366,14.275L49.283,19.973z M55.297,16.38
					c0.9,0.962,10.974,11.718,11.875,12.679c-0.758,0.709-3.149,2.952-3.909,3.66c-0.899-0.96-10.975-11.716-11.876-12.679
					C52.146,19.332,54.538,17.089,55.297,16.38z"/>
			</g>
			<g>
				
					<rect x="37.334" y="8.269" transform="matrix(-0.7298 0.6836 -0.6836 -0.7298 83.2364 0.5179)" fill="#889B9E" enable-background="new    " width="8.363" height="16.876"/>
				<path fill="#FFFFFF" d="M31.643,13.374l12.555,13.401l7.189-6.736L38.834,6.637L31.643,13.374z M38.765,8.743
					c0.888,0.946,9.631,10.283,10.518,11.23c-0.814,0.761-4.203,3.938-5.017,4.699c-0.888-0.946-9.631-10.282-10.518-11.229
					C34.563,12.68,37.952,9.503,38.765,8.743z"/>
			</g>
			<g>
				
					<rect x="141.501" y="119.976" transform="matrix(-0.7299 0.6836 -0.6836 -0.7299 339.4565 121.6943)" fill="#889B9E" enable-background="new    " width="8.365" height="15.882"/>
				<path fill="#FFFFFF" d="M136.151,124.947l11.874,12.68l7.19-6.737l-11.875-12.678L136.151,124.947z M143.273,120.314
					c0.88,0.939,8.958,9.567,9.839,10.507c-0.814,0.761-4.203,3.938-5.019,4.7c-0.879-0.937-8.958-9.567-9.84-10.504
					C139.068,124.253,142.458,121.079,143.273,120.314z"/>
			</g>
			<g>
				
					<rect x="70.248" y="41.918" transform="matrix(-0.7299 0.6835 -0.6835 -0.7299 164.1944 38.8107)" fill="#889B9E" enable-background="new    " width="8.363" height="19.855"/>
				<path fill="#FFFFFF" d="M63.538,47.425l14.591,15.577l7.191-6.734L70.729,40.688L63.538,47.425z M70.662,42.793
					c0.905,0.967,11.646,12.437,12.554,13.403c-0.814,0.763-4.205,3.937-5.018,4.7c-0.906-0.968-11.649-12.436-12.555-13.402
					C66.456,46.73,69.846,43.556,70.662,42.793z"/>
			</g>
			<g>
				
					<rect x="59.727" y="35.156" transform="matrix(-0.7298 0.6836 -0.6836 -0.7298 138.3192 26.5692)" fill="#889B9E" enable-background="new    " width="8.365" height="10.92"/>
				<path fill="#FFFFFF" d="M56.073,39.455l8.482,9.056l7.191-6.735l-8.483-9.057L56.073,39.455z M63.196,34.824
					c0.819,0.876,5.627,6.008,6.446,6.882c-0.813,0.763-4.204,3.938-5.019,4.702c-0.818-0.875-5.625-6.008-6.446-6.884
					C58.991,38.762,62.383,35.585,63.196,34.824z"/>
			</g>
			<g>
				
					<rect x="159.042" y="143.297" transform="matrix(-0.6836 -0.7299 0.7299 -0.6836 168.4767 367.9962)" fill="#889B9E" enable-background="new    " width="9.927" height="8.364"/>
				<path fill="#FFFFFF" d="M156.509,146.682l7.804,8.329l7.19-6.734l-7.803-8.333L156.509,146.682z M163.63,142.049
					c0.801,0.855,4.969,5.304,5.769,6.16c-0.813,0.762-4.203,3.937-5.018,4.7c-0.8-0.854-4.967-5.304-5.769-6.159
					C159.427,145.989,162.817,142.812,163.63,142.049z"/>
			</g>
			<g>
				
					<rect x="82.802" y="56.812" transform="matrix(-0.7298 0.6836 -0.6836 -0.7298 195.0741 53.4085)" fill="#889B9E" enable-background="new    " width="8.364" height="16.876"/>
				<path fill="#FFFFFF" d="M77.11,61.916l12.555,13.402l7.191-6.736L84.301,55.179L77.11,61.916z M84.233,57.284
					c0.888,0.948,9.631,10.283,10.52,11.229c-0.816,0.764-4.204,3.938-5.02,4.701c-0.886-0.946-9.63-10.282-10.518-11.229
					C80.028,61.222,83.419,58.045,84.233,57.284z"/>
			</g>
			<g>
				
					<rect x="44.3" y="25.567" transform="matrix(0.6837 0.7298 -0.7298 0.6837 38.7082 -29.802)" fill="#889B9E" enable-background="new    " width="18.861" height="8.363"/>
				<path fill="#FFFFFF" d="M43.18,25.69l13.912,14.854l7.189-6.74l-13.91-14.849L43.18,25.69z M50.303,21.059
					c0.9,0.961,10.974,11.716,11.874,12.679c-0.813,0.762-4.203,3.938-5.018,4.701c-0.901-0.962-10.975-11.719-11.876-12.681
					C46.097,24.997,49.487,21.821,50.303,21.059z"/>
			</g>
			<g>
				
					<rect x="151.68" y="131.836" transform="matrix(-0.7299 0.6836 -0.6836 -0.7299 364.4934 133.5435)" fill="#889B9E" enable-background="new    " width="8.365" height="13.897"/>
				<path fill="#FFFFFF" d="M147.007,136.541l10.519,11.228l7.191-6.739l-10.519-11.228L147.007,136.541z M154.129,131.906
					c0.86,0.919,7.625,8.139,8.485,9.057c-0.814,0.762-4.207,3.939-5.02,4.701c-0.86-0.918-7.622-8.139-8.484-9.057
					C149.926,135.845,153.317,132.669,154.129,131.906z"/>
			</g>
			<g>
				
					<rect x="121.142" y="99.234" transform="matrix(-0.7298 0.6836 -0.6836 -0.7298 289.3811 98.0055)" fill="#889B9E" enable-background="new    " width="8.365" height="13.898"/>
				<path fill="#FFFFFF" d="M116.471,103.937l10.518,11.229l7.19-6.736l-10.517-11.231L116.471,103.937z M123.593,99.304
					c0.86,0.917,7.622,8.138,8.484,9.056c-0.816,0.763-4.207,3.938-5.02,4.701c-0.86-0.918-7.624-8.139-8.484-9.057
					C119.388,103.242,122.778,100.066,123.593,99.304z"/>
			</g>
			<g>
				
					<rect x="130.985" y="109.242" transform="matrix(-0.7299 0.6836 -0.6836 -0.7299 313.5856 109.4509)" fill="#889B9E" enable-background="new    " width="8.363" height="14.89"/>
				<path fill="#FFFFFF" d="M125.971,114.079l11.197,11.954l7.192-6.735l-11.199-11.954L125.971,114.079z M133.093,109.446
					c0.871,0.93,8.291,8.854,9.162,9.784c-0.816,0.761-4.203,3.936-5.018,4.7c-0.87-0.93-8.292-8.853-9.162-9.783
					C128.89,113.386,132.277,110.21,133.093,109.446z"/>
			</g>
			<g>
				
					<rect x="94.338" y="69.128" transform="matrix(-0.7298 0.6836 -0.6836 -0.7298 223.4495 66.8268)" fill="#889B9E" enable-background="new    " width="8.364" height="16.874"/>
				<path fill="#FFFFFF" d="M88.647,74.231l12.554,13.403l7.19-6.735L95.838,67.496L88.647,74.231z M95.77,69.601
					c0.888,0.946,9.631,10.282,10.518,11.23c-0.815,0.761-4.205,3.936-5.018,4.699c-0.887-0.946-9.63-10.282-10.52-11.23
					C91.565,73.538,94.957,70.362,95.77,69.601z"/>
			</g>
			<g>
				
					<rect x="111.642" y="89.091" transform="matrix(-0.7299 0.6835 -0.6835 -0.7299 266.0131 86.9734)" fill="#889B9E" enable-background="new    " width="8.365" height="13.897"/>
				<path fill="#FFFFFF" d="M106.97,93.792l10.518,11.231l7.191-6.739l-10.518-11.228L106.97,93.792z M114.092,89.161
					c0.859,0.917,7.624,8.138,8.483,9.056c-0.814,0.763-4.204,3.939-5.018,4.701c-0.859-0.919-7.623-8.138-8.483-9.057
					C109.889,93.099,113.278,89.924,114.092,89.161z"/>
			</g>
			<g>
				
					<rect x="103.5" y="82.382" transform="matrix(-0.7299 0.6835 -0.6835 -0.7299 245.9835 77.4939)" fill="#889B9E" enable-background="new    " width="8.363" height="9.928"/>
				<path fill="#FFFFFF" d="M100.183,86.548l7.805,8.331l7.192-6.736l-7.806-8.331L100.183,86.548z M107.306,81.917
					c0.799,0.854,4.967,5.304,5.77,6.157c-0.816,0.763-4.205,3.938-5.02,4.702c-0.8-0.855-4.966-5.303-5.768-6.159
					C103.103,85.854,106.492,82.679,107.306,81.917z"/>
			</g>
		</g>
		<g>
			<path fill="#889B9E" enable-background="new    " d="M185.904,182.535c1.124,1.2,1.06,3.085-0.144,4.208l0,0
				c-1.2,1.123-3.085,1.061-4.208-0.143L25.661,19.789c-1.123-1.202-1.059-3.086,0.144-4.208l0,0c1.202-1.124,3.087-1.06,4.21,0.143
				L185.904,182.535z"/>
			<path fill="#FFFFFF" d="M25.295,15.037c-1.499,1.401-1.579,3.761-0.178,5.259l155.892,166.813c1.4,1.499,3.762,1.579,5.261,0.179
				c0.726-0.678,1.144-1.601,1.178-2.592c0.033-0.996-0.321-1.944-1.001-2.669l0,0L30.557,15.215
				c-0.678-0.728-1.599-1.146-2.593-1.181C26.971,14.001,26.021,14.357,25.295,15.037z M182.097,186.094L26.206,19.279
				c-0.408-0.435-0.62-1.004-0.601-1.6c0.021-0.596,0.272-1.148,0.707-1.556c0.437-0.406,1.006-0.621,1.602-0.6
				c0.596,0.02,1.149,0.271,1.554,0.708l155.894,166.81c0.406,0.437,0.62,1.007,0.599,1.602c-0.019,0.598-0.271,1.151-0.707,1.556
				C184.353,187.041,182.936,186.992,182.097,186.094z"/>
		</g>
	</g>
	<circle fill="#889B9E" cx="185.018" cy="185.032" r="12.904"/>
	<g>
		<circle fill="#889B9E" enable-background="new    " cx="185.018" cy="185.032" r="7.941"/>
		<path fill="#FFFFFF" d="M176.334,185.032c0,4.79,3.896,8.686,8.685,8.686c4.789,0,8.685-3.896,8.685-8.686
			c0-4.789-3.896-8.686-8.685-8.686C180.23,176.346,176.334,180.244,176.334,185.032z M177.823,185.032
			c0-3.968,3.226-7.196,7.196-7.196c3.968,0,7.196,3.228,7.196,7.196s-3.229,7.197-7.196,7.197
			C181.049,192.229,177.823,189,177.823,185.032z"/>
	</g>
</g>
</svg>
