<?xml version="1.0" encoding="utf-8"?>
<!-- Generator: Adobe Illustrator 16.0.0, SVG Export Plug-In . SVG Version: 6.00 Build 0)  -->
<!DOCTYPE svg PUBLIC "-//W3C//DTD SVG 1.1//EN" "http://www.w3.org/Graphics/SVG/1.1/DTD/svg11.dtd">
<svg version="1.1" id="Capa_1" xmlns="http://www.w3.org/2000/svg" xmlns:xlink="http://www.w3.org/1999/xlink" x="0px" y="0px"
	 width="228px" height="228px" viewBox="0 0 228 228" enable-background="new 0 0 228 228" xml:space="preserve">
<g>
	<g>
		<g>
			
				<rect x="139.273" y="80.083" transform="matrix(0.7297 -0.6837 0.6837 0.7297 -17.3927 120.8364)" fill="none" width="9.762" height="4.673"/>
			
				<rect x="153.562" y="68.379" transform="matrix(0.7297 -0.6838 0.6838 0.7297 -5.3728 126.9048)" fill="none" width="8.541" height="3.739"/>
			
				<rect x="144.706" y="99.553" transform="matrix(-0.7298 0.6836 -0.6836 -0.7298 326.7189 72.7873)" fill="none" width="8.541" height="2.803"/>
			
				<rect x="158.461" y="86.642" transform="matrix(-0.7298 0.6836 -0.6836 -0.7298 342.692 42.0521)" fill="none" width="9.15" height="4.206"/>
			
				<rect x="195.095" y="31.442" transform="matrix(0.7299 -0.6835 0.6835 0.7299 31.1443 144.5139)" fill="none" width="6.711" height="2.806"/>
			
				<rect x="177.963" y="45.218" transform="matrix(0.7298 -0.6837 0.6837 0.7298 17.4619 137.8835)" fill="none" width="10.372" height="3.269"/>
			
				<rect x="166.678" y="58.344" transform="matrix(0.7298 -0.6836 0.6836 0.7298 5.0118 132.1729)" fill="none" width="6.099" height="2.803"/>
			
				<rect x="210.194" y="36.782" transform="matrix(-0.7298 0.6836 -0.6836 -0.7298 399.7275 -81.6107)" fill="none" width="11.593" height="2.804"/>
			
				<rect x="171.295" y="74.818" transform="matrix(-0.7299 0.6835 -0.6835 -0.7299 356.1344 12.6612)" fill="none" width="8.542" height="3.74"/>
			
				<rect x="181.895" y="64.12" transform="matrix(-0.7298 0.6836 -0.6836 -0.7298 368.8926 -13.3366)" fill="none" width="10.373" height="4.207"/>
			
				<rect x="196.307" y="49.502" transform="matrix(-0.7299 0.6835 -0.6835 -0.7299 384.9449 -50.2938)" fill="none" width="12.203" height="2.806"/>
			
				<rect x="222.079" y="15.513" transform="matrix(-0.6835 -0.7299 0.7299 -0.6835 364.4249 195.7471)" fill="none" width="5.141" height="6.711"/>
			<g>
				
					<rect x="183.676" y="44.225" transform="matrix(0.6835 0.7299 -0.7299 0.6835 94.7824 -119.7946)" fill="#889B9E" enable-background="new    " width="3.739" height="10.372"/>
				<path fill="#FFFFFF" d="M179.43,51.558l3.575,3.816l8.655-8.108l-3.574-3.815L179.43,51.558z M188.018,45.554
					c0.49,0.524,1.047,1.118,1.539,1.642c-0.864,0.81-5.619,5.265-6.483,6.073c-0.491-0.523-1.049-1.118-1.538-1.641
					C182.399,50.818,187.154,46.365,188.018,45.554z"/>
			</g>
			<g>
				
					<rect x="176.106" y="51.317" transform="matrix(0.6836 0.7299 -0.7299 0.6836 97.5608 -112.0251)" fill="#889B9E" enable-background="new    " width="3.74" height="10.371"/>
				<path fill="#FFFFFF" d="M171.862,58.649l3.572,3.815l8.657-8.107l-3.573-3.815L171.862,58.649z M180.449,52.645
					c0.488,0.524,1.047,1.118,1.537,1.642c-0.864,0.81-5.618,5.263-6.482,6.072c-0.492-0.524-1.047-1.119-1.539-1.642
					C174.83,57.908,179.584,53.456,180.449,52.645z"/>
			</g>
			<g>
				
					<rect x="170.095" y="59.081" transform="matrix(0.6835 0.73 -0.73 0.6835 99.7868 -105.8629)" fill="#889B9E" enable-background="new    " width="3.738" height="6.103"/>
				<path fill="#FFFFFF" d="M167.406,62.819l3.576,3.815l5.538-5.189l-3.573-3.815L167.406,62.819z M172.879,59.735
					c0.49,0.524,1.047,1.12,1.538,1.642c-0.722,0.675-2.646,2.479-3.367,3.153c-0.491-0.523-1.047-1.117-1.536-1.641
					C170.234,62.213,172.158,60.412,172.879,59.735z"/>
			</g>
			<g>
				
					<rect x="164.752" y="62.867" transform="matrix(0.6841 0.7294 -0.7294 0.6841 101.6066 -100.3241)" fill="#889B9E" enable-background="new    " width="3.74" height="8.54"/>
				<path fill="#FFFFFF" d="M161.173,68.659l3.575,3.815l7.322-6.858l-3.574-3.813L161.173,68.659z M168.426,63.906
					c0.49,0.524,1.048,1.12,1.538,1.643c-0.817,0.766-4.327,4.053-5.147,4.82c-0.488-0.524-1.047-1.117-1.537-1.642
					C164.098,67.959,167.605,64.673,168.426,63.906z"/>
			</g>
			<g>
				
					<rect x="158.518" y="68.707" transform="matrix(0.6834 0.73 -0.73 0.6834 104.052 -93.9847)" fill="#889B9E" enable-background="new    " width="3.74" height="8.541"/>
				<path fill="#FFFFFF" d="M154.941,74.498l3.572,3.813l7.321-6.856l-3.575-3.813L154.941,74.498z M162.193,69.745
					c0.49,0.524,1.047,1.119,1.537,1.642c-0.818,0.768-4.328,4.053-5.148,4.822c-0.488-0.524-1.045-1.119-1.535-1.642
					C157.865,73.799,161.373,70.512,162.193,69.745z"/>
			</g>
			<g>
				
					<rect x="205.494" y="23.178" transform="matrix(0.6841 0.7294 -0.7294 0.6841 86.64 -142.0964)" fill="#889B9E" enable-background="new    " width="3.742" height="11.592"/>
				<path fill="#FFFFFF" d="M200.806,31.539l3.569,3.815l9.551-8.943l-3.578-3.815L200.806,31.539z M210.281,24.701
					c0.49,0.524,1.049,1.12,1.539,1.642c-0.888,0.829-6.487,6.077-7.373,6.907c-0.493-0.522-1.049-1.116-1.537-1.642
					C203.795,30.778,209.396,25.53,210.281,24.701z"/>
			</g>
			<g>
				
					<rect x="191.916" y="35.594" transform="matrix(0.6837 0.7298 -0.7298 0.6837 91.7293 -128.2329)" fill="#889B9E" enable-background="new    " width="3.737" height="12.203"/>
				<path fill="#FFFFFF" d="M186.998,44.468l3.574,3.814l9.994-9.359l-3.574-3.813L186.998,44.468z M196.924,37.213
					c0.492,0.524,1.047,1.118,1.539,1.642c-0.898,0.839-6.925,6.486-7.82,7.325c-0.491-0.524-1.049-1.119-1.539-1.642
					C190.001,43.698,196.029,38.052,196.924,37.213z"/>
			</g>
			<g>
				
					<rect x="198.817" y="31.877" transform="matrix(0.6836 0.7298 -0.7298 0.6836 89.2069 -135.3221)" fill="#889B9E" enable-background="new    " width="3.74" height="6.709"/>
				<path fill="#FFFFFF" d="M195.907,36.125l3.574,3.817l5.982-5.607l-3.571-3.815L195.907,36.125z M201.822,32.626
					c0.49,0.523,1.046,1.117,1.537,1.641c-0.752,0.705-3.059,2.865-3.813,3.568c-0.489-0.524-1.043-1.118-1.535-1.641
					C198.764,35.492,201.07,33.329,201.822,32.626z"/>
			</g>
			<g>
				
					<rect x="213.509" y="16.281" transform="matrix(0.6841 0.7294 -0.7294 0.6841 83.6974 -150.3152)" fill="#889B9E" enable-background="new    " width="3.74" height="10.371"/>
				<path fill="#FFFFFF" d="M209.264,23.615l3.574,3.814l8.659-8.108l-3.575-3.813L209.264,23.615z M217.853,17.61
					c0.491,0.524,1.049,1.12,1.54,1.642c-0.869,0.81-5.621,5.264-6.483,6.072c-0.494-0.523-1.049-1.116-1.542-1.641
					C212.232,22.874,216.987,18.42,217.853,17.61z"/>
			</g>
			<g>
				
					<rect x="131.956" y="94.88" transform="matrix(0.7299 -0.6836 0.6836 0.7299 -29.6679 118.4173)" fill="#889B9E" enable-background="new    " width="6.101" height="3.738"/>
				<path fill="#FFFFFF" d="M130.449,97.438l3.575,3.813l5.539-5.188l-3.573-3.813L130.449,97.438z M135.922,94.352
					c0.49,0.524,1.047,1.118,1.537,1.643c-0.721,0.675-2.645,2.476-3.366,3.153c-0.49-0.523-1.048-1.117-1.538-1.642
					C133.275,96.831,135.199,95.028,135.922,94.352z"/>
			</g>
			<g>
				
					<rect x="138.481" y="87.473" transform="matrix(0.6837 0.7297 -0.7297 0.6837 111.3369 -73.4019)" fill="#889B9E" enable-background="new    " width="3.736" height="8.542"/>
				<path fill="#FFFFFF" d="M134.903,93.267l3.573,3.813l7.32-6.856l-3.572-3.814L134.903,93.267z M142.155,88.514
					c0.491,0.524,1.048,1.118,1.537,1.642c-0.819,0.767-4.327,4.054-5.147,4.821c-0.49-0.524-1.046-1.118-1.538-1.642
					C137.829,92.568,141.338,89.281,142.155,88.514z"/>
			</g>
			<g>
				
					<rect x="152.064" y="74.448" transform="matrix(0.6839 0.7295 -0.7295 0.6839 106.3017 -87.3231)" fill="#889B9E" enable-background="new    " width="3.738" height="9.152"/>
				<path fill="#FFFFFF" d="M148.261,80.755l3.576,3.814l7.765-7.273l-3.574-3.815L148.261,80.755z M155.959,75.585
					c0.491,0.522,1.047,1.118,1.537,1.641c-0.836,0.784-4.756,4.456-5.592,5.239c-0.492-0.524-1.047-1.12-1.537-1.644
					C151.203,80.04,155.123,76.368,155.959,75.585z"/>
			</g>
			<g>
				
					<rect x="145.161" y="80.608" transform="matrix(0.6835 0.7299 -0.7299 0.6835 108.9291 -80.2649)" fill="#889B9E" enable-background="new    " width="3.737" height="9.762"/>
				<path fill="#FFFFFF" d="M141.139,87.428l3.572,3.813l8.21-7.69l-3.573-3.814L141.139,87.428z M149.279,81.841
					c0.49,0.524,1.047,1.118,1.539,1.642c-0.852,0.796-5.188,4.858-6.039,5.655c-0.489-0.524-1.047-1.12-1.538-1.642
					C144.092,86.699,148.428,82.638,149.279,81.841z"/>
			</g>
			<g>
				
					<rect x="176.092" y="65.732" transform="matrix(-0.6834 -0.73 0.73 -0.6834 249.7689 245.8751)" fill="#889B9E" enable-background="new    " width="4.205" height="6.101"/>
				<path fill="#FFFFFF" d="M173.48,69.3l3.892,4.157l5.538-5.19l-3.893-4.155L173.48,69.3z M178.949,66.214
					c0.541,0.579,1.316,1.407,1.856,1.984c-0.722,0.674-2.644,2.477-3.366,3.153c-0.541-0.578-1.316-1.406-1.856-1.982
					C176.303,68.692,178.229,66.892,178.949,66.214z"/>
			</g>
			<g>
				
					<rect x="189.674" y="50.877" transform="matrix(-0.6839 -0.7296 0.7296 -0.6839 282.0211 234.3247)" fill="#889B9E" enable-background="new    " width="4.205" height="10.373"/>
				<path fill="#FFFFFF" d="M185.499,58.04l3.896,4.155l8.656-8.108l-3.895-4.155L185.499,58.04z M194.088,52.035
					c0.542,0.577,1.318,1.406,1.858,1.983c-0.862,0.811-5.619,5.263-6.483,6.071c-0.543-0.577-1.316-1.404-1.857-1.981
					C188.468,57.298,193.225,52.844,194.088,52.035z"/>
			</g>
			<g>
				
					<rect x="182.103" y="57.966" transform="matrix(-0.6835 -0.7299 0.7299 -0.6835 264.0149 240.7773)" fill="#889B9E" enable-background="new    " width="4.206" height="10.372"/>
				<path fill="#FFFFFF" d="M177.932,65.129l3.893,4.156l8.658-8.108l-3.896-4.156L177.932,65.129z M186.518,59.125
					c0.542,0.577,1.318,1.406,1.858,1.983c-0.864,0.808-5.619,5.263-6.485,6.071c-0.538-0.577-1.313-1.405-1.854-1.982
					C180.9,64.387,185.654,59.935,186.518,59.125z"/>
			</g>
			<g>
				
					<rect x="170.748" y="69.517" transform="matrix(-0.6835 -0.7299 0.7299 -0.6835 237.1355 250.3934)" fill="#889B9E" enable-background="new    " width="4.206" height="8.541"/>
				<path fill="#FFFFFF" d="M167.244,75.139l3.895,4.156l7.318-6.857l-3.891-4.158L167.244,75.139z M174.496,70.387
					c0.541,0.576,1.316,1.404,1.857,1.984c-0.819,0.765-4.328,4.051-5.147,4.818c-0.541-0.578-1.316-1.405-1.856-1.983
					C170.17,74.44,173.677,71.153,174.496,70.387z"/>
			</g>
			<g>
				
					<rect x="164.516" y="75.356" transform="matrix(-0.6833 -0.7302 0.7302 -0.6833 222.3201 255.6936)" fill="#889B9E" enable-background="new    " width="4.205" height="8.543"/>
				<path fill="#FFFFFF" d="M161.012,80.977l3.893,4.156l7.32-6.856l-3.893-4.156L161.012,80.977z M168.264,76.226
					c0.54,0.578,1.315,1.405,1.856,1.983c-0.819,0.767-4.328,4.053-5.147,4.822c-0.541-0.581-1.316-1.408-1.857-1.985
					C163.935,80.28,167.443,76.993,168.264,76.226z"/>
			</g>
			<g>
				
					<rect x="158.057" y="81.1" transform="matrix(-0.6839 -0.7296 0.7296 -0.6839 207.1802 261.1194)" fill="#889B9E" enable-background="new    " width="4.207" height="9.15"/>
				<path fill="#FFFFFF" d="M154.33,87.234l3.895,4.155l7.766-7.274l-3.895-4.155L154.33,87.234z M162.029,82.063
					c0.541,0.58,1.316,1.406,1.857,1.983c-0.838,0.784-4.756,4.456-5.592,5.239c-0.542-0.578-1.318-1.406-1.859-1.983
					C157.271,86.519,161.193,82.846,162.029,82.063z"/>
			</g>
			<g>
				
					<rect x="139.133" y="100.349" transform="matrix(-0.6835 -0.7299 0.7299 -0.6835 162.2986 277.1684)" fill="#889B9E" enable-background="new    " width="4.208" height="6.101"/>
				<path fill="#FFFFFF" d="M136.521,103.917l3.893,4.158l5.539-5.19l-3.895-4.157L136.521,103.917z M141.992,100.833
					c0.54,0.578,1.314,1.405,1.856,1.983c-0.722,0.675-2.644,2.477-3.366,3.153c-0.541-0.579-1.316-1.406-1.857-1.983
					C139.346,103.309,141.27,101.508,141.992,100.833z"/>
			</g>
			<g>
				<polygon fill="#889B9E" enable-background="new    " points="194.121,50.983 197,54.052 205.902,45.711 203.029,42.641 				"/>
				<path fill="#FFFFFF" d="M193.068,50.949l3.896,4.157l9.99-9.361l-3.893-4.157L193.068,50.949z M202.994,43.695
					c0.541,0.578,1.316,1.404,1.857,1.982c-0.897,0.838-6.922,6.484-7.816,7.324c-0.543-0.579-1.319-1.406-1.859-1.983
					C196.07,50.178,202.1,44.534,202.994,43.695z"/>
			</g>
			<g>
				
					<rect x="216.425" y="26.015" transform="matrix(-0.7299 0.6836 -0.6836 -0.7299 402.5815 -102.8431)" fill="#889B9E" enable-background="new    " width="10.37" height="4.207"/>
				<path fill="#FFFFFF" d="M215.333,30.094l3.896,4.156l8.655-8.108l-3.896-4.156L215.333,30.094z M223.921,24.089
					c0.543,0.58,1.319,1.408,1.86,1.986c-0.865,0.808-5.621,5.262-6.486,6.072c-0.541-0.578-1.314-1.406-1.857-1.983
					C218.301,29.353,223.059,24.9,223.921,24.089z"/>
			</g>
			<g>
				
					<rect x="151.155" y="87.259" transform="matrix(-0.684 -0.7295 0.7295 -0.684 190.8724 266.963)" fill="#889B9E" enable-background="new    " width="4.208" height="9.762"/>
				<path fill="#FFFFFF" d="M147.207,93.906l3.895,4.157l8.209-7.69l-3.893-4.155L147.207,93.906z M155.35,88.32
					c0.541,0.578,1.318,1.406,1.857,1.983c-0.852,0.797-5.186,4.859-6.037,5.656c-0.541-0.579-1.317-1.407-1.858-1.984
					C150.163,93.179,154.499,89.117,155.35,88.32z"/>
			</g>
			<g>
				
					<rect x="144.479" y="94.125" transform="matrix(-0.6835 -0.7299 0.7299 -0.6835 174.9453 272.6461)" fill="#889B9E" enable-background="new    " width="4.205" height="8.542"/>
				<path fill="#FFFFFF" d="M140.973,99.746l3.893,4.156l7.322-6.854l-3.894-4.158L140.973,99.746z M148.226,94.993
					c0.54,0.578,1.316,1.407,1.856,1.984c-0.818,0.767-4.327,4.054-5.148,4.821c-0.539-0.577-1.315-1.407-1.855-1.983
					C143.896,99.047,147.404,95.761,148.226,94.993z"/>
			</g>
			<g>
				
					<rect x="204.813" y="38.525" transform="matrix(-0.6833 -0.7301 0.7301 -0.6833 317.7262 221.5732)" fill="#889B9E" enable-background="new    " width="4.205" height="6.713"/>
				<path fill="#FFFFFF" d="M201.977,42.607l3.892,4.157l5.987-5.605l-3.895-4.158L201.977,42.607z M207.891,39.106
					c0.543,0.578,1.316,1.406,1.859,1.983c-0.754,0.704-3.061,2.865-3.813,3.57c-0.543-0.579-1.316-1.406-1.854-1.983
					C204.834,41.971,207.14,39.811,207.891,39.106z"/>
			</g>
			<g>
				
					<rect x="211.491" y="29.829" transform="matrix(-0.6837 -0.7297 0.7297 -0.6837 333.6425 215.8475)" fill="#889B9E" enable-background="new    " width="4.206" height="11.592"/>
				<path fill="#FFFFFF" d="M206.875,38.019l3.893,4.156l9.549-8.941l-3.895-4.156L206.875,38.019z M216.35,31.18
					c0.543,0.578,1.319,1.407,1.859,1.986c-0.885,0.829-6.485,6.075-7.373,6.905c-0.54-0.578-1.316-1.407-1.856-1.984
					C209.864,37.258,215.465,32.012,216.35,31.18z"/>
			</g>
			<g>
				
					<rect x="215.847" y="19.52" transform="matrix(-0.6831 -0.7303 0.7303 -0.6831 349.5708 201.1001)" fill="#889B9E" enable-background="new    " width="5.138" height="10.374"/>
				<path fill="#FFFFFF" d="M211.82,26.343l4.529,4.837l8.66-8.107l-4.531-4.838L211.82,26.343z M220.408,20.339
					c0.617,0.66,1.877,2.003,2.494,2.665c-0.865,0.809-5.617,5.261-6.48,6.073c-0.62-0.662-1.879-2.006-2.496-2.667
					C214.787,25.603,219.546,21.149,220.408,20.339z"/>
			</g>
			<g>
				
					<rect x="147.493" y="83.847" transform="matrix(-0.6834 -0.7301 0.7301 -0.6834 187.8321 258.9198)" fill="#889B9E" enable-background="new    " width="5.142" height="9.762"/>
				<path fill="#FFFFFF" d="M143.692,90.156l4.533,4.837l8.21-7.69l-4.531-4.838L143.692,90.156z M151.837,84.569
					c0.617,0.661,1.876,2.004,2.495,2.666c-0.852,0.797-5.188,4.857-6.038,5.655c-0.619-0.661-1.879-2.005-2.497-2.665
					C146.648,89.427,150.983,85.366,151.837,84.569z"/>
			</g>
			<g>
				
					<rect x="194.249" y="38.834" transform="matrix(-0.6834 -0.73 0.73 -0.6834 298.5197 219.3317)" fill="#889B9E" enable-background="new    " width="5.14" height="12.204"/>
				<path fill="#FFFFFF" d="M189.557,47.196l4.531,4.838l9.995-9.359l-4.536-4.84L189.557,47.196z M199.481,39.942
					c0.614,0.658,1.876,2.005,2.495,2.665c-0.897,0.839-6.926,6.484-7.82,7.324c-0.619-0.661-1.878-2.006-2.496-2.666
					C192.555,46.426,198.584,40.782,199.481,39.942z"/>
			</g>
			<g>
				
					<rect x="201.15" y="35.116" transform="matrix(-0.6835 -0.7299 0.7299 -0.6835 314.8825 213.4712)" fill="#889B9E" enable-background="new    " width="5.141" height="6.71"/>
				<path fill="#FFFFFF" d="M198.463,38.854l4.531,4.839l5.985-5.606l-4.532-4.837L198.463,38.854z M204.375,35.354
					c0.62,0.66,1.883,2.004,2.5,2.665c-0.752,0.704-3.06,2.866-3.813,3.57c-0.617-0.661-1.877-2.005-2.495-2.666
					C201.318,38.219,203.627,36.058,204.375,35.354z"/>
			</g>
			<g>
				
					<rect x="134.992" y="97.419" transform="matrix(0.7299 -0.6835 0.6835 0.7299 -31.0635 121.364)" fill="#889B9E" enable-background="new    " width="6.098" height="5.14"/>
				<path fill="#FFFFFF" d="M133.007,100.166l4.532,4.835l5.539-5.186l-4.533-4.838L133.007,100.166z M138.477,97.08
					c0.618,0.66,1.879,2.005,2.496,2.666c-0.723,0.675-2.645,2.476-3.365,3.153c-0.619-0.661-1.879-2.006-2.498-2.667
					C135.832,99.557,137.756,97.756,138.477,97.08z"/>
			</g>
			<g>
				
					<rect x="186.01" y="47.467" transform="matrix(-0.6835 -0.7299 0.7299 -0.6835 279.0412 226.2945)" fill="#889B9E" enable-background="new    " width="5.141" height="10.371"/>
				<path fill="#FFFFFF" d="M181.986,54.287l4.531,4.838l8.658-8.108l-4.533-4.837L181.986,54.287z M190.572,48.282
					c0.62,0.661,1.879,2.006,2.498,2.667c-0.865,0.81-5.619,5.264-6.484,6.072c-0.617-0.66-1.877-2.003-2.494-2.665
					C184.955,53.547,189.708,49.093,190.572,48.282z"/>
			</g>
			<g>
				
					<rect x="204.605" y="29.646" transform="matrix(-0.7298 0.6836 -0.6836 -0.7298 385.9772 -88.1136)" fill="#889B9E" enable-background="new    " width="11.591" height="5.138"/>
				<path fill="#FFFFFF" d="M203.359,34.268l4.531,4.836l9.547-8.94l-4.528-4.84L203.359,34.268z M212.838,27.429
					c0.617,0.661,1.878,2.006,2.495,2.666c-0.885,0.83-6.485,6.078-7.372,6.907c-0.62-0.66-1.877-2.004-2.497-2.666
					C206.352,33.506,211.951,28.259,212.838,27.429z"/>
			</g>
			<g>
				
					<rect x="140.813" y="90.716" transform="matrix(-0.6839 -0.7295 0.7295 -0.6839 172.1558 264.5537)" fill="#889B9E" enable-background="new    " width="5.142" height="8.539"/>
				<path fill="#FFFFFF" d="M137.459,95.995l4.533,4.838l7.319-6.857l-4.532-4.837L137.459,95.995z M144.711,91.241
					c0.617,0.662,1.879,2.005,2.496,2.665c-0.818,0.769-4.328,4.055-5.148,4.822c-0.617-0.659-1.877-2.004-2.495-2.665
					C140.383,95.295,143.891,92.008,144.711,91.241z"/>
			</g>
			<g>
				
					<rect x="160.853" y="71.945" transform="matrix(-0.6835 -0.73 0.73 -0.6835 219.4797 247.6037)" fill="#889B9E" enable-background="new    " width="5.141" height="8.541"/>
				<path fill="#FFFFFF" d="M157.496,77.226l4.533,4.838l7.32-6.857l-4.533-4.838L157.496,77.226z M164.748,72.474
					c0.619,0.66,1.879,2.004,2.496,2.666c-0.818,0.767-4.328,4.054-5.148,4.821c-0.615-0.66-1.877-2.005-2.494-2.665
					C160.42,76.528,163.929,73.24,164.748,72.474z"/>
			</g>
			<g>
				
					<rect x="154.397" y="77.688" transform="matrix(-0.6836 -0.7299 0.7299 -0.6836 204.2272 253.0639)" fill="#889B9E" enable-background="new    " width="5.14" height="9.153"/>
				<path fill="#FFFFFF" d="M150.818,83.483l4.531,4.837l7.766-7.274l-4.533-4.837L150.818,83.483z M158.514,78.312
					c0.619,0.661,1.878,2.006,2.498,2.666c-0.836,0.784-4.759,4.457-5.594,5.241c-0.619-0.662-1.877-2.007-2.497-2.667
					C153.758,82.77,157.679,79.095,158.514,78.312z"/>
			</g>
			<g>
				
					<rect x="178.441" y="54.558" transform="matrix(-0.6837 -0.7297 0.7297 -0.6837 261.1805 232.6788)" fill="#889B9E" enable-background="new    " width="5.14" height="10.37"/>
				<path fill="#FFFFFF" d="M174.417,61.377l4.532,4.837l8.656-8.106l-4.532-4.839L174.417,61.377z M183.005,55.374
					c0.618,0.661,1.877,2.004,2.495,2.666c-0.863,0.809-5.617,5.262-6.482,6.072c-0.617-0.662-1.877-2.007-2.497-2.667
					C177.386,60.635,182.141,56.184,183.005,55.374z"/>
			</g>
			<g>
				
					<rect x="167.087" y="66.107" transform="matrix(-0.6839 -0.7296 0.7296 -0.6839 234.336 242.2879)" fill="#889B9E" enable-background="new    " width="5.139" height="8.541"/>
				<path fill="#FFFFFF" d="M163.73,71.387l4.533,4.839l7.319-6.856l-4.533-4.839L163.73,71.387z M170.982,66.635
					c0.618,0.66,1.878,2.004,2.498,2.665c-0.82,0.767-4.33,4.054-5.148,4.821c-0.619-0.66-1.878-2.005-2.497-2.666
					C166.653,70.688,170.162,67.401,170.982,66.635z"/>
			</g>
			<g>
				
					<rect x="172.43" y="62.322" transform="matrix(-0.6836 -0.7299 0.7299 -0.6836 246.9178 237.7861)" fill="#889B9E" enable-background="new    " width="5.14" height="6.101"/>
				<path fill="#FFFFFF" d="M169.964,65.549l4.532,4.837l5.54-5.188l-4.532-4.839L169.964,65.549z M175.435,62.464
					c0.618,0.66,1.88,2.005,2.497,2.666c-0.721,0.676-2.646,2.478-3.365,3.151c-0.619-0.658-1.881-2.004-2.498-2.665
					C172.791,64.941,174.713,63.14,175.435,62.464z"/>
			</g>
		</g>
		<g>
			<path fill="#889B9E" enable-background="new    " d="M116.498,113.45c-0.74,0.689-1.896,0.65-2.588-0.089l0,0
				c-0.691-0.739-0.651-1.896,0.089-2.587l102.522-95.811c0.736-0.69,1.894-0.65,2.585,0.088l0,0
				c0.692,0.739,0.653,1.896-0.089,2.587L116.498,113.45z"/>
			<path fill="#FFFFFF" d="M216.01,14.419L113.49,110.23c-0.502,0.47-0.793,1.106-0.814,1.792c-0.025,0.689,0.22,1.345,0.689,1.847
				c0.97,1.037,2.602,1.091,3.64,0.124l102.522-95.812c0.502-0.467,0.792-1.104,0.814-1.79c0.024-0.689-0.219-1.343-0.689-1.849
				C218.68,13.507,217.049,13.452,216.01,14.419z M114.454,112.853c-0.198-0.212-0.302-0.488-0.292-0.777
				c0.01-0.291,0.132-0.561,0.344-0.757l102.523-95.811c0.437-0.408,1.123-0.385,1.537,0.053c0.195,0.211,0.3,0.487,0.287,0.778
				c-0.01,0.288-0.131,0.556-0.342,0.754l-102.523,95.812l0,0C115.551,113.314,114.863,113.289,114.454,112.853z"/>
		</g>
	</g>
	<g>
		<g>
			
				<rect x="139.499" y="141.044" transform="matrix(0.6836 0.7299 -0.7299 0.6836 150.3388 -60.0104)" fill="none" width="9.762" height="4.675"/>
			
				<rect x="152.281" y="155.19" transform="matrix(0.6837 0.7298 -0.7298 0.6837 164.1355 -64.5677)" fill="none" width="8.542" height="3.738"/>
			
				<rect x="121.575" y="146.802" transform="matrix(-0.6836 -0.7298 0.7298 -0.6836 103.7155 341.3651)" fill="none" width="8.541" height="2.802"/>
			
				<rect x="133.479" y="160.16" transform="matrix(-0.6836 -0.7299 0.7299 -0.6836 113.9918 373.9455)" fill="none" width="9.152" height="4.205"/>
			
				<rect x="190.602" y="196.274" transform="matrix(0.6837 0.7298 -0.7298 0.6837 205.6197 -79.017)" fill="none" width="6.709" height="2.803"/>
			
				<rect x="174.76" y="180.742" transform="matrix(0.6838 0.7297 -0.7297 0.6838 189.9881 -73.6332)" fill="none" width="10.372" height="3.271"/>
			
				<rect x="164.005" y="167.553" transform="matrix(0.6839 0.7296 -0.7296 0.6839 176.0879 -68.4724)" fill="none" width="6.102" height="2.804"/>
			
				<rect x="182.818" y="213.816" transform="matrix(-0.6836 -0.7298 0.7298 -0.6836 160.4774 500.0031)" fill="none" width="11.594" height="2.803"/>
			
				<rect x="145.841" y="172.926" transform="matrix(-0.6836 -0.7299 0.7299 -0.6836 125.1475 403.8445)" fill="none" width="8.543" height="3.738"/>
			
				<rect x="155.392" y="184.205" transform="matrix(-0.6836 -0.7299 0.7299 -0.6836 134.3608 430.8654)" fill="none" width="10.373" height="4.206"/>
			
				<rect x="169.796" y="200.235" transform="matrix(-0.6836 -0.7299 0.7299 -0.6836 148.9566 467.854)" fill="none" width="12.201" height="2.805"/>
			
				<rect x="205.362" y="220.519" transform="matrix(0.7304 -0.683 0.683 0.7304 -96.8545 202.3908)" fill="none" width="5.138" height="6.714"/>
			<g>
				
					<rect x="175.518" y="179.586" transform="matrix(-0.7304 0.6831 -0.6831 -0.7304 433.1566 198.5545)" fill="#889B9E" enable-background="new    " width="3.739" height="10.374"/>
				<path fill="#FFFFFF" d="M171.426,182.232l8.11,8.657l3.813-3.575l-8.105-8.657L171.426,182.232z M175.174,180.765
					c0.809,0.862,5.263,5.618,6.07,6.48c-0.522,0.491-1.117,1.049-1.641,1.537c-0.81-0.86-5.264-5.617-6.072-6.48
					C174.055,181.811,174.65,181.253,175.174,180.765z"/>
			</g>
			<g>
				
					<rect x="168.426" y="172.018" transform="matrix(-0.73 0.6835 -0.6835 -0.73 415.7226 190.1615)" fill="#889B9E" enable-background="new    " width="3.741" height="10.372"/>
				<path fill="#FFFFFF" d="M164.338,174.663l8.104,8.655l3.819-3.573l-8.111-8.655L164.338,174.663z M168.083,173.195
					c0.809,0.86,5.265,5.616,6.073,6.479c-0.524,0.491-1.119,1.048-1.643,1.54c-0.811-0.863-5.263-5.619-6.072-6.484
					C166.964,174.239,167.56,173.684,168.083,173.195z"/>
			</g>
			<g>
				
					<rect x="162.799" y="168.142" transform="matrix(-0.7296 0.6839 -0.6839 -0.7296 401.8829 183.4834)" fill="#889B9E" enable-background="new    " width="3.737" height="6.101"/>
				<path fill="#FFFFFF" d="M160.166,170.211l5.188,5.538l3.814-3.572l-5.188-5.542L160.166,170.211z M163.91,168.742
					c0.678,0.72,2.479,2.644,3.154,3.363c-0.524,0.491-1.117,1.048-1.641,1.538c-0.676-0.721-2.477-2.646-3.153-3.365
					C162.793,169.787,163.387,169.229,163.91,168.742z"/>
			</g>
			<g>
				
					<rect x="157.794" y="161.58" transform="matrix(-0.7295 0.684 -0.684 -0.7295 389.5762 177.6191)" fill="#889B9E" enable-background="new    " width="3.739" height="8.54"/>
				<path fill="#FFFFFF" d="M154.326,163.975l6.858,7.323l3.812-3.576l-6.854-7.319L154.326,163.975z M158.073,162.506
					c0.767,0.82,4.053,4.328,4.82,5.147c-0.522,0.489-1.118,1.046-1.642,1.538c-0.767-0.82-4.055-4.328-4.82-5.148
					C156.954,163.554,157.55,162.998,158.073,162.506z"/>
			</g>
			<g>
				
					<rect x="151.953" y="155.344" transform="matrix(-0.7301 0.6833 -0.6833 -0.7301 375.2003 171.0367)" fill="#889B9E" enable-background="new    " width="3.739" height="8.542"/>
				<path fill="#FFFFFF" d="M148.487,157.742l6.856,7.32l3.816-3.574l-6.857-7.319L148.487,157.742z M152.234,156.272
					c0.768,0.819,4.054,4.329,4.822,5.147c-0.524,0.492-1.119,1.047-1.643,1.539c-0.768-0.82-4.055-4.33-4.822-5.148
					C151.117,157.318,151.71,156.764,152.234,156.272z"/>
			</g>
			<g>
				
					<rect x="195.953" y="200.796" transform="matrix(-0.7298 0.6836 -0.6836 -0.7298 483.4352 222.1287)" fill="#889B9E" enable-background="new    " width="3.743" height="11.593"/>
				<path fill="#FFFFFF" d="M191.447,203.605l8.941,9.547l3.816-3.575l-8.944-9.544L191.447,203.605z M195.192,202.136
					c0.829,0.887,6.077,6.487,6.91,7.375c-0.526,0.488-1.12,1.046-1.646,1.537c-0.83-0.885-6.078-6.488-6.907-7.373
					C194.073,203.182,194.67,202.626,195.192,202.136z"/>
			</g>
			<g>
				
					<rect x="183.235" y="186.913" transform="matrix(-0.7295 0.684 -0.684 -0.7295 452.1581 207.1904)" fill="#889B9E" enable-background="new    " width="3.74" height="12.201"/>
				<path fill="#FFFFFF" d="M178.517,189.799l9.36,9.993l3.814-3.572l-9.359-9.991L178.517,189.799z M182.264,188.336
					c0.84,0.895,6.484,6.92,7.324,7.814c-0.523,0.493-1.12,1.049-1.644,1.54c-0.839-0.896-6.483-6.923-7.323-7.82
					C181.146,189.38,181.74,188.824,182.264,188.336z"/>
			</g>
			<g>
				
					<rect x="189.701" y="196.558" transform="matrix(-0.7297 0.6837 -0.6837 -0.7297 468.0515 214.8095)" fill="#889B9E" enable-background="new    " width="3.738" height="6.71"/>
				<path fill="#FFFFFF" d="M186.857,198.709l5.605,5.984l3.814-3.574l-5.604-5.987L186.857,198.709z M190.604,197.238
					c0.707,0.752,2.866,3.06,3.57,3.812c-0.523,0.49-1.117,1.049-1.641,1.536c-0.705-0.751-2.865-3.056-3.57-3.811
					C189.488,198.285,190.08,197.728,190.604,197.238z"/>
			</g>
			<g>
				
					<rect x="203.463" y="209.422" transform="matrix(-0.7292 0.6843 -0.6843 -0.7292 501.9183 230.5899)" fill="#889B9E" enable-background="new    " width="3.74" height="10.369"/>
				<path fill="#FFFFFF" d="M199.373,212.064l8.104,8.657l3.815-3.573l-8.106-8.656L199.373,212.064z M203.119,210.594
					c0.808,0.866,5.26,5.62,6.068,6.483c-0.523,0.494-1.115,1.049-1.639,1.542c-0.811-0.865-5.266-5.62-6.076-6.485
					C202,211.643,202.593,211.087,203.119,210.594z"/>
			</g>
			<g>
				
					<rect x="126.999" y="132.367" transform="matrix(0.6838 0.7297 -0.7297 0.6838 139.0763 -52.4488)" fill="#889B9E" enable-background="new    " width="6.103" height="3.736"/>
				<path fill="#FFFFFF" d="M125.55,133.253l5.187,5.537l3.816-3.573l-5.189-5.539L125.55,133.253z M129.295,131.783
					c0.675,0.721,2.478,2.645,3.151,3.367c-0.524,0.488-1.118,1.046-1.642,1.537c-0.676-0.724-2.475-2.645-3.152-3.367
					C128.178,132.83,128.771,132.273,129.295,131.783z"/>
			</g>
			<g>
				
					<rect x="133.187" y="135.309" transform="matrix(-0.7293 0.6841 -0.6841 -0.7293 329.0499 148.9831)" fill="#889B9E" enable-background="new    " width="3.737" height="8.54"/>
				<path fill="#FFFFFF" d="M129.717,137.704l6.859,7.319l3.814-3.57l-6.855-7.322L129.717,137.704z M133.465,136.236
					c0.767,0.818,4.055,4.327,4.82,5.147c-0.523,0.489-1.117,1.046-1.64,1.537c-0.768-0.819-4.055-4.329-4.821-5.148
					C132.348,137.283,132.941,136.725,133.465,136.236z"/>
			</g>
			<g>
				
					<rect x="145.907" y="148.585" transform="matrix(-0.73 0.6835 -0.6835 -0.73 360.3297 163.9609)" fill="#889B9E" enable-background="new    " width="3.738" height="9.149"/>
				<path fill="#FFFFFF" d="M142.23,151.063l7.277,7.764l3.813-3.572l-7.273-7.765L142.23,151.063z M145.979,149.594
					c0.782,0.836,4.455,4.756,5.238,5.592c-0.523,0.49-1.119,1.047-1.641,1.539c-0.784-0.836-4.457-4.758-5.24-5.593
					C144.859,150.642,145.453,150.084,145.979,149.594z"/>
			</g>
			<g>
				
					<rect x="139.442" y="141.374" transform="matrix(-0.7304 0.6831 -0.6831 -0.7304 344.4203 156.5521)" fill="#889B9E" enable-background="new    " width="3.737" height="9.765"/>
				<path fill="#FFFFFF" d="M135.558,143.938l7.69,8.212l3.817-3.573l-7.692-8.211L135.558,143.938z M139.305,142.47
					c0.797,0.851,4.859,5.187,5.656,6.038c-0.523,0.488-1.119,1.046-1.643,1.537c-0.797-0.851-4.859-5.187-5.656-6.039
					C138.186,143.517,138.781,142.961,139.305,142.47z"/>
			</g>
			<g>
				
					<rect x="155.913" y="174.372" transform="matrix(0.7295 -0.684 0.684 0.7295 -78.6095 156.0742)" fill="#889B9E" enable-background="new    " width="4.206" height="6.098"/>
				<path fill="#FFFFFF" d="M153.344,176.599l5.19,5.539l4.155-3.895l-5.189-5.538L153.344,176.599z M157.431,174.812
					c0.675,0.72,2.479,2.643,3.155,3.365c-0.579,0.542-1.406,1.315-1.984,1.854c-0.676-0.719-2.477-2.64-3.154-3.361
					C156.026,176.128,156.854,175.352,157.431,174.812z"/>
			</g>
			<g>
				
					<rect x="168.635" y="185.817" transform="matrix(0.7296 -0.6839 0.6839 0.7296 -84.4546 168.4066)" fill="#889B9E" enable-background="new    " width="4.205" height="10.373"/>
				<path fill="#FFFFFF" d="M164.606,188.621l8.108,8.659l4.155-3.894l-8.109-8.661L164.606,188.621z M168.692,186.833
					c0.808,0.866,5.265,5.618,6.073,6.48c-0.578,0.544-1.404,1.32-1.982,1.86c-0.81-0.863-5.264-5.621-6.073-6.481
					C167.287,188.149,168.115,187.374,168.692,186.833z"/>
			</g>
			<g>
				
					<rect x="161.544" y="178.245" transform="matrix(0.7298 -0.6836 0.6836 0.7298 -81.1866 161.433)" fill="#889B9E" enable-background="new    " width="4.207" height="10.374"/>
				<path fill="#FFFFFF" d="M157.516,181.052l8.107,8.657l4.155-3.895l-8.106-8.654L157.516,181.052z M161.604,179.262
					c0.81,0.866,5.263,5.62,6.07,6.483c-0.578,0.543-1.404,1.316-1.981,1.856c-0.81-0.862-5.264-5.617-6.074-6.48
					C160.197,180.578,161.025,179.803,161.604,179.262z"/>
			</g>
			<g>
				
					<rect x="150.908" y="167.808" transform="matrix(0.7297 -0.6838 0.6838 0.7297 -76.3027 151.1338)" fill="#889B9E" enable-background="new    " width="4.208" height="8.542"/>
				<path fill="#FFFFFF" d="M147.506,170.364l6.855,7.323l4.156-3.896l-6.856-7.316L147.506,170.364z M151.594,168.575
					c0.767,0.821,4.053,4.327,4.819,5.148c-0.579,0.543-1.405,1.316-1.983,1.857c-0.766-0.818-4.052-4.329-4.819-5.146
					C150.188,169.895,151.016,169.118,151.594,168.575z"/>
			</g>
			<g>
				
					<rect x="145.069" y="161.574" transform="matrix(0.7302 -0.6833 0.6833 0.7302 -73.605 145.3116)" fill="#889B9E" enable-background="new    " width="4.208" height="8.543"/>
				<path fill="#FFFFFF" d="M141.664,164.131l6.86,7.32l4.155-3.893l-6.855-7.319L141.664,164.131z M145.755,162.344
					c0.767,0.818,4.054,4.328,4.819,5.147c-0.577,0.54-1.404,1.316-1.982,1.854c-0.767-0.818-4.055-4.326-4.822-5.146
					C144.348,163.66,145.176,162.885,145.755,162.344z"/>
			</g>
			<g>
				
					<rect x="139.021" y="154.814" transform="matrix(0.7296 -0.6839 0.6839 0.7296 -70.8412 139.6067)" fill="#889B9E" enable-background="new    " width="4.205" height="9.149"/>
				<path fill="#FFFFFF" d="M135.411,157.453l7.272,7.766l4.158-3.895l-7.275-7.766L135.411,157.453z M139.498,155.662
					c0.783,0.836,4.454,4.758,5.238,5.596c-0.578,0.541-1.406,1.316-1.984,1.856c-0.781-0.837-4.456-4.757-5.239-5.593
					C138.092,156.98,138.92,156.205,139.498,155.662z"/>
			</g>
			<g>
				
					<rect x="121.297" y="137.413" transform="matrix(0.7298 -0.6836 0.6836 0.7298 -62.6861 122.3101)" fill="#889B9E" enable-background="new    " width="4.207" height="6.101"/>
				<path fill="#FFFFFF" d="M118.726,139.641l5.191,5.539l4.155-3.893l-5.188-5.538L118.726,139.641z M122.814,137.854
					c0.676,0.721,2.477,2.645,3.152,3.365c-0.578,0.542-1.404,1.316-1.981,1.857c-0.676-0.721-2.477-2.645-3.153-3.365
					C121.409,139.168,122.237,138.395,122.814,137.854z"/>
			</g>
			<g>
				
					<rect x="176.35" y="193.14" transform="matrix(0.7297 -0.6838 0.6838 0.7297 -87.9978 175.8716)" fill="#889B9E" enable-background="new    " width="4.208" height="12.201"/>
				<path fill="#FFFFFF" d="M171.695,196.189l9.359,9.994l4.156-3.895l-9.36-9.991L171.695,196.189z M175.783,194.402
					c0.84,0.895,6.485,6.922,7.323,7.819c-0.577,0.543-1.406,1.317-1.983,1.854c-0.84-0.895-6.482-6.919-7.322-7.814
					C174.379,195.72,175.205,194.945,175.783,194.402z"/>
			</g>
			<g>
				
					<rect x="193.495" y="218.731" transform="matrix(-0.6836 -0.7299 0.7299 -0.6836 173.3051 516.8057)" fill="#889B9E" enable-background="new    " width="10.37" height="4.21"/>
				<path fill="#FFFFFF" d="M192.549,218.456l8.107,8.654l4.158-3.893l-8.108-8.657L192.549,218.456z M196.638,216.666
					c0.81,0.862,5.263,5.617,6.071,6.482c-0.576,0.543-1.405,1.319-1.984,1.857c-0.809-0.863-5.262-5.618-6.07-6.483
					C195.23,217.982,196.058,217.206,196.638,216.666z"/>
			</g>
			<g>
				
					<rect x="132.558" y="147.606" transform="matrix(0.7303 -0.6831 0.6831 0.7303 -67.851 133.1214)" fill="#889B9E" enable-background="new    " width="4.206" height="9.765"/>
				<path fill="#FFFFFF" d="M128.734,150.329l7.693,8.21l4.156-3.893l-7.691-8.211L128.734,150.329z M132.826,148.54
					c0.795,0.849,4.857,5.187,5.654,6.036c-0.58,0.541-1.406,1.316-1.984,1.858c-0.797-0.851-4.858-5.187-5.656-6.038
					C131.418,149.855,132.246,149.08,132.826,148.54z"/>
			</g>
			<g>
				
					<rect x="126.302" y="141.539" transform="matrix(0.73 -0.6835 0.6835 0.73 -64.9844 127.1372)" fill="#889B9E" enable-background="new    " width="4.203" height="8.539"/>
				<path fill="#FFFFFF" d="M122.899,144.094l6.854,7.321l4.159-3.895l-6.859-7.319L122.899,144.094z M126.983,142.305
					c0.769,0.82,4.055,4.328,4.822,5.148c-0.577,0.541-1.404,1.316-1.981,1.857c-0.77-0.82-4.055-4.328-4.822-5.148
					C125.58,143.621,126.408,142.846,126.983,142.305z"/>
			</g>
			<g>
				
					<rect x="182.815" y="202.788" transform="matrix(0.7298 -0.6836 0.6836 0.7298 -90.9657 182.1068)" fill="#889B9E" enable-background="new    " width="4.206" height="6.71"/>
				<path fill="#FFFFFF" d="M180.037,205.098l5.605,5.984l4.159-3.892l-5.61-5.987L180.037,205.098z M184.125,203.308
					c0.703,0.754,2.865,3.06,3.569,3.811c-0.577,0.543-1.405,1.317-1.983,1.86c-0.703-0.752-2.865-3.061-3.568-3.811
					C182.72,204.622,183.547,203.848,184.125,203.308z"/>
			</g>
			<g>
				
					<rect x="189.071" y="207.026" transform="matrix(0.7303 -0.6832 0.6832 0.7303 -93.826 188.0049)" fill="#889B9E" enable-background="new    " width="4.207" height="11.593"/>
				<path fill="#FFFFFF" d="M184.623,209.994l8.945,9.548l4.156-3.896l-8.943-9.544L184.623,209.994z M188.715,208.206
					c0.828,0.886,6.074,6.486,6.902,7.371c-0.576,0.543-1.402,1.319-1.982,1.859c-0.828-0.885-6.074-6.485-6.904-7.373
					C187.308,209.523,188.135,208.749,188.715,208.206z"/>
			</g>
			<g>
				<polygon fill="#889B9E" enable-background="new    " points="200.422,212.102 196.672,215.612 203.761,223.181 207.514,219.671 
									"/>
				<path fill="#FFFFFF" d="M195.617,215.577l8.109,8.657l4.838-4.531l-8.107-8.655L195.617,215.577z M200.389,213.152
					c0.807,0.863,5.261,5.618,6.072,6.483c-0.662,0.618-2.004,1.877-2.663,2.494c-0.811-0.865-5.267-5.618-6.073-6.483
					C198.385,215.029,199.729,213.77,200.389,213.152z"/>
			</g>
			<g>
				
					<rect x="135.5" y="144.412" transform="matrix(0.7299 -0.6836 0.6836 0.7299 -64.7564 134.7036)" fill="#889B9E" enable-background="new    " width="5.142" height="9.76"/>
				<path fill="#FFFFFF" d="M131.806,147.453l7.692,8.209l4.836-4.53l-7.688-8.211L131.806,147.453z M136.576,145.023
					c0.797,0.854,4.859,5.189,5.656,6.04c-0.661,0.616-2.006,1.877-2.666,2.495c-0.797-0.852-4.859-5.188-5.656-6.038
					C134.572,146.903,135.916,145.645,136.576,145.023z"/>
			</g>
			<g>
				
					<rect x="179.294" y="189.945" transform="matrix(0.7296 -0.6838 0.6838 0.7296 -84.8939 177.3703)" fill="#889B9E" enable-background="new    " width="5.14" height="12.201"/>
				<path fill="#FFFFFF" d="M174.766,193.313l9.359,9.994l4.838-4.532l-9.359-9.993L174.766,193.313z M179.536,190.89
					c0.838,0.895,6.482,6.922,7.321,7.819c-0.659,0.617-2.004,1.875-2.666,2.494c-0.838-0.895-6.482-6.922-7.321-7.816
					C177.531,192.767,178.875,191.507,179.536,190.89z"/>
			</g>
			<g>
				
					<rect x="185.76" y="199.593" transform="matrix(0.7302 -0.6833 0.6833 0.7302 -87.8511 183.4362)" fill="#889B9E" enable-background="new    " width="5.14" height="6.713"/>
				<path fill="#FFFFFF" d="M183.106,202.222l5.608,5.984l4.835-4.531l-5.605-5.984L183.106,202.222z M187.877,199.792
					c0.703,0.756,2.865,3.062,3.57,3.813c-0.66,0.617-2.007,1.879-2.666,2.497c-0.705-0.752-2.865-3.063-3.57-3.813
					C185.871,201.671,187.216,200.415,187.877,199.792z"/>
			</g>
			<g>
				
					<rect x="123.76" y="134.699" transform="matrix(0.6834 0.73 -0.73 0.6834 140.3529 -49.1181)" fill="#889B9E" enable-background="new    " width="6.1" height="5.141"/>
				<path fill="#FFFFFF" d="M121.797,136.768l5.187,5.537l4.84-4.532l-5.187-5.54L121.797,136.768z M126.567,134.339
					c0.675,0.722,2.476,2.645,3.151,3.365c-0.66,0.619-2.005,1.879-2.666,2.497c-0.674-0.721-2.477-2.644-3.15-3.365
					C124.563,136.217,125.906,134.957,126.567,134.339z"/>
			</g>
			<g>
				
					<rect x="171.579" y="182.622" transform="matrix(0.7299 -0.6835 0.6835 0.7299 -81.34 169.7603)" fill="#889B9E" enable-background="new    " width="5.138" height="10.374"/>
				<path fill="#FFFFFF" d="M167.672,185.745l8.111,8.657l4.838-4.532l-8.107-8.656L167.672,185.745z M172.443,183.318
					c0.809,0.864,5.266,5.617,6.073,6.48c-0.659,0.622-2.005,1.882-2.666,2.499c-0.808-0.862-5.263-5.621-6.072-6.483
					C170.439,185.194,171.783,183.936,172.443,183.318z"/>
			</g>
			<g>
				
					<rect x="188.79" y="207.06" transform="matrix(-0.6837 -0.7297 0.7297 -0.6837 174.6546 494.9531)" fill="#889B9E" enable-background="new    " width="11.589" height="5.137"/>
				<path fill="#FFFFFF" d="M187.694,207.118l8.943,9.548l4.835-4.532l-8.939-9.548L187.694,207.118z M192.463,204.693
					c0.832,0.886,6.076,6.486,6.91,7.371c-0.662,0.619-2.01,1.879-2.667,2.496c-0.831-0.885-6.075-6.485-6.904-7.37
					C190.461,206.57,191.803,205.312,192.463,204.693z"/>
			</g>
			<g>
				
					<rect x="129.244" y="138.343" transform="matrix(0.7295 -0.6839 0.6839 0.7295 -61.8883 128.7266)" fill="#889B9E" enable-background="new    " width="5.142" height="8.541"/>
				<path fill="#FFFFFF" d="M125.967,141.219l6.859,7.321l4.836-4.534l-6.857-7.318L125.967,141.219z M130.737,138.79
					c0.767,0.821,4.053,4.329,4.82,5.147c-0.659,0.619-2.005,1.879-2.665,2.498c-0.768-0.82-4.053-4.328-4.82-5.148
					C128.73,140.67,130.076,139.409,130.737,138.79z"/>
			</g>
			<g>
				
					<rect x="148.013" y="158.379" transform="matrix(0.7296 -0.6838 0.6838 0.7296 -70.5134 146.9499)" fill="#889B9E" enable-background="new    " width="5.14" height="8.54"/>
				<path fill="#FFFFFF" d="M144.736,161.258l6.857,7.32l4.836-4.535l-6.854-7.318L144.736,161.258z M149.508,158.827
					c0.766,0.821,4.051,4.33,4.818,5.147c-0.658,0.617-2.004,1.879-2.665,2.498c-0.767-0.818-4.053-4.328-4.82-5.148
					C147.502,160.707,148.846,159.447,149.508,158.827z"/>
			</g>
			<g>
				
					<rect x="141.965" y="151.617" transform="matrix(0.7298 -0.6837 0.6837 0.7298 -67.7291 141.0162)" fill="#889B9E" enable-background="new    " width="5.142" height="9.152"/>
				<path fill="#FFFFFF" d="M138.48,154.576l7.274,7.768l4.837-4.533l-7.273-7.766L138.48,154.576z M143.248,152.149
					c0.783,0.836,4.458,4.757,5.239,5.593c-0.659,0.617-2.005,1.877-2.665,2.497c-0.781-0.838-4.455-4.757-5.238-5.593
					C141.244,154.027,142.589,152.767,143.248,152.149z"/>
			</g>
			<g>
				
					<rect x="164.488" y="175.052" transform="matrix(0.7302 -0.6832 0.6832 0.7302 -78.073 162.7717)" fill="#889B9E" enable-background="new    " width="5.138" height="10.373"/>
				<path fill="#FFFFFF" d="M160.586,178.177l8.106,8.656l4.837-4.531l-8.105-8.658L160.586,178.177z M165.354,175.749
					c0.811,0.865,5.264,5.618,6.074,6.483c-0.662,0.62-2.008,1.876-2.667,2.493c-0.809-0.861-5.262-5.617-6.071-6.482
					C163.35,177.626,164.693,176.368,165.354,175.749z"/>
			</g>
			<g>
				
					<rect x="153.852" y="164.613" transform="matrix(0.7298 -0.6836 0.6836 0.7298 -73.1938 152.5663)" fill="#889B9E" enable-background="new    " width="5.14" height="8.541"/>
				<path fill="#FFFFFF" d="M150.574,167.491l6.856,7.32l4.84-4.533l-6.856-7.319L150.574,167.491z M155.344,165.063
					c0.768,0.82,4.055,4.328,4.822,5.146c-0.66,0.621-2.005,1.878-2.666,2.497c-0.766-0.818-4.053-4.326-4.82-5.146
					C153.339,166.94,154.684,165.681,155.344,165.063z"/>
			</g>
			<g>
				<polygon fill="#889B9E" enable-background="new    " points="161.219,170.245 157.465,173.758 161.637,178.208 165.389,174.697 
									"/>
				<path fill="#FFFFFF" d="M156.413,173.724l5.19,5.538l4.838-4.532l-5.188-5.538L156.413,173.724z M161.185,171.298
					c0.675,0.72,2.477,2.642,3.153,3.365c-0.662,0.617-2.007,1.874-2.666,2.497c-0.676-0.724-2.478-2.646-3.154-3.369
					C159.178,173.173,160.523,171.914,161.185,171.298z"/>
			</g>
		</g>
		<g>
			<path fill="#889B9E" enable-background="new    " d="M113.351,115.725c-0.688-0.738-0.651-1.897,0.089-2.587l0,0
				c0.738-0.69,1.898-0.651,2.586,0.088l95.813,102.523c0.689,0.736,0.651,1.897-0.088,2.586l0,0
				c-0.74,0.691-1.898,0.652-2.588-0.087L113.351,115.725z"/>
			<path fill="#FFFFFF" d="M112.93,112.595c-0.503,0.468-0.791,1.106-0.814,1.794c-0.022,0.687,0.225,1.341,0.693,1.846v-0.002
				l95.811,102.524c0.965,1.034,2.602,1.091,3.64,0.124c1.037-0.974,1.091-2.605,0.124-3.643L116.57,112.717
				c-0.469-0.502-1.106-0.791-1.795-0.815C114.088,111.879,113.433,112.125,112.93,112.595z M209.705,217.739l-95.809-102.524
				c-0.199-0.21-0.303-0.486-0.295-0.776c0.012-0.29,0.133-0.558,0.346-0.756s0.488-0.301,0.777-0.293
				c0.291,0.008,0.559,0.132,0.758,0.344l95.81,102.522c0.409,0.437,0.387,1.126-0.052,1.535
				C210.805,218.2,210.115,218.176,209.705,217.739z"/>
		</g>
	</g>
	<g>
		<g>
			
				<rect x="80.731" y="140.006" transform="matrix(-0.7299 0.6835 -0.6835 -0.7299 245.3981 187.7276)" fill="none" width="9.763" height="4.675"/>
			
				<rect x="67.664" y="152.646" transform="matrix(-0.7297 0.6838 -0.6838 -0.7297 230.0818 218.0696)" fill="none" width="8.542" height="3.739"/>
			
				<rect x="76.52" y="122.407" transform="matrix(0.7299 -0.6835 0.6835 0.7299 -62.8066 88.6574)" fill="none" width="8.541" height="2.802"/>
			
				<rect x="62.155" y="133.915" transform="matrix(0.7299 -0.6836 0.6836 0.7299 -74.9531 82.3558)" fill="none" width="9.152" height="4.206"/>
			
				<rect x="27.962" y="190.518" transform="matrix(-0.73 0.6834 -0.6834 -0.73 185.3434 310.6192)" fill="none" width="6.71" height="2.804"/>
			
				<rect x="41.432" y="176.271" transform="matrix(-0.7299 0.6835 -0.6835 -0.7299 202.2474 275.9055)" fill="none" width="10.371" height="3.273"/>
			
				<rect x="56.99" y="163.615" transform="matrix(-0.7299 0.6836 -0.6836 -0.7299 216.6635 244.4155)" fill="none" width="6.099" height="2.804"/>
			
				<rect x="7.981" y="185.176" transform="matrix(0.7298 -0.6836 0.6836 0.7298 -123.8319 59.8305)" fill="none" width="11.593" height="2.804"/>
			
				<rect x="49.93" y="146.207" transform="matrix(0.73 -0.6835 0.6835 0.73 -86.5695 77.0251)" fill="none" width="8.54" height="3.74"/>
			
				<rect x="37.501" y="156.437" transform="matrix(0.7299 -0.6836 0.6836 0.7299 -96.843 72.0026)" fill="none" width="10.372" height="4.208"/>
			
				<rect x="21.257" y="172.456" transform="matrix(0.7299 -0.6836 0.6836 0.7299 -111.4534 65.6614)" fill="none" width="12.203" height="2.805"/>
			
				<rect x="2.548" y="202.539" transform="matrix(0.6835 0.7299 -0.7299 0.6835 151.9023 61.4194)" fill="none" width="5.14" height="6.709"/>
			<g>
				
					<rect x="42.353" y="170.165" transform="matrix(-0.6837 -0.7297 0.7297 -0.6837 -53.504 327.5144)" fill="#889B9E" enable-background="new    " width="3.736" height="10.373"/>
				<path fill="#FFFFFF" d="M38.105,177.497l3.574,3.817l8.656-8.108l-3.574-3.815L38.105,177.497z M46.695,171.495
					c0.488,0.522,1.045,1.118,1.535,1.641c-0.863,0.809-5.619,5.264-6.482,6.071c-0.491-0.522-1.047-1.117-1.537-1.641
					C41.074,176.758,45.831,172.303,46.695,171.495z"/>
			</g>
			<g>
				
					<rect x="49.921" y="163.076" transform="matrix(-0.6837 -0.7297 0.7297 -0.6837 -35.5838 321.0997)" fill="#889B9E" enable-background="new    " width="3.738" height="10.37"/>
				<path fill="#FFFFFF" d="M45.675,170.407l3.575,3.814l8.655-8.107l-3.574-3.815L45.675,170.407z M54.263,164.403
					c0.489,0.525,1.046,1.118,1.538,1.642c-0.865,0.811-5.619,5.266-6.482,6.07c-0.49-0.522-1.047-1.114-1.538-1.637
					C48.645,169.666,53.399,165.214,54.263,164.403z"/>
			</g>
			<g>
				
					<rect x="55.933" y="159.579" transform="matrix(-0.6835 -0.73 0.73 -0.6835 -21.4088 315.9776)" fill="#889B9E" enable-background="new    " width="3.738" height="6.103"/>
				<path fill="#FFFFFF" d="M53.243,163.317l3.575,3.813l5.539-5.188l-3.572-3.814L53.243,163.317z M58.717,160.234
					c0.489,0.523,1.046,1.115,1.535,1.641c-0.721,0.676-2.644,2.477-3.365,3.154c-0.49-0.526-1.047-1.12-1.537-1.645
					C56.071,162.711,57.995,160.908,58.717,160.234z"/>
			</g>
			<g>
				
					<rect x="61.274" y="153.356" transform="matrix(-0.6842 -0.7293 0.7293 -0.6842 -8.6174 311.5201)" fill="#889B9E" enable-background="new    " width="3.74" height="8.541"/>
				<path fill="#FFFFFF" d="M57.697,159.146l3.574,3.815l7.319-6.856l-3.572-3.815L57.697,159.146z M64.949,154.394
					c0.49,0.524,1.047,1.118,1.539,1.643c-0.82,0.767-4.33,4.054-5.148,4.82c-0.49-0.522-1.047-1.118-1.537-1.641
					C60.622,158.448,64.129,155.162,64.949,154.394z"/>
			</g>
			<g>
				
					<rect x="67.51" y="147.515" transform="matrix(-0.6836 -0.7298 0.7298 -0.6836 6.0265 306.1848)" fill="#889B9E" enable-background="new    " width="3.738" height="8.542"/>
				<path fill="#FFFFFF" d="M63.933,153.309l3.573,3.814l7.32-6.857l-3.574-3.814L63.933,153.309z M71.184,148.555
					c0.489,0.523,1.047,1.118,1.538,1.642c-0.819,0.769-4.329,4.055-5.147,4.821c-0.492-0.522-1.047-1.117-1.539-1.643
					C66.855,152.609,70.365,149.323,71.184,148.555z"/>
			</g>
			<g>
				
					<rect x="20.533" y="189.993" transform="matrix(-0.6839 -0.7296 0.7296 -0.6839 -105.1242 346.0288)" fill="#889B9E" enable-background="new    " width="3.738" height="11.591"/>
				<path fill="#FFFFFF" d="M15.842,198.354l3.575,3.813l9.546-8.943l-3.572-3.815L15.842,198.354z M25.32,191.515
					c0.489,0.522,1.047,1.118,1.538,1.644c-0.888,0.828-6.487,6.073-7.374,6.904c-0.489-0.523-1.046-1.118-1.537-1.642
					C18.832,197.591,24.433,192.345,25.32,191.515z"/>
			</g>
			<g>
				
					<rect x="34.114" y="176.966" transform="matrix(-0.6832 -0.7302 0.7302 -0.6832 -73.1138 334.4155)" fill="#889B9E" enable-background="new    " width="3.738" height="12.203"/>
				<path fill="#FFFFFF" d="M29.201,185.84l3.572,3.815l9.992-9.362l-3.574-3.813L29.201,185.84z M39.123,178.585
					c0.49,0.523,1.047,1.116,1.541,1.642c-0.9,0.84-6.925,6.482-7.822,7.323c-0.49-0.523-1.047-1.117-1.536-1.644
					C32.201,185.071,38.229,179.424,39.123,178.585z"/>
			</g>
			<g>
				
					<rect x="27.211" y="186.177" transform="matrix(-0.6836 -0.7298 0.7298 -0.6836 -89.3673 340.3243)" fill="#889B9E" enable-background="new    " width="3.74" height="6.71"/>
				<path fill="#FFFFFF" d="M24.302,190.426l3.573,3.816l5.984-5.606l-3.572-3.815L24.302,190.426z M30.219,186.926
					c0.49,0.522,1.047,1.117,1.537,1.643c-0.752,0.702-3.061,2.867-3.811,3.568c-0.492-0.523-1.048-1.116-1.539-1.639
					C27.159,189.791,29.467,187.63,30.219,186.926z"/>
			</g>
			<g>
				
					<rect x="12.518" y="198.11" transform="matrix(-0.6837 -0.7297 0.7297 -0.6837 -124.1239 352.798)" fill="#889B9E" enable-background="new    " width="3.739" height="10.372"/>
				<path fill="#FFFFFF" d="M8.272,205.442l3.575,3.815l8.654-8.106l-3.574-3.818L8.272,205.442z M16.861,199.44
					c0.488,0.522,1.047,1.118,1.536,1.642c-0.864,0.808-5.618,5.263-6.482,6.07c-0.49-0.522-1.047-1.117-1.536-1.641
					C11.241,204.704,15.996,200.248,16.861,199.44z"/>
			</g>
			<g>
				
					<rect x="91.71" y="126.144" transform="matrix(-0.7299 0.6835 -0.6835 -0.7299 251.4263 156.6864)" fill="#889B9E" enable-background="new    " width="6.099" height="3.739"/>
				<path fill="#FFFFFF" d="M90.203,128.7l3.573,3.813l5.54-5.188l-3.574-3.813L90.203,128.7z M95.673,125.615
					c0.492,0.525,1.048,1.119,1.54,1.643c-0.723,0.677-2.647,2.477-3.368,3.151c-0.489-0.522-1.046-1.116-1.538-1.641
					C93.029,128.094,94.951,126.293,95.673,125.615z"/>
			</g>
			<g>
				
					<rect x="87.547" y="128.746" transform="matrix(-0.6836 -0.7298 0.7298 -0.6836 53.4601 289.2102)" fill="#889B9E" enable-background="new    " width="3.738" height="8.542"/>
				<path fill="#FFFFFF" d="M83.97,134.539l3.573,3.815l7.322-6.856l-3.574-3.815L83.97,134.539z M91.221,129.786
					c0.49,0.524,1.049,1.118,1.539,1.642c-0.819,0.768-4.329,4.055-5.15,4.822c-0.488-0.523-1.045-1.117-1.536-1.643
					C86.893,133.841,90.402,130.554,91.221,129.786z"/>
			</g>
			<g>
				
					<rect x="73.967" y="141.163" transform="matrix(-0.6839 -0.7296 0.7296 -0.6839 21.3654 300.7359)" fill="#889B9E" enable-background="new    " width="3.737" height="9.152"/>
				<path fill="#FFFFFF" d="M70.166,147.469l3.573,3.814l7.767-7.274l-3.576-3.813L70.166,147.469z M77.863,142.299
					c0.49,0.523,1.047,1.117,1.539,1.642c-0.839,0.782-4.758,4.456-5.595,5.239c-0.489-0.523-1.046-1.119-1.538-1.641
					C73.105,146.755,77.027,143.08,77.863,142.299z"/>
			</g>
			<g>
				
					<rect x="80.869" y="134.394" transform="matrix(-0.6836 -0.7299 0.7299 -0.6836 37.6474 294.8693)" fill="#889B9E" enable-background="new    " width="3.737" height="9.761"/>
				<path fill="#FFFFFF" d="M76.846,141.213l3.574,3.815l8.209-7.692l-3.572-3.813L76.846,141.213z M84.987,135.625
					c0.491,0.525,1.046,1.119,1.536,1.643c-0.85,0.797-5.186,4.857-6.037,5.656c-0.49-0.525-1.047-1.119-1.537-1.643
					C79.8,140.484,84.137,136.423,84.987,135.625z"/>
			</g>
			<g>
				
					<rect x="49.469" y="152.929" transform="matrix(0.6836 0.7298 -0.7298 0.6836 130.1559 11.7096)" fill="#889B9E" enable-background="new    " width="4.206" height="6.102"/>
				<path fill="#FFFFFF" d="M46.854,156.495l3.895,4.157l5.54-5.188l-3.894-4.157L46.854,156.495z M52.326,153.412
					c0.543,0.577,1.316,1.405,1.859,1.982c-0.723,0.676-2.648,2.477-3.368,3.154c-0.54-0.58-1.315-1.406-1.857-1.983
					C49.683,155.889,51.605,154.087,52.326,153.412z"/>
			</g>
			<g>
				
					<rect x="35.889" y="163.514" transform="matrix(0.6837 0.7297 -0.7297 0.6837 135.1203 25.6301)" fill="#889B9E" enable-background="new    " width="4.205" height="10.374"/>
				<path fill="#FFFFFF" d="M31.716,170.675l3.894,4.157l8.656-8.107l-3.893-4.155L31.716,170.675z M40.305,164.674
					c0.542,0.576,1.316,1.404,1.858,1.982c-0.866,0.807-5.622,5.263-6.485,6.07c-0.539-0.577-1.314-1.403-1.857-1.98
					C34.686,169.936,39.439,165.481,40.305,164.674z"/>
			</g>
			<g>
				
					<rect x="43.459" y="156.425" transform="matrix(0.6841 0.7294 -0.7294 0.6841 132.2677 17.8186)" fill="#889B9E" enable-background="new    " width="4.207" height="10.37"/>
				<path fill="#FFFFFF" d="M39.287,163.586l3.893,4.155l8.656-8.106l-3.895-4.155L39.287,163.586z M47.874,157.581
					c0.54,0.578,1.316,1.405,1.856,1.985c-0.864,0.808-5.617,5.264-6.481,6.07c-0.542-0.576-1.316-1.404-1.858-1.982
					C42.254,162.846,47.01,158.393,47.874,157.581z"/>
			</g>
			<g>
				
					<rect x="54.813" y="146.705" transform="matrix(0.6836 0.7298 -0.7298 0.6836 128.1949 6.2271)" fill="#889B9E" enable-background="new    " width="4.204" height="8.541"/>
				<path fill="#FFFFFF" d="M51.309,152.324l3.894,4.158l7.319-6.857l-3.893-4.155L51.309,152.324z M58.561,147.573
					c0.54,0.577,1.315,1.405,1.856,1.983c-0.819,0.768-4.327,4.053-5.146,4.822c-0.542-0.578-1.316-1.407-1.858-1.986
					C54.232,151.627,57.741,148.342,58.561,147.573z"/>
			</g>
			<g>
				
					<rect x="61.046" y="140.866" transform="matrix(0.6836 0.7298 -0.7298 0.6836 125.9017 -0.1726)" fill="#889B9E" enable-background="new    " width="4.208" height="8.542"/>
				<path fill="#FFFFFF" d="M57.543,146.485l3.893,4.157l7.32-6.856l-3.894-4.157L57.543,146.485z M64.794,141.733
					c0.54,0.577,1.315,1.407,1.857,1.984c-0.819,0.766-4.329,4.052-5.148,4.821c-0.542-0.579-1.316-1.406-1.854-1.983
					C60.467,145.788,63.975,142.5,64.794,141.733z"/>
			</g>
			<g>
				
					<rect x="67.503" y="134.513" transform="matrix(0.684 0.7295 -0.7295 0.684 123.4587 -6.8245)" fill="#889B9E" enable-background="new    " width="4.208" height="9.15"/>
				<path fill="#FFFFFF" d="M63.776,140.647l3.894,4.156l7.766-7.274l-3.895-4.156L63.776,140.647z M71.474,135.477
					c0.54,0.58,1.316,1.406,1.857,1.985c-0.835,0.782-4.757,4.453-5.593,5.237c-0.542-0.578-1.316-1.406-1.858-1.984
					C66.717,139.934,70.637,136.26,71.474,135.477z"/>
			</g>
			<g>
				
					<rect x="86.426" y="118.312" transform="matrix(0.6838 0.7297 -0.7297 0.6838 116.5573 -26.2211)" fill="#889B9E" enable-background="new    " width="4.208" height="6.102"/>
				<path fill="#FFFFFF" d="M83.814,121.879l3.893,4.156l5.539-5.189l-3.895-4.154L83.814,121.879z M89.283,118.795
					c0.543,0.577,1.316,1.405,1.858,1.982c-0.721,0.675-2.646,2.479-3.366,3.153c-0.541-0.579-1.316-1.405-1.858-1.983
					C86.64,121.272,88.563,119.472,89.283,118.795z"/>
			</g>
			<g>
				
					<rect x="27.651" y="170.316" transform="matrix(0.684 0.7295 -0.7295 0.684 138.0977 34.0447)" fill="#889B9E" enable-background="new    " width="4.206" height="12.201"/>
				<path fill="#FFFFFF" d="M22.809,179.017l3.896,4.157l9.993-9.358l-3.895-4.157L22.809,179.017z M32.734,171.763
					c0.541,0.578,1.315,1.406,1.857,1.983c-0.896,0.838-6.922,6.485-7.819,7.323c-0.54-0.578-1.315-1.405-1.858-1.981
					C25.81,178.248,31.838,172.602,32.734,171.763z"/>
			</g>
			<g>
				
					<rect x="2.972" y="194.541" transform="matrix(0.7299 -0.6835 0.6835 0.7299 -132.2072 58.6835)" fill="#889B9E" enable-background="new    " width="10.373" height="4.208"/>
				<path fill="#FFFFFF" d="M1.882,198.619l3.894,4.158l8.656-8.106l-3.894-4.159L1.882,198.619z M10.471,192.617
					c0.541,0.578,1.316,1.406,1.859,1.983c-0.865,0.811-5.621,5.264-6.486,6.071c-0.539-0.577-1.314-1.405-1.857-1.983
					C4.852,197.878,9.605,193.424,10.471,192.617z"/>
			</g>
			<g>
				
					<rect x="74.403" y="127.742" transform="matrix(0.6833 0.7302 -0.7302 0.6833 121.068 -13.8567)" fill="#889B9E" enable-background="new    " width="4.208" height="9.763"/>
				<path fill="#FFFFFF" d="M70.455,134.391l3.895,4.155l8.209-7.689l-3.893-4.155L70.455,134.391z M78.598,128.803
					c0.541,0.579,1.316,1.407,1.856,1.986c-0.851,0.795-5.187,4.857-6.037,5.654c-0.54-0.577-1.316-1.406-1.857-1.982
					C73.41,133.662,77.747,129.602,78.598,128.803z"/>
			</g>
			<g>
				
					<rect x="81.083" y="122.096" transform="matrix(0.6837 0.7297 -0.7297 0.6837 118.5209 -20.7381)" fill="#889B9E" enable-background="new    " width="4.205" height="8.54"/>
				<path fill="#FFFFFF" d="M77.581,127.717l3.892,4.158l7.32-6.857l-3.894-4.157L77.581,127.717z M84.831,122.965
					c0.542,0.579,1.316,1.406,1.858,1.984c-0.82,0.768-4.328,4.053-5.146,4.82c-0.543-0.577-1.318-1.405-1.859-1.982
					C80.504,127.02,84.014,123.732,84.831,122.965z"/>
			</g>
			<g>
				
					<rect x="20.75" y="179.525" transform="matrix(0.684 0.7295 -0.7295 0.684 140.6341 41.1248)" fill="#889B9E" enable-background="new    " width="4.203" height="6.71"/>
				<path fill="#FFFFFF" d="M17.914,183.605l3.891,4.157l5.984-5.607L23.897,178L17.914,183.605z M23.828,180.107
					c0.542,0.575,1.316,1.4,1.858,1.979c-0.753,0.704-3.06,2.869-3.813,3.572c-0.541-0.578-1.315-1.406-1.856-1.986
					C20.77,182.971,23.076,180.812,23.828,180.107z"/>
			</g>
			<g>
				
					<rect x="14.07" y="183.341" transform="matrix(0.6836 0.7298 -0.7298 0.6836 143.1551 48.0348)" fill="#889B9E" enable-background="new    " width="4.206" height="11.591"/>
				<path fill="#FFFFFF" d="M9.452,191.529l3.894,4.159l9.547-8.942L19,182.586L9.452,191.529z M18.93,184.693
					c0.543,0.575,1.317,1.406,1.857,1.981c-0.885,0.831-6.486,6.079-7.371,6.907c-0.543-0.575-1.318-1.405-1.859-1.983
					C12.441,190.771,18.045,185.522,18.93,184.693z"/>
			</g>
			<g>
				
					<rect x="8.783" y="194.87" transform="matrix(0.6835 0.7299 -0.7299 0.6835 149.6155 55.0232)" fill="#889B9E" enable-background="new    " width="5.139" height="10.372"/>
				<path fill="#FFFFFF" d="M4.758,201.688l4.531,4.843l8.658-8.11l-4.531-4.839L4.758,201.688z M13.346,195.688
					c0.619,0.66,1.879,2.004,2.496,2.666c-0.864,0.808-5.619,5.261-6.483,6.071c-0.618-0.661-1.877-2.006-2.495-2.668
					C7.727,200.95,12.482,196.498,13.346,195.688z"/>
			</g>
			<g>
				
					<rect x="77.133" y="131.155" transform="matrix(0.6838 0.7296 -0.7296 0.6838 124.4525 -15.1458)" fill="#889B9E" enable-background="new    " width="5.141" height="9.759"/>
				<path fill="#FFFFFF" d="M73.331,137.462l4.532,4.837l8.21-7.691l-4.53-4.838L73.331,137.462z M81.473,131.875
					c0.617,0.659,1.879,2.004,2.497,2.664c-0.852,0.798-5.188,4.859-6.04,5.656c-0.615-0.661-1.877-2.006-2.494-2.666
					C76.285,136.732,80.623,132.672,81.473,131.875z"/>
			</g>
			<g>
				
					<rect x="30.377" y="173.726" transform="matrix(0.6834 0.7301 -0.7301 0.6834 141.7213 32.8856)" fill="#889B9E" enable-background="new    " width="5.142" height="12.201"/>
				<path fill="#FFFFFF" d="M25.687,182.086l4.532,4.84l9.992-9.359l-4.533-4.84L25.687,182.086z M35.609,174.832
					c0.619,0.662,1.877,2.005,2.496,2.665c-0.896,0.841-6.924,6.483-7.818,7.323c-0.617-0.659-1.877-2.004-2.498-2.665
					C28.688,181.32,34.713,175.672,35.609,174.832z"/>
			</g>
			<g>
				
					<rect x="23.475" y="182.935" transform="matrix(0.6836 0.7299 -0.7299 0.6836 144.215 39.9383)" fill="#889B9E" enable-background="new    " width="5.143" height="6.712"/>
				<path fill="#FFFFFF" d="M20.787,186.675l4.533,4.84l5.985-5.608l-4.533-4.837L20.787,186.675z M26.704,183.174
					c0.618,0.659,1.88,2.004,2.497,2.666c-0.752,0.701-3.062,2.865-3.811,3.569c-0.62-0.662-1.879-2.003-2.498-2.663
					C23.643,186.041,25.953,183.878,26.704,183.174z"/>
			</g>
			<g>
				
					<rect x="88.677" y="122.203" transform="matrix(-0.7299 0.6835 -0.6835 -0.7299 243.9629 153.1549)" fill="#889B9E" enable-background="new    " width="6.098" height="5.139"/>
				<path fill="#FFFFFF" d="M86.689,124.949l4.531,4.837l5.537-5.189l-4.53-4.837L86.689,124.949z M92.158,121.863
					c0.62,0.661,1.878,2.006,2.497,2.666c-0.722,0.676-2.645,2.477-3.364,3.153c-0.619-0.66-1.879-2.006-2.498-2.665
					C89.514,124.342,91.438,122.541,92.158,121.863z"/>
			</g>
			<g>
				
					<rect x="38.616" y="166.925" transform="matrix(0.6834 0.73 -0.73 0.6834 138.6783 24.4163)" fill="#889B9E" enable-background="new    " width="5.14" height="10.373"/>
				<path fill="#FFFFFF" d="M34.592,173.746l4.531,4.839l8.657-8.106l-4.531-4.842L34.592,173.746z M43.18,167.741
					c0.618,0.661,1.878,2.007,2.495,2.666c-0.863,0.811-5.618,5.263-6.483,6.073c-0.617-0.66-1.877-2.006-2.494-2.665
					C37.561,173.007,42.314,168.552,43.18,167.741z"/>
			</g>
			<g>
				
					<rect x="13.57" y="189.978" transform="matrix(0.7297 -0.6838 0.6838 0.7297 -126.4251 65.2902)" fill="#889B9E" enable-background="new    " width="11.593" height="5.139"/>
				<path fill="#FFFFFF" d="M12.33,194.601l4.531,4.84l9.545-8.942l-4.532-4.84L12.33,194.601z M21.806,187.763
					c0.618,0.66,1.879,2.007,2.496,2.663c-0.885,0.833-6.487,6.079-7.374,6.907c-0.617-0.659-1.876-2.003-2.496-2.662
					C15.32,193.84,20.918,188.594,21.806,187.763z"/>
			</g>
			<g>
				
					<rect x="83.811" y="125.506" transform="matrix(0.6839 0.7295 -0.7295 0.6839 121.9788 -22.0008)" fill="#889B9E" enable-background="new    " width="5.14" height="8.542"/>
				<path fill="#FFFFFF" d="M80.454,130.789l4.533,4.836l7.319-6.856l-4.531-4.838L80.454,130.789z M87.707,126.035
					c0.617,0.658,1.878,2.004,2.496,2.665c-0.819,0.768-4.328,4.054-5.146,4.822c-0.619-0.661-1.879-2.007-2.498-2.666
					C83.378,130.088,86.887,126.803,87.707,126.035z"/>
			</g>
			<g>
				
					<rect x="63.773" y="144.276" transform="matrix(0.6834 0.73 -0.73 0.6834 129.4402 -1.4077)" fill="#889B9E" enable-background="new    " width="5.14" height="8.542"/>
				<path fill="#FFFFFF" d="M60.417,149.557l4.532,4.837l7.32-6.854l-4.531-4.84L60.417,149.557z M67.67,144.804
					c0.617,0.659,1.877,2.005,2.496,2.665c-0.82,0.766-4.329,4.055-5.147,4.82c-0.62-0.659-1.878-2.004-2.497-2.664
					C63.342,148.857,66.852,145.569,67.67,144.804z"/>
			</g>
			<g>
				
					<rect x="70.232" y="137.923" transform="matrix(0.6835 0.7299 -0.7299 0.6835 127.0492 -8.0443)" fill="#889B9E" enable-background="new    " width="5.14" height="9.152"/>
				<path fill="#FFFFFF" d="M66.651,143.718l4.532,4.837l7.766-7.273l-4.532-4.838L66.651,143.718z M74.35,138.546
					c0.618,0.661,1.876,2.007,2.496,2.667c-0.837,0.781-4.758,4.456-5.594,5.238c-0.617-0.66-1.877-2.005-2.496-2.665
					C69.592,143.002,73.513,139.33,74.35,138.546z"/>
			</g>
			<g>
				
					<rect x="46.186" y="159.835" transform="matrix(0.6833 0.7301 -0.7301 0.6833 135.9192 16.6579)" fill="#889B9E" enable-background="new    " width="5.139" height="10.372"/>
				<path fill="#FFFFFF" d="M42.163,166.656l4.532,4.839l8.654-8.11l-4.532-4.836L42.163,166.656z M50.748,160.652
					c0.62,0.662,1.878,2.005,2.497,2.665c-0.865,0.81-5.619,5.263-6.483,6.073c-0.617-0.662-1.875-2.007-2.496-2.666
					C45.131,165.914,49.885,161.463,50.748,160.652z"/>
			</g>
			<g>
				
					<rect x="57.54" y="150.115" transform="matrix(0.6838 0.7297 -0.7297 0.6838 131.6674 4.9608)" fill="#889B9E" enable-background="new    " width="5.142" height="8.541"/>
				<path fill="#FFFFFF" d="M54.186,155.395l4.531,4.84l7.318-6.859l-4.532-4.836L54.186,155.395z M61.436,150.643
					c0.617,0.66,1.877,2.005,2.497,2.666c-0.82,0.766-4.329,4.054-5.147,4.82c-0.619-0.66-1.877-2.006-2.497-2.664
					C57.107,154.697,60.615,151.41,61.436,150.643z"/>
			</g>
			<g>
				
					<rect x="52.197" y="156.341" transform="matrix(0.6833 0.7301 -0.7301 0.6833 133.7122 10.4868)" fill="#889B9E" enable-background="new    " width="5.139" height="6.099"/>
				<path fill="#FFFFFF" d="M49.732,159.566l4.53,4.837l5.54-5.188l-4.532-4.837L49.732,159.566z M55.202,156.48
					c0.617,0.66,1.877,2.006,2.495,2.665c-0.721,0.677-2.644,2.479-3.366,3.153c-0.617-0.66-1.877-2.004-2.495-2.664
					C52.559,158.959,54.481,157.157,55.202,156.48z"/>
			</g>
		</g>
		<g>
			<path fill="#889B9E" enable-background="new    " d="M113.269,111.313c0.739-0.688,1.898-0.651,2.587,0.089l0,0
				c0.691,0.739,0.652,1.896-0.086,2.587L13.246,209.799c-0.738,0.691-1.896,0.651-2.586-0.087l0,0
				c-0.691-0.736-0.652-1.895,0.086-2.586L113.269,111.313z"/>
			<path fill="#FFFFFF" d="M112.76,110.77L10.24,206.58c-1.038,0.972-1.093,2.604-0.123,3.64c0.469,0.504,1.106,0.791,1.793,0.816
				c0.688,0.024,1.342-0.225,1.846-0.692l102.521-95.811c0.501-0.468,0.793-1.106,0.816-1.794c0.022-0.688-0.223-1.343-0.694-1.844
				c-0.469-0.502-1.104-0.792-1.792-0.815C113.918,110.056,113.263,110.301,112.76,110.77z M114.556,111.567
				c0.29,0.009,0.559,0.132,0.755,0.343c0.201,0.213,0.303,0.49,0.292,0.78c-0.009,0.289-0.131,0.557-0.342,0.755l-102.522,95.81
				c-0.212,0.198-0.488,0.304-0.777,0.293c-0.289-0.013-0.559-0.134-0.757-0.345s-0.302-0.486-0.293-0.775
				c0.011-0.293,0.133-0.563,0.345-0.76l102.521-95.809l0,0C113.988,111.661,114.266,111.558,114.556,111.567z"/>
		</g>
	</g>
	<g>
		<g>
			
				<rect x="79.287" y="82.094" transform="matrix(-0.6835 -0.7299 0.7299 -0.6835 80.0694 203.5782)" fill="none" width="9.759" height="4.676"/>
			
				<rect x="67.722" y="68.885" transform="matrix(-0.6837 -0.7297 0.7297 -0.6837 69.5851 171.666)" fill="none" width="8.543" height="3.738"/>
			
				<rect x="98.429" y="78.208" transform="matrix(0.6834 0.73 -0.73 0.6834 90.628 -49.7704)" fill="none" width="8.542" height="2.804"/>
			
				<rect x="85.915" y="63.447" transform="matrix(0.6837 0.7298 -0.7298 0.6837 76.4606 -45.3043)" fill="none" width="9.152" height="4.204"/>
			
				<rect x="31.235" y="28.733" transform="matrix(-0.6836 -0.7299 0.7299 -0.6836 36.2406 75.983)" fill="none" width="6.71" height="2.806"/>
			
				<rect x="43.414" y="43.801" transform="matrix(-0.6837 -0.7298 0.7298 -0.6837 48.6701 111.9677)" fill="none" width="10.371" height="3.271"/>
			
				<rect x="58.441" y="57.454" transform="matrix(-0.6835 -0.7299 0.7299 -0.6835 60.5594 143.9716)" fill="none" width="6.101" height="2.806"/>
			
				<rect x="34.134" y="11.193" transform="matrix(0.6836 0.7299 -0.7299 0.6836 21.8289 -25.1588)" fill="none" width="11.591" height="2.804"/>
			
				<rect x="74.163" y="51.149" transform="matrix(0.6836 0.7299 -0.7299 0.6836 63.5159 -40.4704)" fill="none" width="8.54" height="3.74"/>
			
				<rect x="62.783" y="39.402" transform="matrix(0.6837 0.7298 -0.7298 0.6837 51.7854 -36.4731)" fill="none" width="10.372" height="4.205"/>
			
				<rect x="46.549" y="24.775" transform="matrix(0.6836 0.7298 -0.7298 0.6836 35.7612 -30.1441)" fill="none" width="12.203" height="2.805"/>
			
				<rect x="18.045" y="0.581" transform="matrix(-0.7301 0.6834 -0.6834 -0.7301 38.3559 -7.2754)" fill="none" width="5.14" height="6.712"/>
			<g>
				
					<rect x="49.289" y="37.855" transform="matrix(0.7299 -0.6836 0.6836 0.7299 -15.6024 46.5986)" fill="#889B9E" enable-background="new    " width="3.737" height="10.372"/>
				<path fill="#FFFFFF" d="M45.195,40.499l8.109,8.656l3.814-3.574l-8.108-8.656L45.195,40.499z M48.942,39.029
					c0.81,0.864,5.264,5.62,6.072,6.484c-0.524,0.49-1.118,1.048-1.642,1.538c-0.811-0.864-5.264-5.618-6.073-6.482
					C47.824,40.078,48.418,39.52,48.942,39.029z"/>
			</g>
			<g>
				
					<rect x="56.379" y="45.423" transform="matrix(0.7298 -0.6836 0.6836 0.7298 -18.8607 53.4924)" fill="#889B9E" enable-background="new    " width="3.74" height="10.371"/>
				<path fill="#FFFFFF" d="M52.287,48.068l8.107,8.655l3.814-3.572l-8.108-8.656L52.287,48.068z M56.033,46.598
					c0.809,0.866,5.262,5.621,6.072,6.485c-0.524,0.49-1.117,1.046-1.643,1.538c-0.809-0.864-5.264-5.619-6.072-6.483
					C54.914,47.646,55.509,47.09,56.033,46.598z"/>
			</g>
			<g>
				
					<rect x="62.009" y="53.57" transform="matrix(0.7298 -0.6837 0.6837 0.7298 -21.4493 58.9709)" fill="#889B9E" enable-background="new    " width="3.737" height="6.101"/>
				<path fill="#FFFFFF" d="M59.376,55.637l5.19,5.541l3.813-3.575l-5.187-5.538L59.376,55.637z M63.123,54.169
					c0.676,0.722,2.478,2.645,3.154,3.365c-0.525,0.492-1.12,1.049-1.643,1.539c-0.676-0.722-2.477-2.645-3.154-3.366
					C62.006,55.215,62.599,54.659,63.123,54.169z"/>
			</g>
			<g>
				
					<rect x="67.014" y="57.693" transform="matrix(0.7297 -0.6837 0.6837 0.7297 -23.7501 63.8454)" fill="#889B9E" enable-background="new    " width="3.738" height="8.543"/>
				<path fill="#FFFFFF" d="M63.547,60.089l6.857,7.321l3.814-3.574l-6.856-7.322L63.547,60.089z M67.294,58.62
					c0.767,0.82,4.054,4.33,4.821,5.148c-0.523,0.489-1.117,1.048-1.643,1.538c-0.766-0.82-4.055-4.328-4.82-5.148
					C66.176,59.668,66.771,59.113,67.294,58.62z"/>
			</g>
			<g>
				
					<rect x="72.852" y="63.927" transform="matrix(0.7295 -0.684 0.684 0.7295 -26.4335 69.561)" fill="#889B9E" enable-background="new    " width="3.739" height="8.541"/>
				<path fill="#FFFFFF" d="M69.389,66.325l6.855,7.319l3.813-3.574l-6.855-7.318L69.389,66.325z M73.133,64.855
					c0.767,0.82,4.055,4.33,4.821,5.148c-0.523,0.49-1.118,1.047-1.642,1.537c-0.768-0.818-4.055-4.327-4.822-5.147
					C72.015,65.902,72.61,65.347,73.133,64.855z"/>
			</g>
			<g>
				
					<rect x="28.852" y="15.425" transform="matrix(0.7297 -0.6837 0.6837 0.7297 -6.2064 26.7413)" fill="#889B9E" enable-background="new    " width="3.739" height="11.592"/>
				<path fill="#FFFFFF" d="M24.342,18.236l8.941,9.544l3.816-3.572l-8.942-9.548L24.342,18.236z M28.089,16.765
					c0.831,0.888,6.077,6.487,6.905,7.375c-0.523,0.49-1.117,1.046-1.641,1.538c-0.83-0.886-6.075-6.487-6.907-7.375
					C26.971,17.813,27.564,17.257,28.089,16.765z"/>
			</g>
			<g>
				
					<rect x="41.574" y="28.701" transform="matrix(0.7298 -0.6837 0.6837 0.7298 -12.0544 39.1041)" fill="#889B9E" enable-background="new    " width="3.737" height="12.202"/>
				<path fill="#FFFFFF" d="M36.854,31.593l9.36,9.994l3.813-3.576l-9.358-9.992L36.854,31.593z M40.603,30.124
					c0.839,0.898,6.483,6.923,7.322,7.82c-0.524,0.49-1.118,1.047-1.644,1.539c-0.839-0.897-6.483-6.925-7.322-7.822
					C39.482,31.172,40.078,30.614,40.603,30.124z"/>
			</g>
			<g>
				
					<rect x="35.109" y="24.545" transform="matrix(0.73 -0.6835 0.6835 0.73 -9.0837 32.8079)" fill="#889B9E" enable-background="new    " width="3.739" height="6.711"/>
				<path fill="#FFFFFF" d="M32.266,26.694l5.607,5.985l3.815-3.574l-5.607-5.984L32.266,26.694z M36.014,25.226
					c0.703,0.751,2.864,3.06,3.57,3.813c-0.525,0.49-1.12,1.046-1.645,1.537c-0.702-0.75-2.863-3.059-3.568-3.812
					C34.895,26.273,35.489,25.717,36.014,25.226z"/>
			</g>
			<g>
				
					<rect x="21.344" y="8.02" transform="matrix(0.7297 -0.6837 0.6837 0.7297 -2.7555 19.4412)" fill="#889B9E" enable-background="new    " width="3.738" height="10.372"/>
				<path fill="#FFFFFF" d="M17.253,10.664l8.108,8.659l3.813-3.575l-8.107-8.656L17.253,10.664z M20.998,9.196
					c0.81,0.864,5.264,5.619,6.073,6.483c-0.523,0.491-1.118,1.047-1.644,1.538c-0.809-0.863-5.262-5.619-6.07-6.482
					C19.88,10.243,20.475,9.687,20.998,9.196z"/>
			</g>
			<g>
				
					<rect x="95.447" y="91.711" transform="matrix(-0.6838 -0.7297 0.7297 -0.6838 97.5591 229.4388)" fill="#889B9E" enable-background="new    " width="6.1" height="3.737"/>
				<path fill="#FFFFFF" d="M93.994,92.594l5.188,5.54l3.815-3.574l-5.188-5.538L93.994,92.594z M97.74,91.128
					c0.676,0.72,2.477,2.644,3.154,3.365c-0.525,0.49-1.12,1.046-1.645,1.538c-0.674-0.722-2.476-2.646-3.15-3.367
					C96.623,92.174,97.216,91.617,97.74,91.128z"/>
			</g>
			<g>
				
					<rect x="91.623" y="83.966" transform="matrix(0.7299 -0.6835 0.6835 0.7299 -35.0622 87.7355)" fill="#889B9E" enable-background="new    " width="3.737" height="8.541"/>
				<path fill="#FFFFFF" d="M88.155,86.361l6.856,7.321l3.816-3.574l-6.859-7.319L88.155,86.361z M91.9,84.893
					c0.768,0.819,4.055,4.328,4.822,5.148c-0.523,0.49-1.119,1.046-1.643,1.537c-0.766-0.819-4.053-4.327-4.82-5.148
					C90.783,85.94,91.377,85.384,91.9,84.893z"/>
			</g>
			<g>
				
					<rect x="78.901" y="70.077" transform="matrix(0.7297 -0.6837 0.6837 0.7297 -29.2129 75.4043)" fill="#889B9E" enable-background="new    " width="3.739" height="9.151"/>
				<path fill="#FFFFFF" d="M75.227,72.559l7.274,7.764l3.813-3.573l-7.274-7.765L75.227,72.559z M78.972,71.089
					c0.783,0.835,4.456,4.757,5.239,5.594c-0.523,0.49-1.119,1.045-1.642,1.538c-0.784-0.837-4.456-4.756-5.24-5.593
					C77.854,72.138,78.449,71.581,78.972,71.089z"/>
			</g>
			<g>
				
					<rect x="85.368" y="76.674" transform="matrix(0.7298 -0.6837 0.6837 0.7298 -32.1859 81.6744)" fill="#889B9E" enable-background="new    " width="3.735" height="9.764"/>
				<path fill="#FFFFFF" d="M81.481,79.238l7.692,8.211l3.814-3.572l-7.691-8.212L81.481,79.238z M85.229,77.769
					c0.797,0.851,4.857,5.188,5.656,6.039c-0.525,0.489-1.119,1.047-1.643,1.537c-0.797-0.852-4.858-5.187-5.656-6.038
					C84.111,78.814,84.703,78.258,85.229,77.769z"/>
			</g>
			<g>
				
					<rect x="68.427" y="47.34" transform="matrix(-0.73 0.6834 -0.6834 -0.73 156.4551 38.9737)" fill="#889B9E" enable-background="new    " width="4.205" height="6.102"/>
				<path fill="#FFFFFF" d="M65.857,49.568l5.188,5.538l4.157-3.893l-5.189-5.54L65.857,49.568z M69.944,47.779
					c0.676,0.722,2.478,2.646,3.153,3.368c-0.578,0.54-1.405,1.314-1.982,1.856c-0.677-0.722-2.479-2.647-3.154-3.367
					C68.539,49.095,69.367,48.321,69.944,47.779z"/>
			</g>
			<g>
				
					<rect x="55.707" y="31.623" transform="matrix(-0.7297 0.6837 -0.6837 -0.7297 125.1625 24.1429)" fill="#889B9E" enable-background="new    " width="4.205" height="10.373"/>
				<path fill="#FFFFFF" d="M51.676,34.429l8.109,8.655l4.155-3.894l-8.108-8.657L51.676,34.429z M55.764,32.64
					c0.81,0.864,5.264,5.619,6.072,6.485c-0.577,0.541-1.404,1.315-1.982,1.856c-0.809-0.864-5.266-5.62-6.073-6.484
					C54.359,33.956,55.186,33.18,55.764,32.64z"/>
			</g>
			<g>
				
					<rect x="62.797" y="39.194" transform="matrix(-0.7297 0.6838 -0.6838 -0.7297 142.6015 32.3841)" fill="#889B9E" enable-background="new    " width="4.205" height="10.372"/>
				<path fill="#FFFFFF" d="M58.768,41.999l8.107,8.656l4.154-3.893l-8.107-8.656L58.768,41.999z M62.854,40.21
					c0.81,0.864,5.263,5.619,6.073,6.483c-0.578,0.54-1.406,1.313-1.984,1.856c-0.81-0.865-5.264-5.617-6.071-6.483
					C61.449,41.526,62.275,40.751,62.854,40.21z"/>
			</g>
			<g>
				
					<rect x="73.432" y="51.465" transform="matrix(-0.7297 0.6837 -0.6837 -0.7297 168.7612 44.7594)" fill="#889B9E" enable-background="new    " width="4.205" height="8.54"/>
				<path fill="#FFFFFF" d="M70.029,54.021l6.855,7.319l4.154-3.893l-6.855-7.319L70.029,54.021z M74.116,52.232
					c0.767,0.821,4.054,4.328,4.821,5.146c-0.578,0.541-1.407,1.316-1.984,1.858c-0.768-0.819-4.053-4.329-4.822-5.148
					C72.711,53.547,73.537,52.772,74.116,52.232z"/>
			</g>
			<g>
				
					<rect x="79.269" y="57.696" transform="matrix(-0.7299 0.6835 -0.6835 -0.7299 183.1256 51.5816)" fill="#889B9E" enable-background="new    " width="4.208" height="8.544"/>
				<path fill="#FFFFFF" d="M75.865,60.254l6.858,7.32l4.157-3.894l-6.858-7.32L75.865,60.254z M79.954,58.466
					c0.767,0.819,4.056,4.327,4.822,5.146c-0.579,0.543-1.407,1.318-1.985,1.859c-0.767-0.819-4.053-4.328-4.82-5.148
					C78.549,59.781,79.376,59.006,79.954,58.466z"/>
			</g>
			<g>
				
					<rect x="85.319" y="63.85" transform="matrix(-0.7295 0.684 -0.684 -0.7295 197.9985 58.5453)" fill="#889B9E" enable-background="new    " width="4.206" height="9.15"/>
				<path fill="#FFFFFF" d="M81.705,66.488l7.273,7.768l4.158-3.895l-7.274-7.766L81.705,66.488z M85.793,64.7
					c0.783,0.836,4.457,4.756,5.238,5.593c-0.578,0.541-1.404,1.316-1.983,1.858c-0.782-0.836-4.454-4.758-5.238-5.593
					C84.389,66.016,85.217,65.24,85.793,64.7z"/>
			</g>
			<g>
				
					<rect x="103.044" y="84.298" transform="matrix(-0.7297 0.6837 -0.6837 -0.7297 241.5993 79.1949)" fill="#889B9E" enable-background="new    " width="4.206" height="6.101"/>
				<path fill="#FFFFFF" d="M100.475,86.525l5.188,5.541l4.155-3.895l-5.188-5.539L100.475,86.525z M104.563,84.737
					c0.675,0.723,2.476,2.646,3.152,3.368c-0.576,0.541-1.406,1.314-1.984,1.855c-0.674-0.72-2.477-2.644-3.152-3.366
					C103.158,86.053,103.984,85.28,104.563,84.737z"/>
			</g>
			<g>
				
					<rect x="47.988" y="22.473" transform="matrix(-0.7296 0.6839 -0.6839 -0.7296 106.1802 15.1635)" fill="#889B9E" enable-background="new    " width="4.208" height="12.201"/>
				<path fill="#FFFFFF" d="M43.334,25.522l9.36,9.996l4.157-3.895l-9.359-9.993L43.334,25.522z M47.422,23.734
					c0.84,0.895,6.485,6.922,7.324,7.819c-0.577,0.541-1.404,1.316-1.982,1.857c-0.84-0.896-6.485-6.922-7.324-7.819
					C46.017,25.051,46.845,24.276,47.422,23.734z"/>
			</g>
			<g>
				
					<rect x="24.679" y="4.873" transform="matrix(0.6835 0.7299 -0.7299 0.6835 14.5448 -19.5914)" fill="#889B9E" enable-background="new    " width="10.373" height="4.208"/>
				<path fill="#FFFFFF" d="M23.732,4.595l8.107,8.656l4.156-3.895l-8.107-8.655L23.732,4.595z M27.82,2.807
					c0.81,0.864,5.263,5.619,6.073,6.483c-0.579,0.541-1.407,1.315-1.984,1.858c-0.809-0.866-5.264-5.621-6.071-6.485
					C26.415,4.123,27.244,3.347,27.82,2.807z"/>
			</g>
			<g>
				
					<rect x="91.782" y="70.445" transform="matrix(-0.7298 0.6836 -0.6836 -0.7298 213.9015 66.1179)" fill="#889B9E" enable-background="new    " width="4.207" height="9.762"/>
				<path fill="#FFFFFF" d="M87.962,73.167l7.691,8.211l4.157-3.894l-7.693-8.211L87.962,73.167z M92.049,71.378
					c0.798,0.852,4.858,5.187,5.656,6.038c-0.576,0.541-1.405,1.317-1.985,1.857c-0.796-0.85-4.856-5.187-5.653-6.037
					C90.644,72.696,91.473,71.92,92.049,71.378z"/>
			</g>
			<g>
				
					<rect x="98.038" y="77.734" transform="matrix(-0.7301 0.6834 -0.6834 -0.7301 229.2914 73.4362)" fill="#889B9E" enable-background="new    " width="4.207" height="8.541"/>
				<path fill="#FFFFFF" d="M94.635,80.292l6.857,7.321l4.157-3.894l-6.858-7.32L94.635,80.292z M98.723,78.503
					c0.768,0.82,4.055,4.328,4.822,5.146c-0.579,0.543-1.405,1.318-1.982,1.856c-0.77-0.818-4.055-4.327-4.822-5.144
					C97.317,79.82,98.146,79.044,98.723,78.503z"/>
			</g>
			<g>
				
					<rect x="41.525" y="18.316" transform="matrix(-0.7298 0.6836 -0.6836 -0.7298 90.2842 7.6628)" fill="#889B9E" enable-background="new    " width="4.206" height="6.711"/>
				<path fill="#FFFFFF" d="M38.747,20.625l5.606,5.984l4.154-3.892l-5.605-5.985L38.747,20.625z M42.835,18.835
					c0.702,0.754,2.864,3.061,3.568,3.813c-0.575,0.54-1.404,1.315-1.981,1.856c-0.705-0.75-2.867-3.06-3.57-3.812
					C41.43,20.152,42.256,19.378,42.835,18.835z"/>
			</g>
			<g>
				
					<rect x="35.269" y="9.196" transform="matrix(-0.7299 0.6835 -0.6835 -0.7299 74.8987 0.3911)" fill="#889B9E" enable-background="new    " width="4.206" height="11.592"/>
				<path fill="#FFFFFF" d="M30.823,12.165l8.94,9.547l4.157-3.893l-8.941-9.546L30.823,12.165z M34.91,10.377
					c0.83,0.885,6.076,6.486,6.906,7.373c-0.577,0.54-1.406,1.315-1.982,1.856c-0.83-0.886-6.076-6.486-6.907-7.373
					C33.506,11.691,34.332,10.917,34.91,10.377z"/>
			</g>
			<g>
				
					<rect x="23.884" y="4.986" transform="matrix(-0.73 0.6835 -0.6835 -0.73 52.7164 -0.4853)" fill="#889B9E" enable-background="new    " width="5.14" height="10.371"/>
				<path fill="#FFFFFF" d="M19.98,8.11l8.108,8.655l4.838-4.531l-8.108-8.656L19.98,8.11z M24.75,5.683
					c0.811,0.863,5.262,5.617,6.072,6.482c-0.66,0.618-2.006,1.878-2.665,2.497c-0.81-0.865-5.264-5.618-6.073-6.484
					C22.744,7.56,24.091,6.301,24.75,5.683z"/>
			</g>
			<g>
				
					<rect x="87.906" y="73.643" transform="matrix(-0.7296 0.6838 -0.6838 -0.7296 210.1871 73.9428)" fill="#889B9E" enable-background="new    " width="5.141" height="9.76"/>
				<path fill="#FFFFFF" d="M84.211,76.683l7.689,8.21l4.84-4.531l-7.692-8.211L84.211,76.683z M88.979,74.254
					c0.799,0.852,4.858,5.187,5.656,6.038c-0.66,0.618-2.006,1.879-2.666,2.497c-0.797-0.853-4.857-5.188-5.654-6.039
					C86.975,76.134,88.319,74.873,88.979,74.254z"/>
			</g>
			<g>
				
					<rect x="44.111" y="25.667" transform="matrix(-0.7299 0.6836 -0.6836 -0.7299 102.4692 23.0427)" fill="#889B9E" enable-background="new    " width="5.141" height="12.202"/>
				<path fill="#FFFFFF" d="M39.584,29.038l9.358,9.991l4.838-4.532l-9.358-9.991L39.584,29.038z M44.354,26.609
					c0.839,0.896,6.482,6.923,7.322,7.82c-0.66,0.618-2.005,1.877-2.665,2.496c-0.839-0.896-6.483-6.923-7.322-7.82
					C42.348,28.487,43.693,27.228,44.354,26.609z"/>
			</g>
			<g>
				
					<rect x="37.648" y="21.51" transform="matrix(-0.7299 0.6835 -0.6835 -0.7299 86.5688 15.5244)" fill="#889B9E" enable-background="new    " width="5.139" height="6.711"/>
				<path fill="#FFFFFF" d="M34.996,24.14l5.606,5.984l4.837-4.532l-5.605-5.985L34.996,24.14z M39.764,21.711
					c0.705,0.751,2.866,3.061,3.57,3.811c-0.659,0.62-2.004,1.879-2.664,2.497c-0.705-0.751-2.865-3.059-3.57-3.81
					C37.759,23.589,39.105,22.331,39.764,21.711z"/>
			</g>
			<g>
				
					<rect x="98.686" y="87.975" transform="matrix(-0.6837 -0.7298 0.7298 -0.6837 105.2136 226.6936)" fill="#889B9E" enable-background="new    " width="6.101" height="5.14"/>
				<path fill="#FFFFFF" d="M96.723,90.041l5.189,5.538l4.838-4.531l-5.188-5.542L96.723,90.041z M101.492,87.613
					c0.676,0.721,2.479,2.644,3.154,3.365c-0.662,0.62-2.006,1.878-2.666,2.498c-0.678-0.722-2.479-2.647-3.153-3.367
					C99.487,89.491,100.833,88.23,101.492,87.613z"/>
			</g>
			<g>
				
					<rect x="51.828" y="34.819" transform="matrix(-0.7299 0.6835 -0.6835 -0.7299 121.4494 32.0206)" fill="#889B9E" enable-background="new    " width="5.14" height="10.372"/>
				<path fill="#FFFFFF" d="M47.925,37.943l8.108,8.654l4.839-4.531l-8.108-8.656L47.925,37.943z M52.694,35.516
					c0.808,0.863,5.263,5.618,6.073,6.483c-0.66,0.618-2.006,1.877-2.667,2.497c-0.808-0.864-5.263-5.619-6.072-6.484
					C50.689,37.394,52.033,36.133,52.694,35.516z"/>
			</g>
			<g>
				
					<rect x="28.165" y="15.616" transform="matrix(0.6836 0.7299 -0.7299 0.6836 24.0194 -19.0328)" fill="#889B9E" enable-background="new    " width="11.592" height="5.14"/>
				<path fill="#FFFFFF" d="M27.071,15.679l8.942,9.547l4.838-4.532l-8.942-9.546L27.071,15.679z M31.84,13.251
					c0.831,0.887,6.078,6.487,6.907,7.375c-0.659,0.617-2.005,1.877-2.666,2.495c-0.829-0.886-6.075-6.486-6.907-7.373
					C29.836,15.128,31.182,13.87,31.84,13.251z"/>
			</g>
			<g>
				
					<rect x="94.161" y="80.931" transform="matrix(-0.7294 0.684 -0.684 -0.7294 225.5725 81.1817)" fill="#889B9E" enable-background="new    " width="5.141" height="8.54"/>
				<path fill="#FFFFFF" d="M90.885,83.807l6.855,7.321l4.838-4.534l-6.858-7.32L90.885,83.807z M95.653,81.379
					c0.767,0.819,4.053,4.327,4.821,5.146c-0.66,0.619-2.006,1.879-2.666,2.497c-0.767-0.818-4.053-4.327-4.82-5.146
					C93.646,83.257,94.994,81.997,95.653,81.379z"/>
			</g>
			<g>
				
					<rect x="75.393" y="60.891" transform="matrix(-0.73 0.6834 -0.6834 -0.73 179.4098 59.4472)" fill="#889B9E" enable-background="new    " width="5.14" height="8.542"/>
				<path fill="#FFFFFF" d="M72.115,63.769l6.856,7.32l4.838-4.531l-6.856-7.321L72.115,63.769z M76.885,61.34
					c0.766,0.821,4.055,4.329,4.82,5.148c-0.66,0.619-2.005,1.879-2.665,2.497c-0.767-0.821-4.055-4.328-4.821-5.148
					C74.878,63.219,76.223,61.959,76.885,61.34z"/>
			</g>
			<g>
				
					<rect x="81.438" y="67.043" transform="matrix(-0.7302 0.6832 -0.6832 -0.7302 194.2861 66.5217)" fill="#889B9E" enable-background="new    " width="5.142" height="9.153"/>
				<path fill="#FFFFFF" d="M77.954,70.003l7.274,7.766l4.838-4.532l-7.275-7.766L77.954,70.003z M82.724,67.575
					c0.782,0.837,4.456,4.757,5.238,5.593c-0.66,0.62-2.005,1.878-2.665,2.497c-0.783-0.836-4.456-4.757-5.24-5.594
					C80.719,69.453,82.063,68.194,82.724,67.575z"/>
			</g>
			<g>
				
					<rect x="58.917" y="42.389" transform="matrix(-0.73 0.6834 -0.6834 -0.73 138.8897 40.2837)" fill="#889B9E" enable-background="new    " width="5.142" height="10.372"/>
				<path fill="#FFFFFF" d="M55.015,45.513l8.108,8.656l4.838-4.533l-8.107-8.655L55.015,45.513z M59.785,43.084
					c0.809,0.865,5.262,5.621,6.072,6.484c-0.662,0.618-2.005,1.878-2.665,2.497c-0.811-0.866-5.265-5.621-6.073-6.484
					C57.779,44.961,59.126,43.705,59.785,43.084z"/>
			</g>
			<g>
				
					<rect x="69.552" y="54.658" transform="matrix(-0.7299 0.6835 -0.6835 -0.7299 165.0467 52.6462)" fill="#889B9E" enable-background="new    " width="5.141" height="8.541"/>
				<path fill="#FFFFFF" d="M66.277,57.534l6.855,7.321l4.838-4.532l-6.855-7.32L66.277,57.534z M71.045,55.106
					c0.768,0.82,4.055,4.329,4.82,5.148c-0.658,0.619-2.003,1.878-2.664,2.498c-0.768-0.821-4.055-4.332-4.822-5.149
					C69.041,56.984,70.387,55.725,71.045,55.106z"/>
			</g>
			<g>
				
					<rect x="64.548" y="50.536" transform="matrix(-0.7299 0.6835 -0.6835 -0.7299 152.7375 46.824)" fill="#889B9E" enable-background="new    " width="5.141" height="6.1"/>
				<path fill="#FFFFFF" d="M62.105,53.083l5.188,5.538l4.837-4.531l-5.188-5.539L62.105,53.083z M66.875,50.655
					c0.676,0.722,2.478,2.645,3.153,3.366c-0.661,0.617-2.007,1.878-2.666,2.497c-0.677-0.721-2.476-2.646-3.153-3.366
					C64.87,52.533,66.215,51.272,66.875,50.655z"/>
			</g>
		</g>
		<g>
			<path fill="#889B9E" enable-background="new    " d="M115.193,112.087c0.689,0.739,0.652,1.899-0.086,2.589l0,0
				c-0.739,0.689-1.896,0.652-2.588-0.087L16.709,12.065c-0.689-0.739-0.65-1.896,0.088-2.587l0,0
				c0.739-0.689,1.898-0.651,2.588,0.089L115.193,112.087z"/>
			<path fill="#FFFFFF" d="M16.289,8.935c-0.502,0.468-0.792,1.106-0.816,1.792c-0.021,0.688,0.224,1.344,0.693,1.846
				l95.811,102.522c0.969,1.037,2.602,1.093,3.638,0.123c1.037-0.968,1.092-2.601,0.124-3.64L19.928,9.059
				c-0.469-0.501-1.105-0.793-1.793-0.816C17.448,8.219,16.791,8.465,16.289,8.935z M113.064,114.079L17.253,11.557
				c-0.196-0.212-0.302-0.488-0.292-0.779c0.012-0.289,0.133-0.556,0.345-0.755c0.212-0.199,0.487-0.302,0.778-0.293
				c0.289,0.01,0.557,0.132,0.755,0.345l95.812,102.522l0,0c0.408,0.438,0.385,1.126-0.052,1.536
				C114.161,114.541,113.473,114.517,113.064,114.079z"/>
		</g>
	</g>
	<circle fill="#889B9E" cx="114.65" cy="113.625" r="7.93"/>
	<g>
		<circle fill="#889B9E" enable-background="new    " cx="114.648" cy="113.625" r="4.881"/>
		<path fill="#FFFFFF" d="M109.024,113.625c0,3.101,2.523,5.624,5.626,5.624c3.102,0,5.625-2.522,5.625-5.624
			c0-3.101-2.523-5.626-5.625-5.626C111.548,107.999,109.024,110.524,109.024,113.625z M110.513,113.625
			c0-2.282,1.856-4.137,4.138-4.137c2.28,0,4.137,1.855,4.137,4.137c0,2.28-1.856,4.135-4.137,4.135
			C112.369,117.76,110.513,115.904,110.513,113.625z"/>
	</g>
</g>
</svg>
