<?xml version="1.0" encoding="utf-8"?>
<!-- Generator: Adobe Illustrator 16.0.0, SVG Export Plug-In . SVG Version: 6.00 Build 0)  -->
<!DOCTYPE svg PUBLIC "-//W3C//DTD SVG 1.1//EN" "http://www.w3.org/Graphics/SVG/1.1/DTD/svg11.dtd">
<svg version="1.1" id="Capa_1" xmlns="http://www.w3.org/2000/svg" xmlns:xlink="http://www.w3.org/1999/xlink" x="0px" y="0px"
	 width="180px" height="541px" viewBox="0 0 180 541" enable-background="new 0 0 180 541" xml:space="preserve">
<g>
	<g>
		<g>
			<path fill="#9B5C2D" d="M10.997,451.343c0,1.368-1.111,2.484-2.48,2.484l0,0c-1.374,0-2.484-1.116-2.484-2.484v-77.925
				c0-1.369,1.11-2.479,2.484-2.479l0,0c1.37,0,2.48,1.109,2.48,2.479V451.343z"/>
			<path fill="#9B5C2D" d="M12.983,389.551c0,2.602-2.112,4.715-4.715,4.715l0,0c-2.606,0-4.717-2.113-4.717-4.715v-15.386
				c0-2.604,2.111-4.717,4.717-4.717l0,0c2.603,0,4.715,2.112,4.715,4.717V389.551z"/>
			<g>
				<g>
					<path fill="#D8B75B" enable-background="new    " d="M21.42,428.514c-0.871,0-1.719,0.084-2.556,0.204
						c0.988,1.69,1.564,3.654,1.564,5.752c0,6.307-5.111,11.419-11.415,11.419c-1.943,0-3.767-0.486-5.365-1.345
						c-0.065,0.604-0.097,1.216-0.097,1.841v74.345c1.623-0.882,3.485-1.388,5.462-1.388c6.304,0,11.415,5.113,11.415,11.415
						c0,2.885-1.077,5.514-2.84,7.521c1.235,0.272,2.514,0.421,3.833,0.421h4.467V428.514H21.42z"/>
					<path fill="#FFFFFF" d="M21.42,427.766l-3.845,0.308l0.646,1.021c0.957,1.636,1.462,3.495,1.462,5.375
						c0,5.885-4.788,10.674-10.67,10.674c-1.771,0-3.458-0.426-5.015-1.258l-1.034-0.551l-0.159,3.05v75.6l1.1-0.6
						c1.56-0.848,3.325-1.299,5.107-1.299c5.882,0,10.67,4.784,10.67,10.671c0,2.582-0.942,5.081-2.656,7.03l-0.833,0.947
						l1.233,0.271c1.335,0.289,2.679,0.438,3.993,0.438h5.211V427.766H21.42z M21.42,429.259c0,0,2.688,0,3.721,0
						c0,1.457,0,107.24,0,108.697c-1.033,0-3.721,0-3.721,0c-0.816,0-1.65-0.148-2.481-0.273c1.422-2.031,2.232-4.428,2.232-6.926
						c0-6.704-5.454-12.158-12.158-12.158c-1.633,0-3.222,0.412-4.718,1.045c0-2.103,0-73.259,0-73.259s0.021-0.396,0.04-0.783
						c1.487,0.625,3.061,1.03,4.678,1.03c6.705,0,12.158-5.458,12.158-12.162c0-1.77-0.48-3.485-1.232-5.094
						C20.647,429.317,21.42,429.259,21.42,429.259z"/>
				</g>
				<g>
					<path fill="#D8B75B" enable-background="new    " d="M51.2,519.342c1.212,0,2.378,0.188,3.476,0.545v-73.502
						c0-0.545-0.036-1.077-0.082-1.607c-1.484,0.704-3.133,1.111-4.885,1.111c-6.304,0-11.413-5.112-11.413-11.419
						c0-2.068,0.558-4.008,1.522-5.683c-0.981-0.169-1.983-0.273-3.012-0.273h-10.92v110.186h10.92c1.902,0,3.734-0.303,5.453-0.853
						c-1.544-1.949-2.476-4.408-2.476-7.09C39.785,524.455,44.895,519.342,51.2,519.342z"/>
					<path fill="#FFFFFF" d="M25.141,427.766v111.678h11.667c1.925,0,3.837-0.297,5.68-0.888l1.025-0.333l-0.67-0.843
						c-1.514-1.908-2.312-4.199-2.312-6.623c0-5.887,4.786-10.671,10.669-10.671c1.102,0,2.197,0.174,3.249,0.511l0.971,0.307
						v-74.519l-0.139-2.782l-1.005,0.501c-1.454,0.689-2.988,1.04-4.565,1.04c-5.882,0-10.67-4.789-10.67-10.674
						c0-1.859,0.493-3.695,1.425-5.312l0.583-1.006l-4.24-0.387H25.141z M36.808,429.259c0,0,1.091,0.1,1.946,0.174
						c-0.731,1.59-1.203,3.286-1.203,5.037c0,6.704,5.454,12.162,12.159,12.162c1.442,0,2.838-0.326,4.191-0.828
						c0.015,0.269,0.029,0.581,0.029,0.581s0,70.959,0,72.64c-0.901-0.208-1.803-0.426-2.73-0.426
						c-6.705,0-12.16,5.454-12.16,12.158c0,2.395,0.806,4.61,2.106,6.59c-1.422,0.376-2.871,0.609-4.338,0.609c0,0-8.883,0-10.176,0
						c0-1.457,0-107.24,0-108.697C27.924,429.259,36.808,429.259,36.808,429.259z"/>
				</g>
				<path fill="#9B5C2D" d="M49.71,445.889c1.752,0,3.4-0.407,4.885-1.111c-0.725-8.107-6.86-14.646-14.775-15.99
					c-0.965,1.675-1.522,3.614-1.522,5.683C38.297,440.776,43.406,445.889,49.71,445.889z"/>
				<path fill="#9B5C2D" d="M20.428,434.47c0-2.098-0.576-4.062-1.564-5.752c-8.057,1.16-14.386,7.67-15.216,15.826
					c1.598,0.858,3.422,1.345,5.365,1.345C15.317,445.889,20.428,440.776,20.428,434.47z"/>
				<path fill="#9B5C2D" d="M9.014,519.342c-1.978,0-3.839,0.506-5.462,1.388v0.104c0,8.549,6.012,15.688,14.037,17.444
					c1.764-2.008,2.84-4.637,2.84-7.521C20.428,524.455,15.317,519.342,9.014,519.342z"/>
				<path fill="#9B5C2D" d="M54.676,520.834v-0.947c-1.098-0.356-2.264-0.545-3.476-0.545c-6.306,0-11.416,5.113-11.416,11.415
					c0,2.682,0.931,5.141,2.476,7.09C49.461,535.541,54.676,528.798,54.676,520.834z"/>
			</g>
		</g>
		<g>
			<rect x="88.013" y="12.733" fill="#393F35" width="5.806" height="528.175"/>
			<g>
				<g>
					<path fill="#393F35" d="M87.179,45.235c-1.074,21.645-18.872,38.598-40.52,38.598c-21.651,0-39.45-16.953-40.521-38.598
						c-0.079-1.597-1.443-2.831-3.044-2.753c-1.601,0.079-2.834,1.44-2.755,3.044c1.227,24.735,21.572,44.111,46.32,44.111
						c24.746,0,45.09-19.376,46.319-44.111c0.076-1.604-1.154-2.966-2.754-3.044C88.623,42.404,87.261,43.639,87.179,45.235z"/>
				</g>
			</g>
			<g>
				<g>
					<path fill="#393F35" d="M174.965,45.235c-1.072,21.645-18.871,38.598-40.52,38.598S94.999,66.88,93.924,45.235
						c-0.08-1.597-1.442-2.831-3.045-2.753c-1.602,0.079-2.833,1.44-2.751,3.044c1.226,24.735,21.571,44.111,46.318,44.111
						c24.745,0,45.092-19.376,46.319-44.111c0.081-1.604-1.153-2.966-2.755-3.044C176.408,42.404,175.045,43.639,174.965,45.235z"/>
				</g>
			</g>
			<path fill="#393F35" d="M48.835,94.288V80.933c0-2.004-1.625-3.627-3.627-3.627c-2.004,0-3.629,1.623-3.629,3.627v13.21
				c-15.549,1.524-27.611,14.26-28.017,30.248c-0.04,1.602,1.227,2.932,2.829,2.975c1.602,0.039,2.934-1.228,2.975-2.829
				c0.353-13.874,11.489-24.74,25.357-24.74c13.867,0,25.002,10.867,25.355,24.74c0.042,1.602,1.374,2.868,2.974,2.829
				c1.603-0.043,2.87-1.373,2.831-2.975C75.488,108.741,63.91,96.239,48.835,94.288z"/>
			<g>
				<circle fill="#EDD83A" enable-background="new    " cx="44.723" cy="125.188" r="23.216"/>
				<path fill="#F7F7F7" d="M27.779,108.246c-4.525,4.525-7.017,10.544-7.017,16.943c0,13.211,10.749,23.959,23.961,23.959
					c13.212,0,23.96-10.748,23.96-23.959c0-6.398-2.492-12.418-7.018-16.943c-4.527-4.526-10.542-7.018-16.942-7.018
					C38.322,101.228,32.305,103.72,27.779,108.246z M22.251,125.188c0-6,2.336-11.645,6.581-15.889
					c4.244-4.246,9.888-6.583,15.891-6.583c6.001,0,11.644,2.337,15.89,6.583c4.244,4.245,6.582,9.889,6.582,15.889
					c0,12.392-10.081,22.471-22.471,22.471C32.331,147.659,22.251,137.58,22.251,125.188z"/>
			</g>
			<g>
				<path fill="#EDD83A" enable-background="new    " d="M144.117,101.972c-12.818,0-23.215,10.395-23.215,23.217
					c0,12.819,10.396,23.215,23.215,23.215c12.822,0,23.217-10.396,23.217-23.215C167.334,112.366,156.939,101.972,144.117,101.972z
					"/>
				<path fill="#F7F7F7" d="M127.176,108.246c-4.526,4.525-7.018,10.544-7.018,16.943c0,13.211,10.749,23.959,23.959,23.959
					c13.214,0,23.961-10.748,23.961-23.959c0-6.398-2.493-12.418-7.019-16.943c-4.524-4.526-10.544-7.018-16.942-7.018
					C137.718,101.228,131.701,103.72,127.176,108.246z M121.646,125.188c0-6,2.339-11.645,6.585-15.889
					c4.242-4.246,9.885-6.583,15.887-6.583s11.645,2.337,15.889,6.583c4.245,4.245,6.583,9.889,6.583,15.889
					c0,12.392-10.081,22.471-22.472,22.471C131.729,147.659,121.646,137.58,121.646,125.188z"/>
			</g>
			<path fill="#393F35" d="M148.23,94.288V80.933c0-2.004-1.624-3.627-3.628-3.627c-2.003,0-3.627,1.623-3.627,3.627v13.21
				c-15.552,1.524-27.612,14.26-28.017,30.248c-0.043,1.602,1.227,2.932,2.828,2.975c1.602,0.039,2.934-1.228,2.975-2.829
				c0.353-13.874,11.488-24.74,25.355-24.74c13.868,0,25.005,10.867,25.356,24.74c0.042,1.602,1.376,2.868,2.976,2.829
				c1.602-0.043,2.868-1.373,2.828-2.975C174.881,108.741,163.303,96.239,148.23,94.288z"/>
			<path fill="#393F35" d="M95.63,7.363V4.028c0-2.408-1.948-4.354-4.353-4.354c-2.403,0-4.352,1.945-4.352,4.354v3.335
				c-3.421,1.867-5.805,5.826-5.805,10.449c0,6.414,4.547,11.609,10.157,11.609c5.607,0,10.157-5.195,10.157-11.609
				C101.435,13.189,99.051,9.23,95.63,7.363z"/>
			<circle fill="#FFFFFF" cx="31.423" cy="119.384" r="5.804"/>
			<path fill="#FFFFFF" d="M138.072,119.384c0,3.206-2.598,5.805-5.807,5.805c-3.202,0-5.801-2.599-5.801-5.805
				c0-3.205,2.599-5.803,5.801-5.803C135.475,113.581,138.072,116.179,138.072,119.384z"/>
		</g>
	</g>
	<g>
		<path fill="#556189" d="M36.808,538.699c0,0-18.366-45.661,27.795-45.661c46.159,0,28.29,44.67,28.29,44.67L36.808,538.699z"/>
		<path fill="#9EAEDD" d="M42.083,534.392c0,0-14.898-37.04,22.547-37.04c37.444,0,22.949,36.235,22.949,36.235L42.083,534.392z"/>
		<g>
			<path fill="#556189" d="M62.965,464.998c-7.671,0.517-13.295,3.472-16.717,8.796c-8.449,13.14,0.016,35.949,0.381,36.91
				c0.436,1.151,1.724,1.735,2.878,1.3c1.155-0.438,1.736-1.726,1.3-2.876c-0.081-0.219-8.039-21.679-0.799-32.924
				c2.65-4.126,6.989-6.328,13.254-6.743c6.236-0.417,10.677,1.14,13.574,4.766c7.949,9.937,1.57,31.852,1.507,32.075
				c-0.353,1.18,0.323,2.425,1.506,2.775c1.181,0.354,2.421-0.322,2.775-1.506c0.296-0.988,7.104-24.366-2.295-36.133
				C76.504,466.654,70.662,464.487,62.965,464.998z"/>
		</g>
		<path fill="#9EAEDD" d="M50.209,509.415c0,0.828-0.666,1.493-1.489,1.493s-1.49-0.665-1.49-1.493c0-0.824,0.667-1.487,1.49-1.487
			S50.209,508.591,50.209,509.415z"/>
		<circle fill="#9EAEDD" cx="80.484" cy="506.439" r="1.489"/>
	</g>
</g>
</svg>
