<?xml version="1.0" encoding="utf-8"?>
<!-- Generator: Adobe Illustrator 16.0.0, SVG Export Plug-In . SVG Version: 6.00 Build 0)  -->
<!DOCTYPE svg PUBLIC "-//W3C//DTD SVG 1.1//EN" "http://www.w3.org/Graphics/SVG/1.1/DTD/svg11.dtd">
<svg version="1.1" id="Capa_1" xmlns="http://www.w3.org/2000/svg" xmlns:xlink="http://www.w3.org/1999/xlink" x="0px" y="0px"
	 width="338px" height="360px" viewBox="0 0 338 360" enable-background="new 0 0 338 360" xml:space="preserve">
<g>
	<g>
		<g>
			<rect x="0.7" y="150.146" fill="#C49057" enable-background="new    " width="336.521" height="20.847"/>
			<path fill="#FFFFFF" d="M-0.043,149.402v22.335h338.007v-22.335H-0.043z M336.475,150.889c0,1.334,0,18.026,0,19.36
				c-1.479,0-333.552,0-335.03,0c0-1.334,0-18.026,0-19.36C2.923,150.889,334.996,150.889,336.475,150.889z"/>
		</g>
		<g>
			<rect x="0.7" y="178.438" fill="#C49057" enable-background="new    " width="336.521" height="20.846"/>
			<path fill="#FFFFFF" d="M-0.043,177.691v22.335h338.007v-22.335H-0.043z M336.475,179.183c0,1.332,0,18.023,0,19.357
				c-1.479,0-333.552,0-335.03,0c0-1.334,0-18.025,0-19.357C2.923,179.183,334.996,179.183,336.475,179.183z"/>
		</g>
		<g>
			<rect x="0.7" y="206.729" fill="#C49057" enable-background="new    " width="336.521" height="20.847"/>
			<path fill="#FFFFFF" d="M-0.043,205.983v22.337h338.007v-22.337H-0.043z M336.475,207.472c0,1.337,0,18.026,0,19.357
				c-1.479,0-333.552,0-335.03,0c0-1.331,0-18.021,0-19.357C2.923,207.472,334.996,207.472,336.475,207.472z"/>
		</g>
		<g>
			<rect x="14.102" y="141.211" fill="#C49057" enable-background="new    " width="10.424" height="215.163"/>
			<path fill="#FFFFFF" d="M13.356,140.466v216.652H25.27V140.466H13.356z M23.78,141.954c0,1.476,0,212.204,0,213.677
				c-1.185,0-7.749,0-8.934,0c0-1.473,0-212.201,0-213.677C16.031,141.954,22.595,141.954,23.78,141.954z"/>
		</g>
		<g>
			<rect x="311.906" y="141.211" fill="#C49057" enable-background="new    " width="10.424" height="208.281"/>
			<path fill="#FFFFFF" d="M311.161,140.466v209.77h11.913v-209.77H311.161z M321.584,141.954c0,1.476,0,205.315,0,206.788
				c-1.186,0-7.749,0-8.933,0c0-1.473,0-205.313,0-206.788C313.835,141.954,320.398,141.954,321.584,141.954z"/>
		</g>
		<g>
			<rect x="0.7" y="251.399" fill="#C49057" enable-background="new    " width="336.521" height="20.846"/>
			<path fill="#FFFFFF" d="M-0.043,250.656v22.331h338.007v-22.331H-0.043z M336.475,252.145c0,1.332,0,18.023,0,19.357
				c-1.479,0-333.552,0-335.03,0c0-1.334,0-18.025,0-19.357C2.923,252.145,334.996,252.145,336.475,252.145z"/>
		</g>
	</g>
	<g>
		<polygon fill="#1C1E1E" points="110.949,217.187 57.276,257.631 111.942,344.249 89.111,358.147 129.81,356.159 79.117,257.631 
			130.802,240.013 138.743,241.011 188.311,262.594 134.707,356.897 172.496,360.126 151.65,339.286 209.158,255.642 
			150.657,212.224 		"/>
		<g>
			<path fill="#9B5C2D" d="M147.063,177.529c-0.232-3.863-0.501-7.842-0.816-11.885c-2.804-35.957-9.259-76.601-24.118-78.676
				c-15.08-2.103-17.178,40.431-16.115,78.201c0.143,5.016,0.341,9.941,0.571,14.672c1.125,23.184,3.04,41.579,3.04,41.579
				l43.722-4.503C153.347,216.918,148.486,201.48,147.063,177.529z"/>
		</g>
		<g>
			<path fill="#FFCC99" enable-background="new    " d="M118.146,87.641c0,0-2.977,22.335,5.213,21.592
				c8.19-0.747,2.977-27.546,2.977-27.546L118.146,87.641z"/>
			<path fill="#FFFFFF" d="M117.451,87.227l-0.042,0.314c-0.089,0.667-2.125,16.386,2.366,21.069
				c0.994,1.035,2.221,1.491,3.652,1.363c1.238-0.115,2.281-0.72,3.096-1.807c4.491-5.983,0.708-25.784,0.543-26.623l-0.222-1.146
				L117.451,87.227z M125.813,82.987c0.432,2.523,1.424,8.912,1.424,14.722c0,3.975-0.469,7.651-1.906,9.564
				c-0.56,0.745-1.229,1.144-2.042,1.218c-0.969,0.089-1.767-0.211-2.439-0.912c-1.988-2.074-2.491-6.947-2.491-11.345
				c0-3.98,0.394-7.406,0.489-8.182C119.281,87.737,124.368,84.039,125.813,82.987z"/>
		</g>
		<g>
			<path fill="#FFCC99" enable-background="new    " d="M115.563,21.932c15.515,0,28.645,10.185,33.09,24.232
				c0.962-0.771,2.167-1.247,3.493-1.247c3.11,0,5.627,2.517,5.627,5.626c0,3.108-2.518,5.63-5.627,5.63
				c-0.675,0-1.316-0.142-1.917-0.357c0.008,0.275,0.042,0.546,0.042,0.823c0,19.172-15.538,34.707-34.708,34.707
				c-19.167,0-34.708-15.535-34.708-34.707C80.855,37.475,96.396,21.932,115.563,21.932z"/>
			<path fill="#FFFFFF" d="M80.113,56.639c0,19.549,15.902,35.455,35.45,35.455c19.527,0,35.412-15.869,35.449-35.389
				c0.379,0.075,0.766,0.212,1.134,0.212c3.513,0,6.373-2.859,6.373-6.374c0-3.514-2.86-6.373-6.373-6.373
				c-1.115,0-2.156,0.378-3.119,0.94c-4.931-14.327-18.234-23.922-33.464-23.922C96.015,21.188,80.113,37.093,80.113,56.639z
				 M81.6,56.639c0-18.729,15.236-33.96,33.963-33.96c14.879,0,27.892,9.527,32.381,23.709l0.328,1.033l0.848-0.677
				c0.885-0.709,1.934-1.084,3.027-1.084c2.692,0,4.883,2.189,4.883,4.883c0,2.694-2.19,4.886-4.883,4.886
				c-0.532,0-1.092-0.108-1.664-0.314l-1.06-0.385l0.104,1.909c0,18.728-15.237,33.962-33.964,33.962S81.6,75.366,81.6,56.639z"/>
		</g>
		<path fill="#C17540" d="M79.393,57.1c0,0-3.972,24.817,28.29,34.744c0,0-4.466,7.442-10.422,3.474c0,0,6.453,12.905,18.862-5.46
			c0,0-12.907-9.431-8.934-43.181L79.393,57.1z"/>
		<polygon fill="#C17540" points="110.872,48.822 114.625,70.711 110.561,70.711 102.744,46.947 		"/>
		<path fill="#1C1E1E" d="M136.514,45.386c0,0.691,0.558,1.249,1.248,1.249c0.692,0,1.249-0.558,1.249-1.249
			c0-0.689-0.556-1.25-1.249-1.25C137.072,44.136,136.514,44.696,136.514,45.386z"/>
		<g>
			<g>
				<polygon fill="#D8B75B" enable-background="new    " points="181,106.998 183.979,207.259 133.119,207.259 130.101,123.639 				
					"/>
				<path fill="#FFFFFF" d="M129.335,123.106l3.064,84.897h52.347l-3.032-102.022L129.335,123.106z M180.284,108.015
					c0.058,1.937,2.883,97.007,2.927,98.501c-1.466,0-48,0-49.374,0c-0.051-1.403-2.934-81.247-2.973-82.344
					C131.888,123.838,178.482,108.607,180.284,108.015z"/>
			</g>
			<g>
				<polygon fill="#D8B75B" enable-background="new    " points="129.38,123.875 130.101,123.639 133.119,207.259 130.869,207.259 
					79.747,220.66 74.782,114.445 				"/>
				<path fill="#FFFFFF" d="M79.045,221.614c0,0,51.736-13.563,51.919-13.61c0.177,0,2.926,0,2.926,0l-3.082-85.379
					c0,0-1.283,0.416-1.484,0.483c-0.362-0.063-55.328-9.557-55.328-9.557L79.045,221.614z M75.569,115.337
					c1.766,0.302,53.771,9.284,53.821,9.293c0.066,1.873,2.902,80.389,2.956,81.886c-0.667,0-1.573,0-1.573,0
					s-48.608,12.741-50.325,13.192C80.364,217.918,75.652,117.139,75.569,115.337z"/>
			</g>
		</g>
		<g>
			<path fill="#FFCC99" enable-background="new    " d="M190.359,160.05c-8.229,9.833-31.464,3.715-24.973-11.007
				c3.368-7.636,15.717-16.204,21.996-6.795C189.947,146.095,193.725,156.024,190.359,160.05z"/>
			<path fill="#FFFFFF" d="M179.262,137.411c-6.139,0.532-12.335,6.298-14.556,11.335c-2.509,5.688-0.937,10.99,4.202,14.188
				c6.227,3.867,16.802,3.833,22.023-2.408l0,0c3.775-4.518-0.508-15.055-2.928-18.69
				C185.863,138.631,182.84,137.099,179.262,137.411z M169.694,161.668c-4.52-2.811-5.841-7.302-3.625-12.322
				c2.056-4.668,7.902-9.979,13.32-10.451c3.049-0.264,5.53,1.003,7.375,3.767c1.872,2.807,4.176,8.559,4.176,12.865
				c0,1.64-0.33,3.066-1.151,4.044C185.057,165.228,175.401,165.216,169.694,161.668z"/>
		</g>
		<path fill="#C17540" d="M152.832,0.534c0,0-13.773,54.35-73.334,63.281c0,0-14.644-23.2,4.714-34.743
			C103.57,17.534,109.65,31.803,152.832,0.534z"/>
		<g>
			<path fill="#FFCC99" enable-background="new    " d="M109.31,58.518c0,0-8.131-6.255-12.82,1.249
				c-4.69,7.505,9.379,28.145,16.26,19.386"/>
			<path fill="#FFFFFF" d="M101.218,55.451c-2.177,0.389-3.979,1.71-5.36,3.922c-3.338,5.34,1.818,16.479,8.102,20.89
				c3.631,2.552,7.048,2.316,9.375-0.649l-1.17-0.918c-2.307,2.934-5.27,1.811-7.35,0.35c-5.596-3.931-10.521-14.361-7.695-18.884
				c1.148-1.837,2.613-2.926,4.355-3.244c3.613-0.655,7.346,2.166,7.381,2.19l0.908-1.18
				C109.591,57.796,105.484,54.683,101.218,55.451z"/>
		</g>
		<g>
			<path fill="#FFCC99" enable-background="new    " d="M91.587,166.006c-8.23,9.832-31.464,3.712-24.974-11.005
				c3.369-7.637,15.718-16.207,21.998-6.796C91.176,152.051,94.952,161.98,91.587,166.006z"/>
			<path fill="#FFFFFF" d="M80.488,143.369c-6.14,0.532-12.334,6.299-14.555,11.331c-2.51,5.691-0.939,10.993,4.202,14.191
				c6.226,3.867,16.802,3.83,22.022-2.409h0.002c3.776-4.518-0.508-15.057-2.929-18.69C87.09,144.589,84.067,143.057,80.488,143.369
				z M70.922,167.622c-4.518-2.809-5.841-7.299-3.625-12.319c2.056-4.667,7.901-9.981,13.32-10.449c3.048-0.265,5.531,1,7.375,3.766
				c1.872,2.807,4.176,8.555,4.176,12.864c0,1.637-0.333,3.065-1.152,4.047C86.284,171.182,76.628,171.17,70.922,167.622z"/>
		</g>
	</g>
</g>
</svg>
